<?xml version="1.0" standalone="no"?>
<!DOCTYPE svg PUBLIC "-//W3C//DTD SVG 20010904//EN"
 "http://www.w3.org/TR/2001/REC-SVG-20010904/DTD/svg10.dtd">
<svg version="1.0" xmlns="http://www.w3.org/2000/svg"
 width="737.000000pt" height="440.000000pt" viewBox="0 0 737.000000 440.000000"
 preserveAspectRatio="xMidYMid meet">

<g transform="translate(0.000000,440.000000) scale(0.100000,-0.100000)"
fill="#00000" stroke="none">
<path d="M5705 4223 c-44 -97 -81 -180 -83 -185 -2 -4 18 -8 45 -8 138 0 427
-109 738 -278 123 -66 339 -204 350 -223 4 -5 -40 21 -97 59 -333 223 -814
432 -993 432 l-52 0 -35 -79 -35 -78 66 -7 c284 -26 894 -330 1128 -561 l82
-81 168 280 c92 154 173 290 179 301 37 67 187 322 195 329 5 6 9 70 9 143 l0
133 -252 0 c-230 -1 -251 -2 -225 -16 42 -23 32 -27 -13 -4 -52 27 -154 28
-166 3 -4 -10 -6 -22 -5 -26 1 -5 -3 -6 -9 -2 -7 4 -7 12 0 25 9 16 6 19 -20
18 -16 -1 -27 -5 -24 -10 3 -5 13 -7 23 -3 13 5 13 4 4 -6 -10 -10 -16 -9 -31
4 -14 13 -37 17 -93 17 l-74 0 187 -100 c294 -155 453 -254 503 -310 11 -12
-9 -1 -45 26 -94 71 -264 171 -483 284 l-192 99 -90 0 c-49 -1 -96 -5 -102
-11 -9 -7 -17 -7 -26 0 -8 7 -92 11 -233 12 l-219 0 -80 -177z m465 157 c8 -5
11 -10 5 -10 -5 0 -17 5 -25 10 -8 5 -10 10 -5 10 6 0 17 -5 25 -10z m212 -13
c-5 -7 -11 -19 -14 -27 -3 -9 -7 -5 -10 12 -4 20 -2 25 10 20 11 -4 13 -1 7 8
-5 9 -4 11 4 6 8 -5 9 -12 3 -19z m388 -2 c-7 -8 -10 -21 -7 -29 4 -10 1 -13
-8 -10 -11 5 -11 11 -3 30 6 13 16 24 21 24 5 0 4 -7 -3 -15z m-907 -43 c-3
-20 -1 -21 18 -10 17 11 22 10 34 -5 13 -18 14 -18 25 2 6 12 15 19 20 16 5
-3 0 -21 -11 -40 -22 -36 -43 -48 -32 -17 6 16 5 16 -14 -1 -18 -15 -23 -16
-34 -5 -7 8 -25 12 -42 10 -35 -5 -50 13 -35 42 15 28 29 37 53 34 14 -2 19
-10 18 -26z m1147 -8 c0 -2 -13 2 -30 11 -16 9 -30 18 -30 21 0 2 14 -2 30
-11 17 -9 30 -18 30 -21z m-500 7 c0 -3 -11 -6 -24 -6 -18 0 -22 3 -14 12 9
11 38 7 38 -6z m328 -6 c-6 -14 -13 -23 -15 -21 -5 5 15 46 22 46 3 0 -1 -11
-7 -25z m36 -20 c-9 -14 -18 -25 -21 -25 -5 0 5 18 20 38 17 22 18 13 1 -13z
m-318 4 c3 -6 1 -16 -6 -22 -10 -9 -11 -9 -5 2 4 8 2 17 -6 22 -9 6 -10 9 -2
9 6 0 15 -5 19 -11z m-485 -9 c10 -6 19 -16 19 -23 0 -7 12 -18 28 -24 25 -9
26 -11 7 -18 -11 -5 -25 -16 -32 -24 -16 -22 -27 -7 -13 18 9 17 7 25 -10 43
-19 20 -22 21 -36 6 -20 -19 -11 -38 19 -38 15 0 18 -3 10 -11 -7 -7 -23 -9
-37 -5 -31 8 -35 40 -9 68 19 21 27 22 54 8z m299 0 c8 -5 11 -10 5 -10 -5 0
-17 5 -25 10 -8 5 -10 10 -5 10 6 0 17 -5 25 -10z m125 0 c-3 -5 -12 -10 -18
-10 -7 0 -6 4 3 10 19 12 23 12 15 0z m406 -27 c-12 -20 -14 -14 -5 12 4 9 9
14 11 11 3 -2 0 -13 -6 -23z m-911 7 c0 -5 -6 -10 -14 -10 -8 0 -18 5 -21 10
-3 6 3 10 14 10 12 0 21 -4 21 -10z m615 0 c3 -6 -1 -7 -9 -4 -18 7 -21 14 -7
14 6 0 13 -4 16 -10z m562 -47 c28 -18 55 -38 58 -44 4 -6 -25 11 -64 37 -39
26 -71 49 -71 51 0 5 5 2 77 -44z m-507 15 c0 -7 -5 -6 -13 1 -8 6 -18 7 -22
3 -5 -4 -5 -2 -1 5 8 14 36 6 36 -9z m-476 -20 c7 -37 -12 -65 -38 -55 -28 11
-30 37 -5 62 32 31 35 31 43 -7z m845 19 c8 -10 7 -19 -5 -33 -15 -18 -15 -18
-5 2 10 21 6 34 -10 34 -4 0 -11 -9 -14 -21 -4 -11 -9 -18 -12 -16 -6 7 16 47
26 47 5 0 14 -6 20 -13z m-54 -7 c-3 -5 -14 -10 -23 -9 -14 0 -13 2 3 9 27 11
27 11 20 0z m105 -30 c0 -5 -2 -10 -4 -10 -3 0 -8 5 -11 10 -3 6 -1 10 4 10 6
0 11 -4 11 -10z m-1305 -10 c3 -5 13 -6 21 -3 14 5 15 3 5 -15 -7 -13 -8 -22
-2 -22 5 0 13 9 16 21 4 13 12 18 22 15 8 -3 26 -9 39 -12 24 -6 24 -7 8 -25
-9 -11 -14 -19 -10 -19 4 0 4 -5 1 -10 -4 -6 -12 -7 -18 -3 -6 4 -27 8 -47 10
-19 2 -36 8 -38 13 -2 5 -10 6 -18 3 -8 -3 -21 -2 -29 1 -14 5 -14 8 1 31 17
26 38 32 49 15z m485 -9 c19 -9 34 -22 33 -28 -1 -5 8 -8 21 -6 30 6 53 -21
36 -42 -18 -22 -51 -19 -57 5 -5 17 -8 18 -21 8 -13 -11 -14 -9 -8 15 7 28 -7
38 -18 12 -10 -27 -29 -17 -21 12 6 27 6 27 -14 9 -26 -23 -37 -16 -19 13 15
25 22 25 68 2z m864 -18 c-8 -8 -14 -19 -14 -24 0 -5 -5 -9 -10 -9 -7 0 -7 6
0 19 5 11 7 27 4 36 -6 15 -4 15 14 4 17 -11 18 -15 6 -26z m-1140 7 c14 -5
26 -16 26 -24 0 -18 -29 -35 -48 -29 -7 3 -19 -1 -28 -7 -25 -21 -27 -3 -4 34
25 41 21 39 54 26z m1096 -5 c0 -8 -4 -15 -10 -15 -5 0 -10 7 -10 15 0 8 5 15
10 15 6 0 10 -7 10 -15z m63 -40 c-3 -9 -8 -14 -10 -11 -3 3 -2 9 2 15 9 16
15 13 8 -4z m58 -2 c13 -16 12 -17 -3 -5 -9 8 -22 11 -28 7 -16 -10 -12 -35 6
-35 8 0 12 -5 9 -10 -5 -8 -11 -7 -21 1 -17 14 -18 31 -2 47 16 16 23 15 39
-5z m-1133 -11 c12 -2 29 -13 36 -24 14 -20 14 -19 21 1 7 22 25 29 25 9 0 -6
7 -19 15 -28 17 -19 11 -45 -11 -54 -20 -8 -56 16 -49 32 3 9 0 10 -15 2 -35
-19 -73 17 -49 46 18 22 -6 16 -26 -6 -24 -27 -39 -15 -18 16 11 17 21 23 32
18 9 -4 26 -9 39 -12z m372 -13 c6 -23 6 -23 17 -4 19 33 28 7 10 -30 -20 -42
-47 -47 -47 -8 0 25 0 26 -20 8 -24 -22 -26 -6 -4 36 17 35 36 34 44 -2z m795
2 c3 -5 1 -12 -5 -16 -5 -3 -10 1 -10 9 0 18 6 21 15 7z m-1015 -32 c0 -6 -5
-19 -11 -30 -9 -19 -9 -19 10 -10 21 12 51 5 51 -11 0 -6 11 -7 25 -4 20 5 25
3 25 -14 0 -11 -4 -20 -10 -20 -5 0 -10 -7 -10 -15 0 -24 14 -17 34 15 9 17
21 28 26 25 8 -5 -26 -75 -37 -75 -4 0 -45 20 -51 25 -2 2 1 13 8 24 6 12 7
21 1 21 -5 0 -11 -7 -15 -15 -8 -21 -44 -19 -58 4 -6 10 -18 17 -25 14 -17 -7
-16 -1 4 42 16 34 33 46 33 24z m305 -39 c0 -29 -34 -40 -54 -17 -18 23 -2 49
28 45 20 -2 26 -8 26 -28z m715 10 c0 -5 -5 -10 -11 -10 -5 0 -7 5 -4 10 3 6
8 10 11 10 2 0 4 -4 4 -10z m-680 -30 c-16 -31 -11 -37 11 -11 24 29 37 21 21
-14 -13 -29 -21 -30 -47 -11 -17 12 -18 17 -7 40 7 15 17 24 22 21 7 -4 7 -12
0 -25z m74 -16 c20 -8 21 -24 1 -24 -7 0 -18 -8 -24 -17 -15 -28 -26 -6 -11
22 15 28 13 27 34 19z m30 -56 c-32 -26 -41 -18 -19 16 14 21 21 24 31 15 11
-9 9 -15 -12 -31z m-261 18 c17 -13 17 -15 1 -50 -19 -39 -34 -47 -34 -17 0
10 -7 21 -15 25 -19 7 -19 21 1 40 19 19 24 19 47 2z m327 10 c0 -15 -44 -75
-51 -70 -5 3 -6 11 -2 17 28 44 39 57 45 57 5 0 8 -2 8 -4z m-284 -51 c-7 -29
1 -32 20 -8 19 27 29 7 10 -22 -19 -29 -25 -30 -50 -12 -15 11 -16 17 -5 40
15 34 33 35 25 2z m-650 -13 c-18 -16 -18 -16 -6 6 6 13 14 21 18 18 3 -4 -2
-14 -12 -24z m47 8 c-6 -24 -23 -37 -23 -18 0 12 18 38 26 38 1 0 0 -9 -3 -20z
m914 12 c15 -9 6 -49 -13 -56 -7 -3 -21 2 -30 11 -11 11 -13 18 -5 21 6 2 11
10 11 18 0 15 18 18 37 6z m-866 -17 c8 5 5 -1 -5 -13 -25 -29 -34 -28 -28 4
3 17 7 22 12 14 5 -8 13 -9 21 -5z m56 -39 c-9 -22 -36 -31 -49 -18 -8 8 -6
19 7 38 15 24 19 25 32 11 9 -9 13 -23 10 -31z m587 19 c13 -13 13 -20 3 -35
-13 -22 -17 -23 -41 -14 -19 7 -21 35 -4 52 16 16 23 15 42 -3z m275 6 c8 -5
11 -16 6 -30 -8 -25 3 -28 20 -5 10 15 13 15 28 -1 13 -12 14 -21 7 -35 -16
-31 -11 -37 9 -10 19 24 20 24 40 6 16 -15 18 -22 9 -42 -15 -32 -32 -31 -24
1 7 27 -8 35 -18 10 -4 -12 -11 -12 -41 6 -19 12 -35 25 -35 29 0 4 -11 11
-25 14 -27 7 -30 17 -15 47 12 21 18 23 39 10z m-806 -44 c-2 -26 -1 -27 20
-12 31 22 37 19 37 -17 0 -29 -1 -30 -17 -16 -10 9 -23 13 -30 11 -6 -2 -17 5
-23 17 -9 17 -14 19 -26 9 -17 -14 -18 -5 -3 22 15 29 44 20 42 -14z m585 10
c16 -19 3 -57 -19 -57 -25 0 -34 23 -19 49 12 24 23 26 38 8z m-485 -51 c-10
-13 -19 -23 -21 -21 -5 5 22 45 31 45 4 0 0 -11 -10 -24z m55 -13 c-19 -5 -25
-23 -8 -23 6 0 10 -5 10 -11 0 -8 -4 -8 -15 1 -8 6 -20 8 -27 4 -7 -4 -4 2 6
14 11 12 26 21 35 21 13 -1 13 -2 -1 -6z m822 -12 c0 -10 -7 -22 -16 -25 -10
-4 -14 -12 -10 -22 4 -10 1 -14 -6 -11 -18 6 -13 55 7 69 17 13 25 9 25 -11z
m-760 -10 c0 -3 -7 -14 -14 -23 -12 -16 -13 -15 -12 11 1 18 5 27 14 24 6 -3
12 -8 12 -12z m34 -26 c-5 -12 -2 -14 12 -8 17 6 17 5 5 -11 -10 -12 -11 -20
-3 -28 15 -15 35 1 28 25 -3 14 -2 17 5 10 19 -19 6 -48 -21 -48 -18 0 -26 6
-28 23 -3 20 -6 21 -20 10 -13 -11 -15 -11 -7 2 20 36 39 53 29 25z m764 -18
c5 -23 -16 -47 -34 -40 -14 5 -19 44 -7 57 12 12 38 1 41 -17z m-678 -27 c0
-5 -5 -10 -11 -10 -5 0 -7 5 -4 10 3 6 8 10 11 10 2 0 4 -4 4 -10z m23 -36
c-10 -15 -19 -22 -21 -15 -2 7 4 19 14 26 26 20 27 19 7 -11z m45 -19 c-6 -14
-13 -23 -15 -21 -5 5 15 46 22 46 3 0 -1 -11 -7 -25z m25 -15 c-23 -22 -28
-18 -12 8 7 12 17 18 22 15 4 -3 0 -13 -10 -23z m35 -15 c-10 -22 -28 -35 -28
-20 0 5 33 45 37 45 1 0 -3 -11 -9 -25z m35 -21 c-19 -29 -28 -32 -13 -4 6 11
8 25 5 30 -3 5 1 7 9 4 14 -5 13 -9 -1 -30z m77 -18 c0 -2 -10 -2 -22 2 -21 5
-22 4 -9 -11 12 -15 12 -17 -3 -11 -19 7 -21 -7 -3 -25 10 -11 8 -11 -10 0
-21 12 -21 14 -6 40 13 22 20 26 35 18 10 -5 18 -11 18 -13z m20 -26 c0 -5 -4
-10 -10 -10 -5 0 -10 5 -10 10 0 6 5 10 10 10 6 0 10 -4 10 -10z m13 -45 c-3
-9 -8 -14 -10 -11 -3 3 -2 9 2 15 9 16 15 13 8 -4z"/>
<path d="M5817 4323 c-11 -10 -8 -33 4 -33 5 0 7 5 4 10 -3 6 1 10 9 10 9 0
16 5 16 10 0 11 -23 14 -33 3z"/>
<path d="M5826 4154 c-4 -10 -1 -14 6 -12 15 5 23 28 10 28 -5 0 -13 -7 -16
-16z"/>
<path d="M6060 4074 c0 -8 5 -12 10 -9 6 3 10 10 10 16 0 5 -4 9 -10 9 -5 0
-10 -7 -10 -16z"/>
<path d="M6130 4050 c0 -5 5 -10 10 -10 6 0 10 5 10 10 0 6 -4 10 -10 10 -5 0
-10 -4 -10 -10z"/>
<path d="M6230 4004 c0 -8 5 -12 10 -9 6 3 10 10 10 16 0 5 -4 9 -10 9 -5 0
-10 -7 -10 -16z"/>
<path d="M6490 4030 c0 -5 5 -10 10 -10 6 0 10 5 10 10 0 6 -4 10 -10 10 -5 0
-10 -4 -10 -10z"/>
<path d="M6376 3941 c-4 -7 -5 -15 -2 -18 9 -9 19 4 14 18 -4 11 -6 11 -12 0z"/>
<path d="M5907 3875 c-7 -16 8 -29 23 -20 15 9 12 35 -4 35 -8 0 -16 -7 -19
-15z"/>
<path d="M5980 3860 c0 -5 5 -10 10 -10 6 0 10 5 10 10 0 6 -4 10 -10 10 -5 0
-10 -4 -10 -10z"/>
<path d="M6035 3830 c-3 -5 -1 -10 4 -10 6 0 11 5 11 10 0 6 -2 10 -4 10 -3 0
-8 -4 -11 -10z"/>
<path d="M4577 4040 c-24 -51 -22 -61 23 -131 37 -58 48 -91 49 -149 2 -200 1
-214 -16 -239 -24 -35 -53 -100 -53 -117 0 -8 -4 -14 -8 -14 -5 0 -22 -30 -40
-67 -47 -101 -207 -291 -261 -312 -14 -5 -58 -17 -98 -26 l-71 -17 31 -29 c18
-17 -10 1 -60 39 -338 252 -756 330 -1151 216 -388 -112 -707 -417 -838 -798
-39 -113 -54 -227 -55 -417 -1 -153 -2 -170 -14 -144 -7 17 -27 41 -44 54 -17
13 -31 28 -31 33 0 5 -11 24 -25 43 -19 24 -27 49 -30 91 -2 32 0 63 4 68 5 6
11 29 15 51 3 22 7 49 10 60 10 46 25 113 36 153 6 24 12 68 14 97 2 30 6 57
9 62 5 8 15 63 22 123 6 49 43 229 66 327 46 189 56 310 28 338 -5 5 -9 16 -9
23 0 23 -53 102 -72 108 -10 3 -24 11 -31 17 -25 24 -143 76 -180 79 -35 4
-38 2 -47 -31 -12 -46 -60 -249 -66 -279 -3 -13 -9 -20 -15 -16 -7 4 -8 -8 -4
-38 8 -53 1 -93 -75 -448 -32 -151 -75 -360 -95 -465 -20 -104 -70 -368 -111
-585 -81 -423 -83 -435 -168 -930 -51 -296 -116 -722 -116 -757 0 -11 22 -13
117 -11 l118 3 3 30 c2 17 14 73 27 125 13 52 26 109 28 125 3 17 13 59 22 95
20 74 23 287 5 379 -12 66 -13 61 5 61 8 0 19 -17 25 -41 11 -40 12 -41 29
-23 10 11 30 29 45 41 14 13 26 30 26 38 0 8 5 15 11 15 7 0 9 9 6 22 -5 20
-2 23 30 25 32 2 75 23 46 23 -10 0 -24 34 -29 75 -7 53 -36 170 -44 180 -5 6
-8 29 -6 50 2 23 -4 52 -13 67 -14 26 -14 29 10 54 l24 26 -43 -21 c-49 -25
-49 -27 -27 -151 8 -47 15 -95 15 -107 0 -21 -19 -48 -40 -55 -7 -2 -6 -29 5
-82 8 -44 14 -80 12 -81 -20 -17 -51 -25 -59 -17 -5 5 -25 86 -44 178 -54 264
-53 258 -41 272 14 18 82 52 102 52 18 0 20 17 3 22 -9 3 -8 19 6 64 17 58 17
63 -4 219 -27 197 -24 279 14 353 34 68 73 92 146 92 43 0 67 -7 107 -30 59
-34 65 -41 69 -84 4 -47 62 -315 81 -371 9 -27 31 -68 50 -89 36 -44 41 -56
18 -56 -8 0 -15 -4 -15 -10 0 -10 -38 -21 -131 -40 -45 -9 -58 -16 -63 -32 -3
-12 -1 -27 4 -33 5 -6 7 -21 3 -33 -3 -13 -1 -22 6 -22 5 0 8 -7 5 -15 -4 -8
-2 -15 4 -15 5 0 9 -17 8 -37 -1 -21 4 -53 11 -71 7 -18 13 -65 13 -105 0 -90
3 -117 13 -118 30 -2 117 15 120 25 3 6 -19 106 -49 221 -29 115 -50 213 -48
217 3 4 18 8 33 8 24 0 28 -4 24 -22 -2 -13 18 -111 44 -218 l48 -195 35 -3
c27 -2 42 -12 64 -42 16 -22 41 -42 55 -45 37 -9 85 -53 110 -101 15 -28 39
-149 84 -415 l63 -374 88 -3 c82 -3 88 -1 81 15 -8 19 -12 41 -40 188 -16 86
-30 142 -42 175 -3 8 -7 20 -9 25 -2 6 -14 38 -29 72 -33 81 -39 192 -15 282
10 35 25 70 33 78 26 26 123 20 200 -12 51 -21 63 -10 32 27 -14 17 -24 32
-22 35 3 2 58 -14 123 -35 136 -45 235 -68 349 -81 81 -9 262 -8 345 3 39 5
41 5 15 -4 -16 -5 -48 -12 -70 -16 -22 -3 -44 -10 -49 -15 -6 -5 -20 -9 -33
-9 -13 0 -23 -4 -23 -10 0 -5 -11 -10 -25 -10 -14 0 -25 -4 -25 -10 0 -5 -9
-10 -20 -10 -11 0 -19 -5 -17 -11 2 -11 -138 -14 -193 -3 l-25 4 25 -10 c44
-20 201 -49 318 -60 62 -6 226 -12 365 -13 343 -3 491 24 686 121 113 57 122
63 183 117 13 12 27 21 31 22 18 2 58 44 51 54 -3 6 3 13 15 16 12 3 21 11 21
17 0 7 18 27 40 45 22 17 40 38 40 46 0 7 5 15 11 17 18 6 -26 83 -60 107 -39
28 -46 54 -25 87 15 22 16 31 6 57 -12 33 -2 57 24 57 10 0 12 8 8 30 -5 25
-3 30 18 35 21 5 24 12 22 45 -1 21 -12 58 -26 82 -13 24 -39 81 -57 128 -19
47 -45 107 -59 135 -35 70 -27 162 26 304 38 101 38 105 20 123 -10 10 -20 18
-21 18 -2 0 -26 21 -53 48 -82 78 -127 113 -141 108 -7 -3 -13 -1 -13 5 0 39
-190 362 -236 399 -23 20 -17 27 32 34 59 8 129 42 165 81 26 27 108 153 272
412 47 74 55 145 31 256 l-6 27 66 0 c111 0 156 38 156 131 0 44 -4 55 -28 77
-16 15 -57 38 -92 52 -71 29 -91 50 -74 78 23 37 94 23 94 -19 0 -16 8 -19 50
-19 57 0 61 9 34 66 -28 59 -128 91 -201 63 -15 -5 -42 -24 -59 -40 l-31 -30
-29 43 -29 44 -18 -36z m207 -223 c79 -27 108 -67 71 -97 -35 -29 -105 -1
-105 42 0 13 -7 18 -25 18 -14 0 -25 6 -26 13 0 6 -2 25 -4 40 -4 27 -3 28 18
14 12 -7 44 -21 71 -30z m-1207 -623 c368 -76 716 -403 828 -779 40 -134 47
-205 36 -360 -17 -251 -68 -399 -218 -633 -55 -86 -102 -138 -193 -211 -43
-35 -37 -28 24 32 44 42 81 83 82 90 1 8 27 47 58 87 146 189 239 494 223 731
-11 162 -33 242 -113 403 -68 137 -127 219 -226 317 -150 149 -368 264 -568
299 -88 15 -102 21 -65 30 46 11 50 11 132 -6z m-470 -30 c-3 -3 -12 -4 -19
-1 -8 3 -5 6 6 6 11 1 17 -2 13 -5z m-50 -10 c-3 -3 -12 -4 -19 -1 -8 3 -5 6
6 6 11 1 17 -2 13 -5z m-47 -8 c0 -3 -24 -12 -52 -22 -29 -9 -64 -22 -78 -29
-14 -7 -43 -20 -64 -29 -122 -53 -282 -190 -393 -336 -61 -81 -173 -287 -173
-320 0 -9 -7 -26 -16 -38 -62 -90 -47 -418 30 -635 36 -103 118 -253 136 -249
6 1 9 -2 5 -8 -11 -18 81 -124 190 -217 116 -99 230 -158 390 -202 33 -9 65
-19 70 -23 6 -3 27 -9 49 -13 26 -5 34 -10 24 -16 -18 -12 -75 -11 -83 1 -4 6
-10 8 -14 5 -22 -13 -151 44 -366 159 -72 39 -214 177 -294 285 -18 25 -31 39
-28 31 30 -82 30 -84 -1 -118 -29 -31 -52 -41 -52 -23 0 5 6 12 13 15 7 3 5 5
-4 3 -23 -3 -60 46 -106 138 -201 403 -150 906 127 1248 66 81 185 185 198
173 3 -4 0 -11 -8 -16 -24 -15 -2 -11 30 5 17 9 66 40 111 70 95 66 158 98
259 136 72 27 100 34 100 25z m575 -75 c44 -12 100 -31 125 -43 77 -35 94 -41
116 -39 14 1 34 -12 57 -39 23 -27 40 -39 48 -34 7 4 10 3 6 -3 -4 -6 9 -18
28 -27 19 -9 35 -21 35 -27 0 -6 5 -7 10 -4 6 3 10 1 10 -5 0 -6 31 -41 68
-78 57 -57 79 -89 135 -202 68 -135 81 -178 112 -360 21 -121 18 -179 -14
-310 -42 -171 -132 -324 -285 -485 -45 -47 -79 -89 -76 -92 3 -3 -3 -3 -12 0
-9 3 -22 -1 -28 -8 -31 -37 -171 -103 -280 -133 -205 -56 -482 -66 -610 -22
-86 30 -227 101 -302 151 -64 44 -191 166 -246 237 -18 23 -38 40 -43 37 -5
-4 -8 4 -6 17 1 15 -5 26 -19 32 -22 10 -36 33 -73 117 -79 180 -91 410 -34
644 17 68 101 255 115 255 11 0 12 3 -29 -76 -35 -66 -75 -187 -91 -274 -16
-88 -7 -322 16 -415 21 -83 49 -162 36 -100 -31 151 -40 438 -17 535 8 36 16
74 16 85 1 11 5 23 10 26 4 3 13 27 20 55 7 27 29 72 48 99 19 28 41 63 49 78
19 38 114 148 144 167 13 8 59 42 102 74 129 98 289 162 459 185 112 15 307 6
400 -18z m-1011 -256 c-6 -16 -24 -21 -24 -7 0 11 11 22 21 22 5 0 6 -7 3 -15z
m-95 -108 c-7 -15 -16 -24 -20 -21 -5 3 -1 16 7 30 21 31 29 25 13 -9z m-29
-37 c0 -5 -5 -10 -11 -10 -5 0 -7 5 -4 10 3 6 8 10 11 10 2 0 4 -4 4 -10z
m-395 -965 c9 -44 19 -87 22 -95 3 -8 5 -21 4 -28 -1 -8 6 -21 16 -29 15 -12
15 -14 2 -10 -15 5 -15 1 -3 -39 10 -33 10 -44 1 -44 -18 0 -34 13 -35 30 -1
8 -6 42 -12 75 -13 77 -24 232 -17 225 3 -3 13 -41 22 -85z m401 -242 c23 -31
24 -34 5 -18 -22 19 -46 55 -38 55 3 0 17 -17 33 -37z m79 -93 c27 -27 47 -50
44 -50 -3 0 -27 23 -54 50 -27 28 -47 50 -44 50 3 0 27 -22 54 -50z m1535 -45
c-24 -25 -46 -45 -49 -45 -3 0 15 20 39 45 24 25 46 45 49 45 3 0 -15 -20 -39
-45z m-1449 -32 c13 -16 12 -17 -3 -4 -17 13 -22 21 -14 21 2 0 10 -8 17 -17z
m-574 -25 c-3 -8 -6 -5 -6 6 -1 11 2 17 5 13 3 -3 4 -12 1 -19z m1923 -103 c0
-2 -10 -9 -22 -15 -22 -11 -22 -10 -4 4 21 17 26 19 26 11z m-110 -50 c-6 -8
-20 -17 -31 -20 -11 -4 -17 -11 -14 -16 4 -5 4 -9 1 -9 -3 0 -8 4 -11 10 -3 5
9 19 27 30 39 24 44 25 28 5z m-542 -82 c-10 -2 -26 -2 -35 0 -10 3 -2 5 17 5
19 0 27 -2 18 -5z m-1828 -203 c0 -5 -9 -10 -20 -10 -11 0 -20 5 -20 10 0 6 9
10 20 10 11 0 20 -4 20 -10z m1845 -149 c-4 -3 -20 -6 -36 -7 -23 -1 -27 1
-19 11 5 7 22 10 35 7 14 -2 23 -7 20 -11z"/>
<path d="M3840 2965 c7 -8 17 -15 22 -15 6 0 5 7 -2 15 -7 8 -17 15 -22 15 -6
0 -5 -7 2 -15z"/>
<path d="M2794 2832 c-21 -16 -46 -37 -54 -47 -8 -11 11 1 43 24 51 39 64 51
54 51 -2 0 -22 -13 -43 -28z"/>
<path d="M2649 2701 c-28 -33 -61 -74 -71 -93 l-20 -33 24 30 c12 16 47 58 76
92 67 80 60 83 -9 4z"/>
<path d="M4310 2125 c0 -8 4 -15 8 -15 5 0 9 7 9 15 0 8 -4 15 -9 15 -4 0 -8
-7 -8 -15z"/>
<path d="M4298 1978 c-10 -70 -29 -157 -42 -194 -29 -80 -27 -97 3 -28 29 64
63 236 59 297 -2 42 -6 28 -20 -75z"/>
<path d="M2957 4057 c-170 -55 -205 -289 -58 -392 57 -40 166 -48 227 -17 128
66 164 223 77 340 -48 64 -162 96 -246 69z m150 -110 c31 -29 37 -41 40 -88 3
-42 0 -61 -17 -87 -41 -66 -126 -77 -183 -24 -87 82 -31 232 86 232 28 0 46
-8 74 -33z"/>
<path d="M2410 3850 l0 -210 50 0 50 0 0 86 0 87 66 -87 66 -86 59 0 59 0 -73
93 c-40 50 -77 98 -81 105 -5 8 19 45 66 105 101 126 99 117 31 117 l-58 -1
-65 -86 -65 -86 -3 86 -3 87 -49 0 -50 0 0 -210z"/>
<path d="M3370 4058 c0 -2 -1 -96 -3 -211 l-2 -207 48 0 47 0 0 55 c0 52 1 55
25 55 19 0 33 -13 61 -55 l37 -55 53 0 c30 0 54 2 54 5 0 2 -16 29 -35 59 -19
30 -35 58 -35 61 0 4 13 18 30 31 35 30 54 89 44 140 -9 48 -57 101 -102 114
-31 8 -222 15 -222 8z m205 -103 c53 -52 13 -125 -70 -125 l-45 0 0 75 0 75
45 0 c35 0 52 -6 70 -25z"/>
<path d="M3830 3850 l0 -210 50 0 50 0 0 55 c0 50 2 55 23 55 16 0 32 -15 57
-55 l35 -55 57 0 57 0 -40 61 -40 60 35 39 c58 64 60 142 4 205 -37 43 -79 55
-195 55 l-93 0 0 -210z m204 109 c59 -46 17 -129 -65 -129 l-37 0 -4 71 c-2
39 -1 73 1 75 13 12 81 2 105 -17z"/>
<path d="M4280 3850 l0 -210 128 0 127 0 0 33 0 32 -79 5 -79 5 0 45 0 45 79
5 79 5 0 33 0 32 -76 0 c-41 0 -78 2 -80 4 -2 3 -3 25 -1 50 l4 45 76 3 76 3
0 35 0 35 -127 3 -127 3 0 -211z"/>
<path d="M7229 3700 c-351 -527 -835 -1320 -1264 -2070 -182 -319 -217 -374
-260 -400 -41 -25 -90 -27 -249 -11 -138 14 -169 9 -179 -30 -3 -13 -14 -19
-31 -19 -23 0 -25 -2 -16 -19 17 -33 12 -51 -14 -51 -21 0 -24 -4 -22 -32 1
-28 -3 -33 -29 -38 -24 -4 -26 -7 -12 -12 9 -4 17 -17 17 -29 0 -15 4 -19 16
-15 8 3 12 2 9 -4 -3 -6 0 -10 8 -10 8 0 36 -10 62 -21 54 -24 182 -32 206
-13 8 6 28 14 44 18 17 4 44 14 60 21 40 18 186 73 205 77 8 2 17 6 20 10 6 7
41 16 95 24 48 7 66 13 145 52 66 32 180 123 180 143 0 4 12 26 28 49 15 23
27 45 27 49 0 3 8 17 17 31 9 14 24 42 34 63 10 20 21 37 26 37 4 0 8 6 8 13
0 20 28 73 45 87 8 7 15 19 15 27 0 8 8 27 18 41 11 15 25 42 33 60 8 17 17
32 21 32 3 0 9 14 13 31 4 17 13 33 21 36 8 3 14 13 14 22 0 9 10 32 22 51 12
19 33 58 47 85 14 28 31 55 39 61 8 6 12 16 8 22 -4 7 -3 12 1 12 5 0 14 12
21 28 7 15 23 45 37 67 44 73 55 97 48 108 -3 6 -1 7 5 3 7 -4 12 -1 12 9 0 9
9 29 19 43 10 15 34 56 52 92 18 36 36 67 40 70 4 3 21 33 38 67 18 34 36 65
41 68 6 4 10 13 10 21 0 9 16 39 35 68 19 29 35 56 35 60 0 3 11 23 24 44 12
20 25 42 27 47 5 16 120 209 127 215 6 5 32 49 71 125 9 16 22 35 29 43 41 45
42 61 40 359 l-3 287 -136 -204z"/>
<path d="M5425 3180 c-3 -6 1 -7 9 -4 18 7 21 14 7 14 -6 0 -13 -4 -16 -10z"/>
<path d="M5406 3144 c-7 -19 0 -34 17 -34 8 0 7 4 -2 9 -12 8 -12 12 -2 25 8
9 9 16 3 16 -5 0 -13 -7 -16 -16z"/>
<path d="M890 3140 c0 -5 5 -10 10 -10 6 0 10 5 10 10 0 6 -4 10 -10 10 -5 0
-10 -4 -10 -10z"/>
<path d="M935 3132 c6 -6 19 -12 30 -14 21 -4 22 -10 9 -68 -4 -20 -3 -31 2
-27 13 13 34 91 26 98 -12 12 -78 22 -67 11z"/>
<path d="M5501 3119 c-13 -11 -22 -22 -19 -24 2 -3 15 6 28 20 28 30 24 32 -9
4z"/>
<path d="M5633 3091 c1 -22 6 -37 10 -34 5 3 7 16 4 29 -2 13 1 25 6 27 6 2 3
6 -6 10 -14 5 -16 0 -14 -32z"/>
<path d="M5565 3090 c-10 -11 -13 -20 -7 -20 6 0 16 9 22 20 6 11 9 20 7 20
-2 0 -12 -9 -22 -20z"/>
<path d="M1077 3081 c-3 -14 -12 -18 -33 -15 l-29 4 28 -12 c36 -16 28 -34
-14 -30 -42 3 -28 -15 18 -24 29 -6 31 -4 37 31 4 20 10 43 13 51 3 8 1 14 -5
14 -5 0 -12 -8 -15 -19z"/>
<path d="M5599 3083 c-13 -16 -12 -17 4 -4 16 13 21 21 13 21 -2 0 -10 -8 -17
-17z"/>
<path d="M1154 3063 c-3 -10 -11 -28 -16 -40 -8 -17 -8 -26 2 -38 18 -22 55
-15 56 10 1 11 5 28 9 38 4 9 5 24 1 32 -8 21 -45 19 -52 -2z m36 -19 c0 -9
-5 -14 -12 -12 -18 6 -21 28 -4 28 9 0 16 -7 16 -16z m-10 -39 c0 -8 -7 -15
-15 -15 -8 0 -15 7 -15 15 0 8 7 15 15 15 8 0 15 -7 15 -15z"/>
<path d="M5670 3065 c-6 -8 -10 -20 -7 -27 4 -8 6 -7 6 4 1 9 9 22 19 27 9 6
12 11 6 11 -6 0 -17 -7 -24 -15z"/>
<path d="M1242 3048 c-19 -19 -14 -49 8 -55 29 -8 24 -26 -5 -20 -16 3 -24 0
-22 -7 8 -23 51 -12 65 18 24 48 -12 98 -46 64z m38 -22 c0 -21 -21 -31 -30
-15 -5 7 -6 17 -4 21 9 14 34 9 34 -6z"/>
<path d="M5703 3040 c-7 -10 -9 -21 -4 -24 4 -3 13 6 19 19 14 30 2 33 -15 5z"/>
<path d="M5752 3025 c-9 -18 -8 -26 1 -31 7 -4 9 -3 4 1 -4 5 0 16 9 26 8 9
11 20 6 23 -5 3 -14 -6 -20 -19z"/>
<path d="M1320 3030 c0 -5 5 -10 10 -10 6 0 10 5 10 10 0 6 -4 10 -10 10 -5 0
-10 -4 -10 -10z"/>
<path d="M5360 3028 c-16 -7 -20 -12 -12 -15 8 -3 21 2 30 11 19 18 17 19 -18
4z"/>
<path d="M1358 3013 c-25 -30 -28 -61 -7 -86 l19 -22 20 24 c22 26 26 71 8 89
-16 16 -22 15 -40 -5z m32 -32 c0 -33 -26 -62 -35 -39 -7 18 11 68 25 68 5 0
10 -13 10 -29z"/>
<path d="M5795 2999 c-10 -30 -2 -32 12 -3 6 13 7 24 3 24 -5 0 -12 -9 -15
-21z"/>
<path d="M5404 2985 c-9 -14 -14 -28 -11 -31 3 -3 12 9 20 25 19 38 14 40 -9
6z"/>
<path d="M5833 2987 c-10 -21 -10 -25 2 -21 7 3 15 -2 18 -13 4 -15 5 -14 6 4
0 12 4 23 9 26 4 2 2 2 -5 1 -6 -2 -13 4 -15 13 -2 12 -6 10 -15 -10z"/>
<path d="M5441 2977 c-13 -21 -12 -21 5 -5 10 10 16 20 13 22 -3 3 -11 -5 -18
-17z"/>
<path d="M5473 2970 c-11 -16 -10 -18 2 -14 8 4 15 12 15 20 0 19 -3 18 -17
-6z"/>
<path d="M840 2954 c-6 -14 -8 -29 -5 -34 4 -6 55 -21 55 -16 0 1 4 16 9 34 5
17 6 32 1 32 -4 0 -11 -11 -14 -25 -4 -14 -14 -25 -22 -25 -13 0 -15 7 -10 30
7 37 -1 39 -14 4z"/>
<path d="M5527 2934 c-10 -19 -12 -32 -7 -29 12 7 33 55 27 61 -2 2 -11 -12
-20 -32z"/>
<path d="M5897 2949 c-4 -16 -3 -18 9 -8 16 13 19 29 5 29 -5 0 -11 -9 -14
-21z"/>
<path d="M791 2944 c0 -11 3 -14 6 -6 3 7 2 16 -1 19 -3 4 -6 -2 -5 -13z"/>
<path d="M5572 2940 c-18 -29 -15 -38 4 -12 9 13 14 25 12 27 -2 2 -9 -5 -16
-15z"/>
<path d="M5927 2915 c-9 -19 -15 -35 -12 -35 7 0 37 61 33 66 -3 2 -12 -12
-21 -31z"/>
<path d="M991 2911 c-14 -33 -8 -66 14 -75 24 -9 42 3 56 36 15 37 3 62 -33
66 -20 2 -28 -3 -37 -27z m56 3 c8 -21 -13 -64 -32 -64 -10 0 -15 10 -15 28 0
43 34 69 47 36z"/>
<path d="M5603 2925 c-3 -9 -3 -19 1 -22 3 -4 6 1 6 10 0 8 6 18 13 20 9 4 9
6 -1 6 -7 1 -15 -6 -19 -14z"/>
<path d="M5642 2910 c-14 -23 -15 -30 -3 -30 8 0 24 41 18 47 -2 1 -8 -7 -15
-17z"/>
<path d="M1110 2906 l25 -14 -27 -12 c-32 -15 -43 -37 -27 -57 14 -17 51 -14
57 5 3 9 -3 11 -22 6 -38 -9 -33 13 9 37 41 24 44 34 13 43 -40 10 -54 6 -28
-8z"/>
<path d="M1255 2880 c-3 -6 1 -7 9 -4 18 7 21 14 7 14 -6 0 -13 -4 -16 -10z"/>
<path d="M1344 2863 c4 -7 5 -25 1 -40 -5 -16 -10 -37 -12 -48 -2 -11 -11 -26
-20 -32 -15 -12 -15 -13 -1 -13 24 0 58 48 58 80 0 15 -8 36 -17 47 -10 10
-14 13 -9 6z"/>
<path d="M5296 2865 c-9 -26 -7 -32 5 -12 6 10 9 21 6 23 -2 3 -7 -2 -11 -11z"/>
<path d="M5330 2860 c-9 -16 -8 -18 5 -14 8 4 15 12 15 20 0 20 -7 17 -20 -6z"/>
<path d="M5425 2849 c-9 -17 -14 -33 -12 -36 3 -2 8 5 12 16 3 12 13 28 21 36
9 8 11 15 5 15 -6 0 -18 -14 -26 -31z"/>
<path d="M5476 2856 c3 -8 1 -24 -6 -35 -6 -12 -8 -21 -6 -21 10 0 35 57 29
64 -12 11 -22 6 -17 -8z"/>
<path d="M1215 2820 c-6 -10 20 -80 30 -80 3 0 1 9 -5 19 -7 13 -7 28 0 45 7
20 6 26 -5 26 -7 0 -16 -4 -20 -10z"/>
<path d="M5494 2795 c-9 -14 -14 -28 -11 -31 3 -3 12 9 20 25 19 38 14 40 -9
6z"/>
<path d="M5536 2783 c-6 -14 -5 -15 5 -6 7 7 10 15 7 18 -3 3 -9 -2 -12 -12z"/>
<path d="M5572 2788 c-7 -7 -12 -19 -12 -27 1 -12 4 -11 12 4 6 11 16 23 22
27 7 5 8 8 1 8 -6 0 -16 -5 -23 -12z"/>
<path d="M5652 2778 c-20 -26 -42 -78 -32 -78 5 0 17 17 25 37 9 21 21 41 28
45 8 5 8 8 1 8 -6 0 -16 -6 -22 -12z"/>
<path d="M5602 2760 c-8 -13 -8 -20 -2 -20 6 0 13 7 17 15 9 24 -1 27 -15 5z"/>
<path d="M5680 2755 c-8 -9 -8 -15 -2 -15 12 0 26 19 19 26 -2 2 -10 -2 -17
-11z"/>
<path d="M5669 2713 c-13 -16 -12 -17 4 -4 16 13 21 21 13 21 -2 0 -10 -8 -17
-17z"/>
<path d="M5707 2723 c-4 -3 -7 -13 -7 -22 1 -13 3 -13 11 2 11 19 8 33 -4 20z"/>
<path d="M5742 2708 c-7 -7 -12 -19 -11 -27 0 -11 4 -8 11 7 6 12 15 22 20 22
16 0 20 -30 7 -48 -12 -16 -11 -15 6 1 15 13 17 21 9 34 -14 22 -27 26 -42 11z"/>
<path d="M5812 2651 l-2 -36 15 29 c18 34 18 33 3 39 -9 3 -14 -8 -16 -32z"/>
<path d="M5855 2629 c-10 -30 0 -33 13 -4 6 14 7 25 2 25 -5 0 -12 -9 -15 -21z"/>
<path d="M5895 2625 c-4 -11 -10 -24 -13 -29 -3 -5 2 -7 11 -3 10 4 17 0 20
-11 4 -13 5 -11 6 5 0 12 4 23 9 26 4 2 2 2 -5 1 -6 -2 -14 5 -16 14 -3 15 -5
14 -12 -3z"/>
<path d="M5946 2574 c-5 -14 -4 -15 9 -4 17 14 19 20 6 20 -5 0 -12 -7 -15
-16z"/>
<path d="M5986 2576 c3 -9 1 -23 -5 -30 -7 -8 -8 -16 -4 -19 5 -3 13 5 20 19
8 18 8 26 -3 35 -12 10 -13 9 -8 -5z"/>
<path d="M4998 2333 c-17 -19 -33 -63 -24 -63 3 0 15 18 26 40 22 44 22 50 -2
23z"/>
<path d="M599 2324 c-16 -20 0 -49 27 -49 22 0 31 30 14 50 -16 19 -24 19 -41
-1z m38 -10 c8 -21 -13 -42 -28 -27 -13 13 -5 43 11 43 6 0 13 -7 17 -16z"/>
<path d="M720 2321 c0 -5 -11 -8 -25 -5 -23 4 -25 1 -24 -28 0 -29 1 -30 9
-12 15 38 33 41 28 5 -7 -45 8 -38 20 9 5 23 6 40 1 40 -5 0 -9 -4 -9 -9z"/>
<path d="M5107 2306 c-4 -10 -5 -21 -2 -24 9 -9 17 6 13 25 -3 17 -4 17 -11
-1z"/>
<path d="M753 2288 c-24 -31 -23 -48 3 -54 34 -9 64 18 48 44 -14 22 -38 27
-51 10z m34 -32 c-4 -9 -11 -16 -17 -16 -11 0 -14 33 -3 44 11 10 26 -11 20
-28z"/>
<path d="M910 2275 c0 -11 -6 -15 -19 -10 -22 7 -44 -17 -39 -42 2 -11 12 -18
27 -18 19 0 27 8 37 37 8 23 9 40 3 43 -5 4 -9 -1 -9 -10z m-13 -49 c-4 -9
-11 -16 -17 -16 -11 0 -14 33 -3 44 11 10 26 -11 20 -28z"/>
<path d="M822 2248 c-2 -25 0 -29 8 -18 12 18 13 50 2 50 -4 0 -9 -15 -10 -32z"/>
<path d="M5218 2273 c33 -7 27 -30 -13 -43 -38 -12 -44 -24 -19 -34 22 -9 31
-7 16 3 -10 6 -4 14 23 30 31 18 35 24 25 36 -7 8 -22 14 -34 14 -20 -2 -20
-2 2 -6z"/>
<path d="M932 2220 c-2 -21 3 -30 19 -35 27 -9 42 6 37 36 -2 17 -10 24 -28
26 -22 1 -26 -3 -28 -27z m48 -5 c0 -17 -17 -28 -30 -20 -7 4 -7 13 0 26 12
21 30 17 30 -6z"/>
<path d="M5277 2232 c-18 -20 -23 -57 -8 -66 4 -3 6 5 4 17 -6 29 19 62 41 54
21 -8 21 -35 -1 -59 -9 -10 -11 -18 -5 -18 29 0 43 74 16 84 -24 9 -29 8 -47
-12z"/>
<path d="M1011 2211 c-15 -28 -14 -68 3 -74 22 -8 48 27 44 60 -4 34 -32 43
-47 14z m39 -12 c0 -5 -7 -9 -15 -9 -15 0 -20 12 -9 23 8 8 24 -1 24 -14z
m-19 -42 c-13 -13 -26 -3 -16 12 3 6 11 8 17 5 6 -4 6 -10 -1 -17z"/>
<path d="M1080 2200 c0 -10 -3 -25 -6 -33 -7 -20 32 -33 52 -16 23 19 13 52
-18 60 -23 6 -28 4 -28 -11z m40 -19 c0 -23 -16 -36 -25 -21 -9 14 1 40 15 40
5 0 10 -9 10 -19z"/>
<path d="M1157 2168 c5 -23 2 -34 -12 -45 -15 -10 -15 -13 -4 -13 8 0 20 5 27
12 9 9 12 7 12 -12 0 -39 18 -10 26 40 6 42 5 44 -10 25 -16 -20 -16 -20 -22
3 -10 34 -24 26 -17 -10z"/>
<path d="M4920 2183 c-12 -15 -12 -16 0 -5 20 17 38 15 44 -5 4 -14 4 -14 3 2
-3 26 -30 31 -47 8z"/>
<path d="M5020 2143 c-11 -15 -19 -34 -18 -42 4 -22 42 -25 59 -5 12 14 10 19
-10 35 -20 16 -21 20 -7 25 9 3 23 1 31 -6 9 -7 15 -8 15 -2 0 9 -23 22 -40
22 -5 0 -18 -12 -30 -27z m36 -24 c9 -15 -11 -33 -30 -26 -9 4 -13 13 -10 22
7 17 30 20 40 4z"/>
<path d="M5411 2134 c-14 -32 -7 -44 9 -15 11 22 40 29 40 10 0 -6 -5 -19 -10
-30 -14 -26 -2 -24 19 3 22 27 46 16 30 -13 -6 -12 -8 -23 -6 -26 9 -8 29 38
23 53 -3 8 -14 14 -25 14 -11 0 -21 4 -23 9 -1 4 -12 11 -24 15 -16 5 -23 0
-33 -20z"/>
<path d="M4938 2133 c-14 -13 -20 -14 -32 -3 -11 9 -16 9 -16 1 0 -23 32 -24
53 -2 12 11 19 21 16 21 -2 0 -12 -7 -21 -17z"/>
<path d="M5105 2130 c-3 -5 -4 -14 -1 -19 3 -5 -1 -14 -9 -21 -12 -10 -13 -16
-4 -26 17 -21 38 -17 49 10 5 13 13 27 19 30 6 4 8 13 4 21 -8 22 -22 18 -16
-5 4 -13 0 -20 -9 -20 -22 0 -29 12 -17 27 8 9 8 13 1 13 -6 0 -14 -4 -17 -10z
m25 -49 c0 -14 -18 -23 -30 -16 -6 4 -8 11 -5 16 8 12 35 12 35 0z"/>
<path d="M823 2085 c-1 -26 3 -34 20 -39 25 -6 47 10 47 35 0 20 -5 24 -40 32
-23 5 -25 3 -27 -28z m47 -5 c0 -11 -7 -20 -15 -20 -15 0 -21 21 -8 33 12 13
23 7 23 -13z"/>
<path d="M5543 2080 l-23 -39 22 -15 c31 -22 48 -20 20 2 l-24 18 22 37 c12
20 18 37 13 37 -4 0 -18 -18 -30 -40z"/>
<path d="M955 2100 c-4 -6 -17 -9 -29 -6 -18 4 -21 0 -23 -32 l-2 -37 15 28
c19 36 35 35 28 -3 -9 -45 4 -36 16 11 11 41 8 61 -5 39z"/>
<path d="M5207 2065 c-19 -39 -23 -61 -6 -32 8 14 18 17 37 13 26 -5 26 -5 5
6 -13 6 -23 15 -23 20 0 15 31 21 43 9 6 -6 16 -11 22 -11 17 1 -27 30 -45 30
-9 0 -24 -16 -33 -35z"/>
<path d="M985 2070 c-3 -6 4 -10 17 -10 17 0 19 -3 9 -9 -7 -5 -10 -14 -7 -20
9 -15 -7 -14 -22 1 -9 9 -12 9 -12 1 0 -7 4 -14 10 -18 5 -3 6 -13 3 -22 -5
-12 -1 -11 14 4 29 29 39 63 22 74 -18 11 -26 11 -34 -1z"/>
<path d="M1090 2071 c0 -5 -10 -11 -22 -13 -17 -2 -24 -11 -26 -31 -4 -32 22
-48 43 -26 18 19 30 79 16 79 -6 0 -11 -4 -11 -9z m-14 -57 c-5 -13 -10 -14
-18 -6 -6 6 -8 18 -4 28 5 13 10 14 18 6 6 -6 8 -18 4 -28z"/>
<path d="M5291 2029 c-13 -22 -21 -42 -20 -43 13 -11 52 -27 56 -23 2 3 -5 8
-16 12 -25 8 -26 16 -5 56 24 46 11 45 -15 -2z"/>
<path d="M1111 2043 c0 -5 4 -17 9 -28 5 -14 2 -26 -13 -42 -24 -27 -16 -30
18 -7 22 15 23 14 18 -5 -3 -12 -1 -21 4 -21 12 0 33 89 23 95 -4 3 -11 -5
-15 -18 -6 -22 -7 -21 -17 6 -9 24 -29 39 -27 20z"/>
<path d="M5662 2009 c-47 -42 -35 -45 13 -4 22 19 36 34 30 34 -5 0 -25 -13
-43 -30z"/>
<path d="M600 2021 c0 -5 10 -15 22 -23 20 -13 21 -17 9 -32 -10 -12 -17 -14
-27 -5 -9 7 -14 8 -14 1 0 -16 31 -23 46 -11 19 16 17 36 -6 59 -22 22 -30 25
-30 11z"/>
<path d="M677 2013 c-11 -17 -19 -83 -11 -84 5 0 19 -2 30 -5 18 -3 23 2 26
26 6 37 -5 39 -21 3 -17 -38 -35 -16 -20 26 10 30 8 53 -4 34z"/>
<path d="M750 1965 c-7 -8 -10 -26 -8 -40 3 -14 1 -25 -3 -25 -5 0 -9 -4 -9
-10 0 -5 12 -10 26 -10 14 0 23 4 19 10 -3 6 1 17 9 26 21 21 20 41 -3 53 -14
8 -22 7 -31 -4z m33 -11 c9 -10 -4 -34 -19 -34 -8 0 -14 6 -14 13 0 22 19 35
33 21z"/>
<path d="M5456 1964 c-23 -22 -20 -60 6 -78 19 -13 25 -14 43 -2 26 18 31 53
9 77 -21 23 -37 24 -58 3z m64 -33 c0 -42 -62 -55 -68 -15 -4 31 24 57 49 44
10 -6 19 -19 19 -29z"/>
<path d="M822 1948 c-15 -15 -16 -45 -2 -53 6 -4 9 3 7 16 -1 12 4 24 11 26 7
3 10 -1 6 -11 -3 -9 -2 -16 4 -16 6 0 12 6 15 13 2 6 8 9 12 5 4 -4 2 -14 -5
-23 -14 -17 -8 -31 9 -20 22 13 12 55 -15 65 -31 12 -28 12 -42 -2z"/>
<path d="M960 1940 c0 -5 -8 -10 -19 -10 -28 0 -47 -28 -34 -48 16 -26 42 -26
52 0 19 52 22 68 12 68 -6 0 -11 -4 -11 -10z m-18 -52 c-15 -15 -26 -4 -18 18
5 13 9 15 18 6 9 -9 9 -15 0 -24z"/>
<path d="M995 1906 c-25 -21 -28 -28 -19 -43 14 -23 63 -24 77 -1 9 13 7 21
-6 36 -9 10 -14 22 -10 25 17 18 -16 4 -42 -17z m6 -39 c-8 -8 -11 -7 -11 4 0
20 13 34 18 19 3 -7 -1 -17 -7 -23z m30 -10 c-8 -8 -11 -7 -11 4 0 20 13 34
18 19 3 -7 -1 -17 -7 -23z"/>
<path d="M5580 1910 l25 -19 -28 -10 c-16 -6 -32 -11 -37 -11 -22 0 -17 -21
10 -40 16 -12 30 -17 30 -11 0 5 -9 13 -20 16 -31 10 -24 23 20 36 47 14 49
21 15 43 -34 22 -45 20 -15 -4z"/>
<path d="M1071 1864 c0 -21 4 -47 8 -57 6 -18 7 -18 22 0 41 48 59 99 22 62
-8 -8 -17 -4 -32 12 l-21 23 1 -40z m39 -18 c0 -3 -4 -8 -10 -11 -5 -3 -10 -1
-10 4 0 6 5 11 10 11 6 0 10 -2 10 -4z"/>
<path d="M825 1870 c-3 -5 -1 -10 4 -10 6 0 11 5 11 10 0 6 -2 10 -4 10 -3 0
-8 -4 -11 -10z"/>
<path d="M5600 1800 c0 -5 5 -10 11 -10 5 0 7 5 4 10 -3 6 -8 10 -11 10 -2 0
-4 -4 -4 -10z"/>
<path d="M1698 1403 c6 -2 18 -2 25 0 6 3 1 5 -13 5 -14 0 -19 -2 -12 -5z"/>
<path d="M0 1259 c0 -31 3 -36 18 -32 10 2 25 -3 33 -13 13 -15 12 -16 -11 -9
-24 7 -25 7 -7 -12 15 -18 16 -22 3 -32 -8 -7 -20 -10 -26 -6 -6 4 -10 -6 -10
-24 0 -28 4 -31 60 -47 76 -21 72 -30 -4 -11 l-56 15 0 -144 c0 -98 4 -151 12
-164 10 -16 10 -24 0 -40 -19 -31 -17 -710 2 -710 7 0 19 -7 26 -15 9 -11 16
-12 26 -4 9 7 18 7 33 0 13 -7 163 -11 448 -11 l429 0 12 52 c21 99 192 950
192 959 0 5 -9 9 -21 9 -38 0 -510 109 -836 193 l-323 83 0 -37z m103 -57 c3
-4 3 -19 0 -35 -5 -28 -35 -38 -49 -16 -4 8 1 9 17 5 23 -7 23 -7 5 8 -19 16
-19 16 5 16 23 1 23 1 5 15 -17 13 -17 15 -4 15 9 0 19 -3 21 -8z m61 -21 c4
-5 2 -20 -4 -33 l-10 -23 3 24 c3 34 -19 37 -31 4 -6 -16 -11 -21 -11 -11 -2
28 10 48 29 48 11 0 21 -4 24 -9z m56 5 c0 -2 3 -13 7 -23 6 -15 4 -16 -9 -5
-22 18 -47 -11 -28 -33 7 -9 8 -15 2 -15 -13 0 -24 29 -15 43 17 28 43 48 43
33z m1 -69 c-10 -9 -11 -8 -5 6 3 10 9 15 12 12 3 -3 0 -11 -7 -18z m150 6
c13 -16 12 -17 -3 -5 -14 11 -19 10 -32 -10 -9 -12 -16 -17 -16 -11 0 10 26
43 34 43 2 0 10 -8 17 -17z m93 -22 c4 -5 -4 -7 -16 -3 -14 3 -19 1 -14 -6 3
-6 2 -13 -4 -17 -6 -4 -7 -11 -4 -17 4 -7 2 -8 -5 -4 -6 4 -10 10 -8 14 2 4 7
15 10 25 7 18 32 23 41 8z m-177 -7 c-3 -3 -12 -4 -19 -1 -8 3 -5 6 6 6 11 1
17 -2 13 -5z m84 -17 c-10 -9 -11 -8 -5 6 3 10 9 15 12 12 3 -3 0 -11 -7 -18z
m81 -29 c-8 -8 -9 -4 -5 13 4 13 8 18 11 10 2 -7 -1 -18 -6 -23z m73 -8 c-3
-5 -14 -10 -23 -9 -14 0 -13 2 3 9 27 11 27 11 20 0z m-298 -6 c-3 -3 -12 -4
-19 -1 -8 3 -5 6 6 6 11 1 17 -2 13 -5z m263 -219 c14 -17 7 -43 -15 -52 -24
-8 -39 12 -31 41 7 29 27 34 46 11z m47 -40 c-1 -19 -6 -36 -13 -39 -16 -6
-28 25 -13 34 6 5 8 17 4 29 -5 16 -3 20 8 15 10 -3 15 -18 14 -39z m39 0 c-4
-15 -2 -25 5 -25 6 0 13 9 16 20 5 19 23 29 23 13 -1 -46 -34 -69 -58 -40 -13
15 -5 57 10 57 6 0 7 -11 4 -25z m-518 -19 c5 -24 -6 -66 -17 -66 -14 0 -23
33 -10 40 7 5 8 17 4 30 -5 16 -4 21 6 18 8 -3 16 -13 17 -22z m627 14 c4 -6
2 -16 -3 -23 -6 -7 -11 -16 -11 -22 -1 -9 -6 -10 -31 -6 -11 1 -14 44 -3 54
10 11 41 8 48 -3z m49 -6 c9 -3 16 -11 16 -16 0 -6 -8 -7 -17 -3 -15 5 -16 4
-5 -6 6 -7 12 -19 12 -26 0 -16 -36 -17 -46 -1 -5 8 -2 9 9 5 10 -3 17 -2 17
2 0 5 -5 11 -12 13 -6 2 -9 12 -5 21 7 19 9 20 31 11z m-634 -31 l0 -28 20 25
c18 23 20 23 20 5 0 -55 -53 -62 -58 -7 -2 18 1 32 7 32 6 0 11 -12 11 -27z
m190 -4 c0 -5 -6 -8 -12 -6 -9 1 -12 -10 -10 -37 3 -26 0 -36 -7 -32 -6 4 -11
14 -11 23 0 14 -3 13 -21 -3 -25 -22 -23 -14 9 38 15 23 29 35 38 31 8 -3 14
-9 14 -14z m518 1 c5 -13 3 -13 -14 0 -18 14 -18 14 -1 -6 15 -18 15 -23 4
-32 -10 -9 -18 -8 -33 4 -18 14 -18 15 6 8 24 -6 24 -5 6 8 -11 9 -16 20 -12
27 10 16 38 10 44 -9z m-602 -4 c6 -15 -12 -56 -24 -56 -39 1 -40 70 -1 70 11
0 22 -6 25 -14z m672 -1 c2 -1 0 -14 -4 -29 -8 -33 -23 -34 -16 -1 5 31 -13
33 -21 3 -4 -12 -9 -19 -13 -16 -3 4 -3 19 0 33 5 21 11 25 29 19 12 -3 23 -8
25 -9z m66 -20 c8 -23 -4 -45 -25 -45 -22 0 -34 22 -25 45 3 8 14 15 25 15 10
0 21 -7 25 -15z m-604 -10 c6 -8 10 -22 8 -32 -5 -25 -51 -25 -56 0 -4 18 14
47 28 47 4 0 13 -7 20 -15z m636 -12 l-6 -28 16 23 c22 30 34 28 35 -5 l0 -28
10 24 c14 36 20 20 7 -22 -14 -46 -28 -48 -28 -4 l-1 32 -24 -30 c-30 -37 -39
-29 -25 24 12 46 26 57 16 14z m-581 -30 c0 -38 -21 -61 -28 -32 -3 10 -1 22
4 25 6 3 7 15 3 26 -4 15 -2 19 7 16 8 -3 14 -18 14 -35z m50 -12 c0 -38 -19
-61 -29 -35 -3 9 -2 22 4 29 6 7 7 20 4 30 -5 13 -3 16 7 13 8 -3 14 -18 14
-37z m73 -7 c4 -30 -20 -47 -43 -31 -12 10 -15 20 -10 36 9 29 49 25 53 -5z
m54 -16 c11 -30 12 -30 19 -10 15 40 27 23 14 -20 -14 -50 -26 -51 -41 -6
l-11 33 -7 -28 c-3 -15 -11 -27 -17 -27 -7 0 -8 7 -4 18 3 9 9 29 12 45 7 36
21 34 35 -5z m126 -7 c22 -13 11 -56 -16 -59 -27 -4 -38 18 -22 47 12 23 18
25 38 12z m46 -36 c-7 -30 12 -34 21 -5 9 29 27 25 19 -5 -7 -30 12 -34 21 -5
10 31 24 24 16 -7 -5 -16 -14 -27 -22 -25 -7 2 -27 5 -42 7 -16 2 -31 6 -34 8
-7 8 9 57 18 57 5 0 7 -11 3 -25z m141 -35 c0 -16 -6 -26 -19 -28 -25 -5 -39
12 -31 38 10 31 50 24 50 -10z m48 -12 c-4 -20 -11 -28 -27 -28 -18 1 -19 2
-5 13 8 7 18 21 22 31 10 27 16 16 10 -16z m61 16 c19 -7 21 -55 4 -72 -7 -7
-20 -12 -29 -12 -20 0 -35 18 -24 28 3 3 10 0 15 -8 7 -11 11 -11 24 -1 18 15
21 47 6 56 -6 4 -17 1 -25 -5 -15 -12 -22 0 -8 13 8 9 17 9 37 1z m-924 -164
c20 -6 21 -8 5 -8 -11 0 -31 4 -45 8 -20 6 -21 8 -5 8 11 0 31 -4 45 -8z m80
-20 c20 -6 21 -8 5 -8 -11 0 -29 3 -40 8 -25 11 1 11 35 0z m135 -36 c38 -13
38 -13 5 -7 -19 3 -53 12 -75 19 -38 13 -38 13 -5 7 19 -3 53 -12 75 -19z
m112 -30 c-3 -3 -12 -4 -19 -1 -8 3 -5 6 6 6 11 1 17 -2 13 -5z m40 -10 c-3
-3 -12 -4 -19 -1 -8 3 -5 6 6 6 11 1 17 -2 13 -5z m40 -10 c-3 -3 -12 -4 -19
-1 -8 3 -5 6 6 6 11 1 17 -2 13 -5z m40 -10 c-3 -3 -12 -4 -19 -1 -8 3 -5 6 6
6 11 1 17 -2 13 -5z m40 -10 c-3 -3 -12 -4 -19 -1 -8 3 -5 6 6 6 11 1 17 -2
13 -5z m40 -10 c-3 -3 -12 -4 -19 -1 -8 3 -5 6 6 6 11 1 17 -2 13 -5z m40 -10
c-3 -3 -12 -4 -19 -1 -8 3 -5 6 6 6 11 1 17 -2 13 -5z"/>
<path d="M905 700 c-7 -12 2 -30 16 -30 5 0 9 9 9 20 0 21 -15 27 -25 10z"/>
<path d="M310 669 c0 -18 2 -19 15 -9 15 12 12 30 -6 30 -5 0 -9 -10 -9 -21z"/>
<path d="M670 570 c0 -5 5 -10 11 -10 5 0 7 5 4 10 -3 6 -8 10 -11 10 -2 0 -4
-4 -4 -10z"/>
<path d="M850 530 c0 -5 5 -10 11 -10 5 0 7 5 4 10 -3 6 -8 10 -11 10 -2 0 -4
-4 -4 -10z"/>
<path d="M0 1192 c0 -12 19 -26 26 -19 2 2 -2 10 -11 17 -9 8 -15 8 -15 2z"/>
<path d="M1953 963 c9 -2 23 -2 30 0 6 3 -1 5 -18 5 -16 0 -22 -2 -12 -5z"/>
<path d="M2027 562 c-16 -3 -18 -10 -12 -40 8 -46 8 -45 37 -36 22 7 22 7 3
15 -11 4 -14 8 -7 8 6 1 12 6 12 12 0 6 -7 9 -15 5 -9 -3 -15 0 -15 9 0 7 8
15 18 17 9 2 13 6 7 9 -5 3 -18 4 -28 1z"/>
<path d="M2090 551 c0 -10 8 -22 18 -26 16 -7 15 -8 -3 -15 -19 -7 -19 -8 -2
-15 28 -11 44 10 25 32 -8 10 -13 24 -11 31 3 6 -2 12 -11 12 -9 0 -16 -8 -16
-19z"/>
<path d="M1932 551 c-13 -8 -5 -81 9 -81 5 0 9 5 9 11 0 8 4 9 13 0 19 -15 24
-7 19 29 -5 32 -30 53 -50 41z m28 -27 c0 -8 -5 -12 -10 -9 -6 4 -8 11 -5 16
9 14 15 11 15 -7z"/>
<path d="M2169 546 c6 -7 9 -15 6 -18 -3 -2 8 -5 23 -5 15 0 35 -4 45 -8 9 -4
17 -3 17 1 -1 23 -22 37 -60 40 -32 2 -39 0 -31 -10z"/>
<path d="M1840 501 c0 -23 5 -41 10 -41 6 0 10 5 10 11 0 8 5 7 15 -1 21 -18
25 -11 16 30 -5 26 -13 36 -29 38 -20 3 -22 -1 -22 -37z m30 9 c0 -5 -4 -10
-10 -10 -5 0 -10 5 -10 10 0 6 5 10 10 10 6 0 10 -4 10 -10z"/>
<path d="M1681 493 c-6 -10 -11 -12 -11 -5 0 6 -4 12 -10 12 -5 0 -7 -14 -3
-32 7 -39 23 -61 23 -33 0 15 3 16 12 7 19 -19 33 -14 15 6 -10 11 -14 26 -10
40 6 26 -2 29 -16 5z"/>
<path d="M1580 460 c0 -5 5 -10 10 -10 6 0 10 5 10 10 0 6 -4 10 -10 10 -5 0
-10 -4 -10 -10z"/>
<path d="M1535 450 c-3 -5 -1 -10 4 -10 6 0 11 5 11 10 0 6 -2 10 -4 10 -3 0
-8 -4 -11 -10z"/>
<path d="M1562 438 c1 -16 6 -28 10 -28 11 0 10 22 -2 40 -8 11 -9 9 -8 -12z"/>
<path d="M1541 414 c0 -11 3 -14 6 -6 3 7 2 16 -1 19 -3 4 -6 -2 -5 -13z"/>
<path d="M2116 371 c-21 -23 -20 -34 4 -56 26 -24 50 -13 50 24 0 40 -30 58
-54 32z m42 -29 c2 -14 -2 -22 -12 -22 -19 0 -29 17 -22 36 8 22 30 12 34 -14z"/>
<path d="M2190 375 c-18 -21 2 -65 30 -65 11 0 20 5 20 10 0 6 -8 10 -17 8
-12 -2 -19 4 -21 20 -2 15 2 22 13 22 9 0 13 5 10 10 -9 14 -21 12 -35 -5z"/>
<path d="M2245 360 c3 -19 9 -38 14 -43 15 -15 32 3 25 26 -6 19 -5 20 8 9 13
-10 15 -9 11 12 -4 17 -10 23 -20 19 -9 -4 -13 -15 -10 -29 6 -35 -8 -29 -21
9 l-12 32 5 -35z"/>
<path d="M1993 354 c-4 -12 -7 -13 -14 -3 -13 22 -19 6 -12 -34 3 -20 10 -34
14 -31 5 3 7 10 4 15 -4 5 -2 9 4 9 5 0 13 -4 16 -10 3 -5 11 -10 17 -10 6 0
4 8 -5 18 -10 11 -14 26 -10 40 6 25 -4 30 -14 6z"/>
<path d="M2037 333 c7 -45 11 -52 22 -34 5 7 13 11 18 8 5 -3 9 9 8 26 0 27
-4 32 -27 35 -26 3 -27 2 -21 -35z m35 12 c0 -5 -5 -11 -11 -13 -6 -2 -11 4
-11 13 0 9 5 15 11 13 6 -2 11 -8 11 -13z"/>
<path d="M1897 329 c5 -19 4 -20 -16 -10 -11 7 -21 8 -21 4 1 -9 50 -47 54
-41 7 6 -6 68 -14 68 -5 0 -6 -10 -3 -21z"/>
<path d="M1706 311 c-3 -5 -3 -23 0 -40 6 -30 27 -41 39 -21 3 6 -1 10 -9 10
-10 0 -16 9 -16 25 0 19 4 23 17 18 11 -4 14 -3 9 5 -9 14 -32 16 -40 3z"/>
<path d="M1648 265 c3 -26 9 -35 23 -35 10 0 19 5 19 11 0 5 -5 7 -10 4 -6 -4
-13 7 -16 24 -9 42 -21 39 -16 -4z"/>
<path d="M1587 283 c-13 -12 -7 -50 9 -63 22 -19 49 9 40 44 -6 25 -33 35 -49
19z m37 -20 c9 -22 -10 -41 -25 -26 -13 13 -5 43 10 43 5 0 12 -8 15 -17z"/>
<path d="M2174 275 c-8 -19 2 -45 16 -45 7 0 8 6 2 18 -5 9 -7 23 -5 30 7 17
-6 15 -13 -3z"/>
<path d="M2290 280 c0 -5 5 -10 10 -10 6 0 10 5 10 10 0 6 -4 10 -10 10 -5 0
-10 -4 -10 -10z"/>
<path d="M1534 256 c-8 -34 13 -71 31 -56 14 12 10 40 -6 40 -4 0 -5 -7 -2
-17 4 -11 3 -14 -5 -9 -15 9 -16 46 -2 46 6 0 10 5 10 10 0 20 -20 9 -26 -14z"/>
<path d="M2062 271 c-19 -11 -11 -45 11 -49 9 -2 20 4 23 13 9 21 -16 47 -34
36z m26 -22 c-2 -6 -8 -10 -13 -10 -5 0 -11 4 -13 10 -2 6 4 11 13 11 9 0 15
-5 13 -11z"/>
<path d="M2140 269 c0 -6 -7 -9 -15 -5 -22 8 -18 -7 5 -22 18 -11 20 -10 20
13 0 14 -2 25 -5 25 -3 0 -5 -5 -5 -11z"/>
<path d="M2210 263 c0 -12 5 -25 11 -28 16 -11 17 -2 2 25 -12 24 -13 24 -13
3z"/>
<path d="M2243 265 c2 -14 11 -20 35 -22 17 -2 32 2 32 8 0 5 -8 9 -17 7 -10
-2 -17 3 -15 10 1 6 -2 12 -8 12 -5 0 -10 -8 -11 -17 0 -16 -2 -15 -10 2 -9
20 -9 20 -6 0z"/>
<path d="M1967 263 c-10 -10 -8 -53 2 -53 17 0 24 22 10 31 -10 6 -11 9 -1 9
6 0 12 5 12 10 0 11 -13 13 -23 3z"/>
<path d="M2006 261 c-9 -14 4 -41 21 -41 9 0 13 8 11 22 -3 23 -23 35 -32 19z"/>
<path d="M1927 253 c-10 -10 -8 -43 2 -43 6 0 13 5 16 10 3 6 1 10 -6 10 -8 0
-8 4 1 15 12 14 0 22 -13 8z"/>
<path d="M3425 230 c-23 -26 -8 -26 25 0 18 14 21 20 9 20 -9 0 -24 -9 -34
-20z"/>
<path d="M1887 221 c3 -12 9 -21 14 -21 14 0 11 16 -5 29 -12 10 -13 8 -9 -8z"/>
<path d="M1694 206 c-8 -20 -1 -47 11 -46 6 1 8 7 6 14 -2 6 -3 19 -3 29 1 21
-7 22 -14 3z"/>
<path d="M1730 211 c0 -6 5 -13 11 -17 8 -4 7 -9 -2 -15 -11 -7 -10 -9 4 -9
19 0 23 15 7 25 -6 4 -8 11 -5 16 4 5 1 9 -4 9 -6 0 -11 -4 -11 -9z"/>
<path d="M3471 211 c-7 -5 -10 -14 -7 -20 4 -6 2 -11 -3 -11 -14 0 -14 -37 -1
-45 6 -4 27 10 48 31 34 34 36 38 17 45 -27 10 -37 10 -54 0z"/>
<path d="M1625 190 c-3 -5 -1 -10 4 -10 6 0 11 5 11 10 0 6 -2 10 -4 10 -3 0
-8 -4 -11 -10z"/>
<path d="M1653 186 c4 -10 7 -22 7 -27 0 -5 4 -9 9 -9 12 0 2 38 -12 47 -7 4
-8 0 -4 -11z"/>
<path d="M1590 179 c0 -5 5 -7 10 -4 6 3 10 8 10 11 0 2 -4 4 -10 4 -5 0 -10
-5 -10 -11z"/>
<path d="M1563 151 c1 -22 44 -23 57 -1 6 10 9 9 12 -1 3 -8 8 -12 11 -9 3 3
2 12 -3 20 -7 12 -11 12 -25 0 -13 -11 -21 -11 -35 -2 -16 10 -18 8 -17 -7z"/>
<path d="M2182 148 c-25 -25 -6 -68 29 -68 23 0 33 33 19 60 -12 23 -30 26
-48 8z m41 -21 c7 -19 -8 -41 -22 -33 -16 10 -14 46 3 46 8 0 16 -6 19 -13z"/>
<path d="M2248 155 c-9 -9 4 -65 14 -59 6 4 14 0 19 -7 5 -9 7 -3 5 18 -6 46
-21 65 -38 48z m27 -25 c3 -5 1 -10 -4 -10 -6 0 -11 5 -11 10 0 6 2 10 4 10 3
0 8 -4 11 -10z"/>
<path d="M2077 143 c-3 -5 -2 -23 0 -40 4 -22 11 -33 22 -33 20 0 41 19 41 36
0 28 -51 57 -63 37z m41 -35 c-2 -13 -7 -23 -13 -23 -5 0 -11 10 -13 23 -2 15
2 22 13 22 11 0 15 -7 13 -22z"/>
<path d="M2145 140 c3 -5 8 -10 11 -10 2 0 4 5 4 10 0 6 -5 10 -11 10 -5 0 -7
-4 -4 -10z"/>
<path d="M3556 135 c-10 -8 -15 -19 -11 -26 5 -7 -1 -19 -15 -29 -12 -9 -19
-20 -14 -23 5 -3 25 13 43 36 19 23 28 36 21 30 -23 -21 -35 -15 -15 7 21 23
18 25 -9 5z"/>
<path d="M2010 123 c0 -27 -7 -29 -32 -6 -17 15 -18 15 -17 -8 0 -13 4 -33 9
-44 8 -19 9 -18 9 4 1 23 2 23 26 7 25 -16 25 -16 25 11 0 16 -5 35 -10 43 -8
12 -10 11 -10 -7z"/>
<path d="M6005 95 c11 -77 17 -95 32 -95 18 0 12 33 -18 95 l-19 40 5 -40z"/>
<path d="M1915 89 c5 -14 2 -25 -6 -30 -10 -6 -6 -9 14 -9 27 0 27 0 12 30
-18 35 -29 40 -20 9z"/>
<path d="M1763 93 c-13 -5 -18 -55 -7 -66 3 -3 12 -1 19 6 10 9 9 14 -4 24
-14 11 -14 14 -1 22 16 11 11 21 -7 14z"/>
<path d="M1636 55 c-3 -8 3 -20 14 -28 11 -8 17 -17 13 -20 -3 -4 -1 -7 5 -7
16 0 15 15 -2 30 -8 6 -12 18 -9 26 3 8 1 14 -5 14 -5 0 -12 -7 -16 -15z"/>
<path d="M1700 63 c0 -6 5 -15 10 -18 16 -10 12 -25 -5 -19 -9 4 -15 0 -15 -9
0 -10 8 -13 25 -9 14 2 25 7 25 11 -1 12 -40 56 -40 44z"/>
<path d="M2237 40 c8 -30 21 -33 19 -5 0 14 -6 25 -13 25 -6 0 -9 -9 -6 -20z"/>
<path d="M2190 41 c0 -6 9 -15 20 -21 13 -7 20 -7 20 -1 0 6 -9 15 -20 21 -13
7 -20 7 -20 1z"/>
<path d="M2270 35 c0 -8 4 -15 10 -15 5 0 7 7 4 15 -4 8 -8 15 -10 15 -2 0 -4
-7 -4 -15z"/>
<path d="M2303 31 c-1 -13 5 -18 23 -18 13 -1 27 3 30 8 3 5 -2 6 -10 3 -9 -4
-18 1 -22 10 -8 22 -19 20 -21 -3z"/>
<path d="M2077 25 c3 -9 8 -13 11 -11 3 3 11 1 19 -5 7 -6 13 -8 13 -4 0 9
-31 34 -42 35 -4 0 -5 -7 -1 -15z"/>
<path d="M2153 22 c-1 -10 5 -19 13 -19 16 0 16 0 8 21 -8 22 -19 20 -21 -2z"/>
<path d="M3480 25 c-20 -24 -6 -28 15 -5 10 11 13 20 8 20 -6 0 -16 -7 -23
-15z"/>
<path d="M1935 20 c-3 -5 1 -10 9 -10 9 0 16 5 16 10 0 6 -4 10 -9 10 -6 0
-13 -4 -16 -10z"/>
<path d="M1981 13 c0 -13 2 -14 6 -4 4 11 7 11 14 0 4 -7 11 -10 14 -7 10 10
-4 28 -21 28 -8 0 -14 -8 -13 -17z"/>
<path d="M2030 16 c0 -9 7 -16 16 -16 17 0 14 22 -4 28 -7 2 -12 -3 -12 -12z"/>
</g>
</svg>
