<?xml version="1.0" standalone="no"?>
<!DOCTYPE svg PUBLIC "-//W3C//DTD SVG 20010904//EN"
 "http://www.w3.org/TR/2001/REC-SVG-20010904/DTD/svg10.dtd">
<svg version="1.0" xmlns="http://www.w3.org/2000/svg"
 width="1024.000000pt" height="574.000000pt" viewBox="0 0 1024.000000 574.000000"
 preserveAspectRatio="xMidYMid meet">

<g transform="translate(0.000000,574.000000) scale(0.100000,-0.100000)"
fill="#000000" stroke="none">
<path d="M1072 5733 c-26 -10 -42 -62 -42 -136 0 -69 12 -263 41 -647 7 -85
11 -173 10 -194 -2 -42 16 -99 29 -91 4 3 10 -9 12 -25 5 -36 -10 -48 -92 -75
-30 -10 -89 -35 -130 -55 -82 -41 -245 -96 -470 -159 -173 -49 -260 -67 -359
-77 l-74 -7 6 -311 c3 -171 15 -450 26 -621 11 -170 23 -391 26 -490 4 -99 14
-218 22 -265 9 -47 19 -137 22 -200 9 -138 39 -238 108 -349 56 -90 218 -261
328 -346 92 -71 263 -180 271 -173 2 3 0 18 -6 33 -6 15 -37 136 -70 269 -32
132 -80 313 -105 401 -57 198 -63 221 -118 425 -181 670 -336 1191 -381 1278
-10 19 -15 36 -13 39 15 14 137 -328 236 -662 16 -55 52 -176 79 -270 48 -160
73 -252 127 -455 12 -47 41 -148 64 -225 39 -127 74 -253 131 -465 18 -67 87
-349 95 -389 2 -9 8 -28 14 -43 5 -15 24 -103 42 -195 30 -164 50 -233 66
-233 4 0 22 9 39 19 30 18 31 21 20 55 -6 20 -14 36 -18 36 -22 0 -4 20 28 32
32 11 35 15 30 42 -3 15 -6 33 -6 38 0 5 -5 6 -10 3 -7 -4 -10 15 -10 57 1 45
-5 80 -23 123 l-24 60 -61 -3 c-34 -1 -62 0 -62 2 0 3 30 21 67 39 54 28 62
35 45 39 -12 3 -21 3 -20 -1 6 -46 -27 -2 -46 61 -9 32 -21 60 -26 63 -17 10
-11 37 13 58 14 13 18 21 10 24 -7 2 -10 10 -7 18 3 7 0 16 -5 20 -6 3 -9 10
-6 15 3 5 1 11 -5 15 -5 3 -10 20 -10 37 0 17 -3 28 -7 24 -7 -7 -27 57 -40
124 -3 19 -9 37 -13 40 -3 3 -11 28 -18 55 -6 28 -14 59 -17 70 -5 16 0 23 22
33 l28 12 -27 -4 c-32 -4 -45 19 -20 34 13 8 11 9 -10 4 -26 -6 -28 -4 -28 24
0 17 -4 33 -9 36 -5 3 -11 20 -14 38 -15 99 -91 297 -113 298 -6 0 -14 17 -18
38 -7 45 -19 86 -93 322 -67 212 -82 256 -98 295 -19 42 -81 231 -94 285 -7
25 -20 65 -30 90 -22 54 -44 119 -46 140 -1 8 -7 26 -12 40 -13 30 5 45 43 37
13 -2 24 -1 24 3 0 4 10 8 23 8 68 0 190 41 243 83 8 6 15 -17 23 -79 22 -163
37 -236 48 -239 11 -4 252 59 306 79 18 7 26 16 23 27 -13 41 -37 212 -34 237
3 25 7 29 30 26 14 -2 46 6 69 17 24 12 49 21 56 21 8 0 16 7 19 15 4 8 12 15
18 15 7 0 21 10 32 23 11 12 51 49 88 82 65 57 103 81 114 71 2 -3 12 4 22 16
16 21 17 17 30 -108 12 -129 51 -399 70 -484 5 -25 21 -119 35 -210 14 -91 34
-214 45 -275 63 -353 90 -511 90 -523 0 -7 4 -11 8 -8 5 3 6 -9 4 -26 -3 -21
0 -33 12 -40 9 -5 16 -21 15 -36 l-1 -27 -8 25 c-15 46 -10 0 20 -193 16 -106
39 -257 50 -337 11 -80 24 -167 30 -195 5 -27 12 -77 15 -110 3 -33 12 -85 20
-115 8 -33 12 -40 9 -19 l-4 36 82 6 c138 9 371 69 450 115 l28 16 -29 31
c-15 16 -31 38 -35 49 -3 10 -18 170 -31 355 -14 185 -30 396 -35 469 -6 73
-13 165 -15 205 -3 40 -7 83 -10 97 -3 14 -10 97 -16 185 -14 193 -16 220 -25
310 -4 39 -7 81 -7 95 0 14 -6 85 -13 159 -7 74 -11 137 -9 141 2 4 0 48 -5
98 -6 50 -12 153 -16 229 -4 88 -10 141 -17 145 -9 6 -9 8 0 8 9 0 10 7 3 24
-5 13 -6 26 -3 30 11 11 13 206 2 327 -12 132 -6 169 26 169 8 0 14 5 12 11
-2 12 115 87 150 96 13 3 31 2 40 -2 15 -6 13 -9 -10 -16 -16 -4 -34 -6 -40
-5 -7 1 -9 1 -6 -1 3 -2 4 -14 2 -27 -6 -31 19 -40 49 -17 13 10 32 20 43 22
13 3 21 14 23 32 3 26 1 27 -25 22 -15 -3 -22 -2 -15 1 6 3 10 10 7 15 -4 5 3
5 16 1 14 -6 32 -4 48 4 49 23 68 25 75 9 3 -10 2 -13 -4 -10 -14 9 -71 -5
-65 -15 3 -5 -3 -13 -12 -19 -20 -11 -17 -16 14 -25 17 -5 29 0 49 19 14 14
32 24 40 21 9 -3 14 1 14 13 0 10 -8 21 -18 23 -15 4 -17 12 -13 44 l6 39 3
-33 3 -34 52 7 c29 4 57 7 64 8 7 0 9 5 5 11 -3 6 -5 20 -3 30 3 23 -19 67
-31 60 -4 -3 -8 0 -8 7 0 7 -3 10 -6 6 -4 -3 -24 3 -45 14 -22 11 -39 17 -39
13 0 -3 -7 2 -16 10 -8 9 -20 14 -25 11 -5 -4 -9 -1 -9 5 0 6 -4 9 -9 6 -14
-9 -21 20 -8 33 8 8 7 11 -3 12 -8 0 3 9 25 20 l40 19 -53 -4 c-60 -4 -71 -11
-78 -51 -6 -35 -12 -45 -25 -45 -6 0 -7 9 -3 22 6 20 5 21 -9 9 -9 -7 -15 -17
-12 -21 8 -13 -21 -6 -39 9 -9 7 -16 22 -16 33 0 10 -4 16 -10 13 -6 -4 -10 7
-10 27 0 18 -6 45 -14 59 -7 14 -16 37 -19 50 -6 24 -88 108 -149 154 -15 11
-28 31 -30 45 -3 22 1 25 37 30 44 6 65 16 65 31 0 9 -1043 12 -1068 2z m1502
-566 c20 -8 20 -21 0 -41 -25 -25 -45 2 -37 50 5 31 8 34 14 17 4 -11 14 -23
23 -26z m-74 -22 c0 -25 -3 -45 -8 -45 -4 0 -6 20 -4 45 2 25 6 45 8 45 2 0 4
-20 4 -45z m-53 -27 c-3 -7 -5 -2 -5 12 0 14 2 19 5 13 2 -7 2 -19 0 -25z
m-673 -365 c-7 -38 -34 -89 -34 -65 0 28 23 102 32 102 5 0 6 -16 2 -37z
m-677 -45 c-3 -7 -5 -2 -5 12 0 14 2 19 5 13 2 -7 2 -19 0 -25z m203 -249 c0
-5 5 -7 12 -3 7 5 9 2 6 -7 -13 -36 -19 -63 -10 -51 7 11 11 7 16 -13 4 -16 3
-32 -3 -38 -7 -7 -8 -2 -5 14 4 21 3 21 -7 -3 -11 -28 -29 -37 -167 -78 -41
-12 -71 -24 -68 -27 2 -3 50 9 104 26 104 32 133 38 117 22 -19 -18 -151 -59
-210 -65 -33 -4 -69 -10 -80 -13 -21 -6 -82 -53 -77 -59 7 -12 0 -25 -11 -21
-8 3 -40 -1 -73 -8 -32 -7 -75 -15 -94 -19 l-35 -5 39 19 c22 11 47 20 55 20
9 1 1 7 -18 15 -31 14 -86 11 -77 -4 2 -3 -15 -7 -38 -8 -22 -1 -99 -21 -171
-43 -124 -39 -206 -64 -324 -96 -29 -8 -51 -17 -49 -19 8 -8 330 80 477 130
39 13 69 20 66 15 -3 -5 -18 -11 -34 -15 -16 -3 -39 -15 -51 -25 -13 -11 -26
-17 -30 -15 -4 3 -21 -2 -36 -10 -16 -8 -38 -15 -48 -15 -11 0 -74 -18 -140
-39 -119 -39 -227 -54 -245 -35 -10 11 -46 143 -40 148 2 2 66 18 141 35 270
61 745 194 968 271 89 30 140 37 140 19z m31 -26 c-12 -20 -14 -14 -5 12 4 9
9 14 11 11 3 -2 0 -13 -6 -23z m39 -13 c0 -13 -1 -13 -10 0 -5 8 -10 22 -10
30 0 13 1 13 10 0 5 -8 10 -22 10 -30z m721 -1266 c-6 -22 -13 -56 -16 -77
-10 -61 -27 -33 -19 31 9 75 22 108 35 95 7 -7 7 -22 0 -49z m-123 -156 c-6
-18 -28 -21 -28 -4 0 9 7 16 16 16 9 0 14 -5 12 -12z m3 -28 c15 0 19 -7 20
-32 0 -28 2 -30 9 -13 8 19 9 19 9 -2 1 -13 7 -23 16 -23 12 0 13 -5 4 -27 -6
-17 -6 -30 0 -36 5 -5 6 -18 1 -31 -5 -11 -11 -29 -14 -38 -4 -15 -8 -15 -43
3 -55 28 -71 25 -79 -16 -3 -20 -1 -47 5 -63 18 -44 41 -163 41 -215 l0 -48
58 7 c31 3 64 10 73 15 9 4 29 7 45 5 24 -3 30 -9 37 -42 5 -21 18 -70 29
-107 11 -38 18 -71 15 -73 -7 -8 -240 -71 -305 -83 -34 -7 -66 -10 -70 -7 -5
3 -14 38 -21 78 -8 40 -17 88 -22 107 -10 41 3 68 33 73 21 3 23 9 26 70 l3
66 -36 -8 c-43 -10 -49 -2 -28 36 8 16 16 54 16 84 1 30 6 59 11 63 8 6 7 10
-1 14 -15 5 -18 43 -4 43 5 0 12 -8 14 -17 4 -14 5 -12 6 5 1 13 -5 22 -14 22
-9 0 -12 6 -9 18 12 38 28 62 40 62 7 0 19 12 26 26 7 15 23 34 36 42 21 14
22 13 22 -13 0 -16 3 -25 7 -22 3 4 12 2 20 -4 10 -9 13 -7 13 9 0 15 -5 20
-15 16 -9 -4 -15 0 -15 10 0 9 6 16 13 17 6 0 2 4 -11 10 -13 5 -20 14 -17 20
4 6 14 8 22 5 8 -3 23 -6 34 -6z m56 -252 c-3 -8 -6 -5 -6 6 -1 11 2 17 5 13
3 -3 4 -12 1 -19z m13 -40 c0 -19 -2 -20 -10 -8 -13 19 -13 30 0 30 6 0 10
-10 10 -22z m180 -564 c0 -17 10 -36 28 -50 18 -17 22 -24 11 -24 -26 0 -47
23 -57 63 -8 30 -8 37 4 37 8 0 14 -10 14 -26z m-270 -30 c0 -2 -7 -4 -15 -4
-8 0 -15 4 -15 10 0 5 7 7 15 4 8 -4 15 -8 15 -10z m2 -122 c-21 -6 -23 2 -9
31 l12 27 5 -28 c4 -18 1 -28 -8 -30z m10 -65 c-18 -18 -32 -38 -32 -45 0 -7
-4 -12 -8 -12 -5 0 -4 -28 3 -63 14 -74 8 -83 -51 -89 -36 -3 -39 -1 -45 27
-15 68 -10 101 22 141 39 50 76 74 113 74 l30 0 -32 -33z m226 -112 c-3 -3 -9
2 -12 12 -6 14 -5 15 5 6 7 -7 10 -15 7 -18z m-1310 -36 c-3 -8 -7 -3 -11 10
-4 17 -3 21 5 13 5 -5 8 -16 6 -23z"/>
<path d="M1948 2843 c7 -3 16 -2 19 1 4 3 -2 6 -13 5 -11 0 -14 -3 -6 -6z"/>
<path d="M1965 2407 c-18 -10 -20 -17 -12 -47 4 -19 11 -47 14 -63 3 -15 9
-30 14 -33 5 -3 9 -13 9 -23 0 -14 6 -17 26 -13 18 3 24 10 21 22 -2 9 -1 24
4 32 5 9 4 42 -2 77 -10 53 -14 61 -33 60 -11 -1 -30 -6 -41 -12z"/>
<path d="M1840 1750 c-13 -8 -13 -10 2 -10 9 0 20 5 23 10 8 13 -5 13 -25 0z"/>
<path d="M5121 5073 c1 -368 4 -657 8 -643 4 16 14 25 26 26 11 1 27 3 35 4
41 7 50 0 50 -36 0 -19 -5 -44 -10 -54 -8 -15 -6 -21 10 -30 11 -6 20 -17 20
-25 0 -8 5 -15 10 -15 6 0 10 4 10 9 0 5 9 13 20 16 11 4 20 15 20 26 0 16 -3
18 -19 10 -13 -7 -24 -6 -37 4 -12 9 -14 14 -6 15 16 0 61 50 62 68 0 19 -28
14 -33 -5 -3 -10 -5 -3 -6 15 -1 22 4 32 14 32 8 0 15 6 15 13 0 7 7 22 15 33
14 18 14 18 9 -3 -4 -15 0 -25 15 -32 17 -10 21 -9 21 4 0 8 6 15 14 15 19 0
31 -51 15 -61 -10 -6 -10 -11 1 -24 7 -9 16 -33 19 -53 4 -25 12 -38 24 -40
16 -3 17 -1 7 18 -11 20 -9 21 22 18 25 -2 33 -7 31 -22 -2 -32 15 -66 34 -65
16 1 16 2 2 6 -12 3 -15 11 -11 25 3 14 1 19 -6 14 -7 -4 -12 -2 -12 3 0 17
18 13 28 -5 8 -15 10 -15 16 1 7 20 -11 48 -25 39 -5 -3 -8 -2 -7 3 2 5 -3 15
-10 23 -7 8 -25 32 -40 52 -36 50 -162 208 -183 231 -23 25 -79 140 -79 162 0
11 5 15 16 11 8 -3 12 -2 9 4 -3 5 7 16 23 24 16 8 69 40 118 71 48 30 96 55
107 55 10 0 16 4 13 8 -4 7 33 33 154 107 30 19 60 38 65 43 6 4 24 17 40 28
28 19 48 32 153 97 135 85 178 112 182 118 3 3 16 12 30 19 52 27 388 245 449
292 23 17 1 18 -713 18 l-736 0 1 -667z m689 477 c0 -5 -4 -10 -10 -10 -5 0
-10 5 -10 10 0 6 5 10 10 10 6 0 10 -4 10 -10z m-367 -1102 c9 -31 2 -33 -11
-3 -6 14 -8 25 -3 25 5 0 11 -10 14 -22z"/>
<path d="M6985 5718 c9 -30 26 -47 18 -19 -3 13 -1 21 7 21 6 0 14 -9 17 -19
3 -13 12 -18 24 -16 29 6 39 14 33 30 -4 8 3 15 18 18 13 2 -10 5 -50 6 -72 1
-73 0 -67 -21z"/>
<path d="M2370 5585 c0 -9 11 -20 24 -24 24 -10 36 -48 36 -123 0 -20 5 -40
10 -43 25 -15 0 157 -27 187 -20 22 -43 24 -43 3z"/>
<path d="M7066 5517 c3 -10 9 -15 12 -12 3 3 0 11 -7 18 -10 9 -11 8 -5 -6z"/>
<path d="M2456 5483 c10 -71 15 -88 23 -74 9 14 -8 111 -20 111 -4 0 -5 -17
-3 -37z"/>
<path d="M7090 5461 c0 -6 4 -13 10 -16 6 -3 7 1 4 9 -7 18 -14 21 -14 7z"/>
<path d="M7140 5310 c0 -5 5 -10 11 -10 5 0 7 5 4 10 -3 6 -8 10 -11 10 -2 0
-4 -4 -4 -10z"/>
<path d="M2659 5189 c-10 -6 -10 -9 -1 -9 6 0 12 -7 12 -15 0 -8 5 -15 10 -15
6 0 10 -9 10 -20 0 -18 3 -19 20 -10 15 8 20 8 20 -2 0 -9 3 -9 11 -1 6 6 18
9 25 6 10 -3 14 2 14 18 0 19 -2 21 -10 9 -9 -13 -11 -13 -20 0 -8 12 -10 12
-10 1 0 -9 -7 -6 -20 9 -11 13 -20 19 -20 14 0 -5 -6 -1 -13 8 -9 11 -18 14
-28 7z"/>
<path d="M5700 5130 c19 -13 30 -13 30 0 0 6 -10 10 -22 10 -19 0 -20 -2 -8
-10z"/>
<path d="M7231 5120 c0 -8 4 -22 9 -30 12 -18 12 -2 0 25 -6 13 -9 15 -9 5z"/>
<path d="M2605 5083 c-45 -5 -54 -14 -48 -47 4 -20 10 -23 44 -20 22 2 39 -1
39 -7 0 -13 39 -1 57 17 15 15 18 48 3 39 -6 -4 -9 -1 -8 7 3 14 -23 18 -87
11z m-15 -17 c0 -2 -7 -7 -16 -10 -8 -3 -12 -2 -9 4 6 10 25 14 25 6z m45 -6
c3 -6 -1 -7 -9 -4 -18 7 -21 14 -7 14 6 0 13 -4 16 -10z"/>
<path d="M2740 5080 c-8 -5 -12 -11 -9 -14 2 -3 11 -1 19 4 8 5 12 11 9 14 -2
3 -11 1 -19 -4z"/>
<path d="M2840 5082 c0 -6 9 -12 20 -15 11 -3 20 -3 20 -1 0 2 -9 8 -20 14
-11 6 -20 7 -20 2z"/>
<path d="M5566 5054 c-3 -8 -10 -13 -15 -10 -5 3 -14 0 -20 -7 -8 -11 -5 -14
18 -14 20 0 28 4 24 14 -3 7 0 13 6 13 6 0 11 -5 11 -11 0 -5 4 -8 9 -5 5 3
11 -1 15 -9 9 -24 45 -18 58 10 14 32 3 45 -17 19 -14 -18 -16 -18 -29 -1 -16
21 -52 22 -60 1z"/>
<path d="M7273 5021 c21 -46 37 -57 37 -25 0 8 -4 13 -9 10 -5 -3 -14 8 -21
24 -7 17 -16 33 -21 35 -4 3 2 -17 14 -44z"/>
<path d="M2840 5051 c0 -6 5 -13 10 -16 6 -3 10 1 10 9 0 9 -4 16 -10 16 -5 0
-10 -4 -10 -9z"/>
<path d="M2917 5041 c-4 -15 1 -18 23 -17 21 0 26 5 22 18 -6 24 -38 23 -45
-1z"/>
<path d="M7330 5011 c-5 -11 -10 -26 -9 -33 0 -7 5 -1 11 15 5 15 14 24 20 21
7 -4 8 -2 4 4 -10 16 -14 15 -26 -7z"/>
<path d="M2507 4999 c-12 -7 -16 -17 -12 -30 4 -10 2 -19 -4 -19 -5 0 -18 -3
-28 -7 -16 -6 -16 -5 -5 10 14 17 9 37 -9 37 -6 0 -8 -9 -4 -19 5 -18 2 -19
-32 -15 -24 4 -33 2 -25 -3 8 -6 10 -17 6 -29 -7 -18 -7 -18 13 -1 22 19 43
23 43 7 0 -5 11 -10 25 -10 14 0 25 5 25 11 0 17 28 40 50 42 18 1 18 2 3 19
-19 21 -22 21 -46 7z"/>
<path d="M2215 4984 c-11 -8 -26 -19 -34 -23 -10 -6 -11 -19 -6 -50 6 -38 25
-59 25 -28 0 8 9 24 20 37 11 13 20 18 20 12 0 -7 5 -12 10 -12 7 0 7 6 0 20
-9 17 -8 20 7 20 14 0 15 2 4 9 -7 5 -10 14 -7 20 10 16 -16 13 -39 -5z"/>
<path d="M5690 4967 c0 -28 53 -51 73 -31 12 12 -5 32 -23 27 -10 -3 -21 0
-24 6 -10 15 -26 14 -26 -2z"/>
<path d="M7336 4965 c-3 -8 -3 -23 0 -32 4 -12 -1 -9 -15 7 -28 34 -26 14 4
-35 14 -22 33 -57 42 -77 10 -21 25 -38 33 -38 11 0 12 -3 3 -8 -8 -5 0 -30
29 -87 22 -44 46 -87 53 -95 7 -8 16 -26 20 -40 8 -29 95 -173 107 -178 4 -2
8 -11 8 -20 0 -17 80 -141 104 -161 8 -7 20 -36 26 -65 6 -29 21 -63 35 -78
14 -15 25 -32 25 -39 0 -6 11 -24 25 -41 14 -16 25 -36 25 -44 0 -8 19 -35 42
-60 30 -32 44 -41 49 -32 12 19 67 -39 75 -79 3 -18 10 -33 15 -33 5 0 9 -8 9
-18 0 -23 23 -72 34 -72 4 0 5 7 2 15 -3 8 -9 22 -13 32 -4 11 -3 14 5 9 7 -4
12 -3 12 3 0 5 -6 14 -14 18 -7 4 -18 18 -25 30 -10 20 -9 22 5 16 12 -4 15
-3 10 5 -4 7 -14 12 -22 12 -16 0 -19 16 -5 24 12 8 81 -22 81 -34 0 -6 5 -10
11 -10 5 0 7 5 3 11 -3 6 0 15 7 20 10 6 6 9 -13 9 -15 0 -30 5 -34 11 -4 7 0
9 14 5 17 -6 19 -3 15 14 -3 11 -9 23 -14 26 -16 10 -9 24 11 24 11 0 29 9 40
20 11 11 24 20 28 20 15 0 44 38 37 49 -8 14 -56 6 -66 -10 -11 -18 -42 -2
-35 17 5 12 2 15 -10 10 -8 -3 -20 -6 -25 -6 -5 0 -9 -13 -9 -30 0 -24 -4 -30
-21 -30 -19 0 -20 -2 -8 -17 12 -14 12 -16 -1 -11 -19 6 -20 54 -2 50 9 -2 12
6 10 25 -2 21 2 30 20 38 27 12 28 22 2 30 -12 4 -31 0 -45 -9 -13 -9 -31 -13
-41 -9 -13 5 -15 2 -9 -15 5 -16 2 -22 -9 -22 -18 0 -22 25 -6 35 15 10 12 25
-6 25 -32 0 -47 28 -36 70 7 27 6 42 -2 51 -8 8 -8 13 2 16 14 5 16 23 3 23
-5 0 -17 -7 -25 -16 -15 -14 -16 -13 -16 13 0 43 -18 97 -39 119 -13 15 -16
25 -9 37 10 19 3 37 -15 37 -8 0 -8 -3 2 -9 9 -6 10 -11 2 -15 -14 -9 -53 3
-46 14 3 4 -4 6 -16 3 -19 -5 -20 -2 -18 38 3 35 0 46 -16 54 -31 15 -66 55
-60 65 3 5 -6 12 -20 16 -24 6 -24 7 -8 20 17 13 17 13 -4 14 -31 0 -57 28
-42 46 6 8 15 11 20 8 5 -3 9 0 9 6 0 15 -26 41 -33 33 -9 -8 -39 25 -33 36 3
5 -1 14 -9 21 -8 7 -15 9 -16 4 -1 -5 -5 2 -9 16 -7 23 -8 23 -10 -10 l-2 -35
-10 32 c-7 22 -18 33 -37 36 -14 3 -29 1 -32 -5 -4 -5 -9 -2 -13 7 -10 27 -7
70 6 83 10 10 10 15 -2 22 -24 16 -35 5 -33 -31 1 -19 -1 -25 -4 -14 -7 26
-23 46 -33 40 -4 -3 -11 2 -14 11 -9 24 -7 28 8 15 9 -8 16 -8 20 -2 4 6 -3
15 -14 21 -15 8 -19 17 -15 31 7 22 0 26 -9 4z m89 -205 c3 -5 1 -10 -4 -10
-6 0 -11 5 -11 10 0 6 2 10 4 10 3 0 8 -4 11 -10z m493 -718 c2 -7 -3 -12 -12
-12 -9 0 -16 7 -16 16 0 17 22 14 28 -4z m115 -73 c-5 -18 -6 -19 -19 -2 -19
25 -17 32 5 26 13 -3 17 -11 14 -24z m7 -93 c0 -3 -4 -8 -10 -11 -5 -3 -10 -1
-10 4 0 6 5 11 10 11 6 0 10 -2 10 -4z"/>
<path d="M3426 4888 c3 -40 9 -79 13 -85 12 -24 0 -92 -17 -96 -15 -4 -15 -5
1 -6 32 -2 17 -21 -18 -21 -19 0 -49 -9 -67 -20 -18 -11 -41 -20 -50 -20 -10
0 -18 -4 -18 -10 0 -5 -8 -7 -17 -3 -15 5 -16 3 -5 -8 17 -19 15 -34 -3 -19
-14 11 -15 8 -11 -26 3 -21 8 -75 11 -119 3 -44 10 -129 15 -190 6 -60 15
-164 21 -229 11 -126 17 -152 30 -120 7 17 8 17 8 -4 1 -13 5 -20 11 -17 6 4
8 10 5 15 -3 5 -2 11 3 13 4 3 12 -6 19 -19 6 -13 7 -24 3 -24 -5 0 -11 6 -13
13 -4 7 -6 6 -6 -4 -1 -11 10 -19 34 -23 19 -4 35 -12 35 -18 0 -6 3 -8 6 -5
9 9 46 -12 39 -22 -2 -5 2 -14 10 -21 12 -10 20 -7 46 18 19 18 26 32 20 37
-6 3 -10 33 -10 68 1 34 4 52 6 40 6 -33 15 -28 37 16 10 22 27 42 37 44 13 3
17 11 13 21 -5 12 0 16 20 16 21 0 26 5 26 26 0 18 4 25 14 21 10 -4 12 0 9
14 -3 10 -9 19 -14 19 -5 0 -9 11 -9 25 0 14 -8 29 -20 35 -17 9 -18 13 -8 24
49 51 58 67 48 86 -9 16 -8 18 5 14 11 -4 15 0 15 16 0 15 -4 20 -15 17 -8 -4
-17 -2 -20 3 -4 6 -2 10 4 10 6 0 7 7 4 17 -4 10 -2 14 4 10 6 -4 13 -1 16 7
4 11 -2 12 -30 6 -31 -8 -34 -6 -30 11 3 10 1 22 -4 25 -5 3 -7 9 -4 14 3 4
-2 10 -10 14 -8 3 -15 11 -15 18 0 9 3 9 10 -2 5 -8 12 -12 15 -8 4 4 -4 13
-17 22 -21 13 -24 25 -26 80 -2 50 1 65 13 70 9 3 15 14 13 23 -2 14 4 18 30
18 17 0 32 4 32 8 0 5 7 7 15 3 13 -4 14 -2 5 14 -6 11 -15 20 -21 20 -6 0 -8
4 -4 9 3 5 1 12 -5 16 -6 4 -8 10 -5 15 3 4 -3 7 -13 6 -11 -1 -17 6 -17 19
-1 11 -6 19 -13 18 -7 -2 -12 4 -12 12 0 8 -5 15 -11 15 -5 0 -7 5 -4 10 3 6
-5 10 -19 10 -17 0 -24 4 -20 14 3 7 -2 16 -10 19 -11 4 -13 1 -9 -11 6 -15 4
-15 -10 -4 -18 15 -37 8 -37 -13 0 -8 6 -12 14 -9 12 5 11 -1 -2 -29 -25 -57
-42 -37 -42 49 0 60 -3 74 -16 74 -13 0 -14 -11 -8 -72z m87 -106 c3 7 6 3 6
-9 1 -13 -3 -23 -9 -23 -5 0 -10 -13 -10 -30 0 -32 -1 -33 -22 -25 -10 4 -13
17 -10 38 6 53 10 61 26 48 11 -9 15 -9 19 1z m84 -58 c-3 -3 -12 -4 -19 -1
-8 3 -5 6 6 6 11 1 17 -2 13 -5z m-163 -839 c3 -8 1 -15 -4 -15 -6 0 -10 7
-10 15 0 8 2 15 4 15 2 0 6 -7 10 -15z"/>
<path d="M2296 4917 c3 -10 9 -15 12 -12 3 3 0 11 -7 18 -10 9 -11 8 -5 -6z"/>
<path d="M2351 4914 c0 -11 3 -14 6 -6 3 7 2 16 -1 19 -3 4 -6 -2 -5 -13z"/>
<path d="M5600 4909 c0 -5 5 -7 10 -4 6 3 10 8 10 11 0 2 -4 4 -10 4 -5 0 -10
-5 -10 -11z"/>
<path d="M2246 4897 c3 -10 9 -15 12 -12 3 3 0 11 -7 18 -10 9 -11 8 -5 -6z"/>
<path d="M2273 4888 c1 -15 6 -23 11 -18 4 4 4 16 -2 26 -9 16 -10 14 -9 -8z"/>
<path d="M2528 4903 c7 -3 16 -2 19 1 4 3 -2 6 -13 5 -11 0 -14 -3 -6 -6z"/>
<path d="M5660 4890 c0 -5 5 -10 10 -10 6 0 10 5 10 10 0 6 -4 10 -10 10 -5 0
-10 -4 -10 -10z"/>
<path d="M5613 4863 c9 -2 23 -2 30 0 6 3 -1 5 -18 5 -16 0 -22 -2 -12 -5z"/>
<path d="M7432 4840 c0 -14 2 -19 5 -12 2 6 2 18 0 25 -3 6 -5 1 -5 -13z"/>
<path d="M6530 4812 c0 -12 -6 -22 -12 -22 -8 0 -14 -16 -15 -41 -2 -22 -9
-49 -17 -61 -8 -11 -12 -26 -10 -32 7 -17 -40 -40 -67 -33 -22 6 -68 -14 -97
-40 -7 -7 -18 -13 -23 -13 -5 0 -9 -9 -9 -20 0 -11 -4 -20 -8 -20 -5 0 -24
-14 -43 -31 -20 -17 -41 -28 -51 -25 -10 2 -18 1 -18 -2 0 -3 37 -74 82 -158
l82 -152 95 51 c108 57 363 205 372 215 3 4 -35 79 -86 167 -78 137 -95 160
-116 160 -18 0 -26 8 -34 32 -14 41 -25 52 -25 25z"/>
<path d="M4075 4518 c-55 -5 -113 -13 -130 -17 l-30 -8 40 -8 c23 -5 72 -3
120 4 44 7 91 13 104 13 16 0 20 3 11 8 -10 6 -9 9 1 13 18 7 11 7 -116 -5z"/>
<path d="M4220 4520 c0 -6 21 -8 58 -4 77 9 78 14 4 14 -35 0 -62 -4 -62 -10z"/>
<path d="M7196 4512 c-6 -19 -14 -23 -32 -19 -34 6 -30 -9 5 -21 16 -6 32 -20
36 -31 3 -12 11 -21 17 -21 6 0 7 7 3 18 -5 9 -11 35 -14 57 -6 36 -8 38 -15
17z"/>
<path d="M3810 4469 c0 -5 -5 -7 -11 -3 -13 7 -31 -15 -22 -28 2 -5 12 -7 21
-4 10 2 35 7 57 11 l40 7 -34 14 c-40 17 -51 18 -51 3z"/>
<path d="M7090 4416 c0 -30 5 -58 10 -61 6 -3 10 3 10 14 0 25 33 44 60 36 11
-4 20 -5 20 -2 0 5 -87 67 -94 67 -3 0 -6 -24 -6 -54z m38 6 c6 -18 -15 -14
-22 4 -4 10 -1 14 6 12 6 -2 14 -10 16 -16z"/>
<path d="M7000 4415 c-16 -20 -6 -45 19 -45 32 0 50 -11 44 -26 -3 -8 -12 -14
-21 -14 -8 0 -13 -3 -9 -6 3 -3 15 -3 27 1 35 11 23 49 -17 53 -36 4 -44 25
-15 41 15 9 15 10 1 11 -9 0 -22 -7 -29 -15z"/>
<path d="M4292 4399 c-7 -12 -13 -37 -12 -57 1 -21 2 -60 1 -89 -1 -52 -1 -52
-37 -59 -32 -6 -74 -34 -74 -49 0 -3 0 -9 0 -14 0 -4 -15 -12 -32 -17 -26 -8
-33 -15 -34 -37 -1 -15 3 -27 7 -27 5 0 9 -7 9 -15 0 -9 -6 -12 -16 -8 -13 5
-15 2 -10 -15 5 -13 -4 -47 -24 -93 -17 -40 -29 -74 -27 -76 3 -2 18 -5 36 -6
29 -2 39 -20 13 -23 -7 -1 -15 -3 -19 -4 -5 -1 -10 -2 -13 -2 -71 1 -268 -21
-310 -34 -58 -20 -98 -49 -77 -58 9 -3 8 -7 -2 -15 -12 -8 -10 -11 12 -16 15
-4 24 -11 21 -16 -3 -5 -9 -7 -13 -4 -10 5 -30 -117 -36 -215 -3 -52 -2 -58 5
-30 6 25 7 15 3 -35 -4 -38 -7 -80 -7 -92 -1 -27 -15 -31 -17 -5 -2 31 -17
-61 -34 -210 -9 -81 -15 -155 -13 -165 2 -10 12 52 21 137 24 206 25 214 42
200 8 -7 12 -23 10 -38 -2 -15 -10 -65 -16 -112 -8 -56 -15 -78 -19 -65 -9 23
-25 -132 -23 -213 1 -29 -1 -50 -5 -48 -4 2 -8 -14 -9 -37 0 -23 -12 -114 -27
-202 -14 -88 -26 -167 -26 -175 -1 -11 -4 -10 -9 4 -4 11 -12 -21 -20 -88 -14
-127 -22 -153 -32 -116 -4 14 -5 -11 -1 -55 10 -123 8 -140 -23 -181 -16 -21
-23 -34 -17 -30 16 10 16 1 -13 -235 -33 -269 -34 -278 -48 -274 -45 11 -57
19 -58 39 0 11 -2 31 -5 43 -2 12 1 25 6 28 6 3 10 12 10 18 -1 25 -30 -28
-30 -54 0 -15 -4 -31 -10 -34 -5 -3 -10 -17 -10 -31 0 -13 -4 -24 -8 -24 -9 0
-38 -99 -34 -113 2 -5 -5 -11 -15 -13 -10 -3 -26 -22 -35 -42 l-17 -37 5 35
c7 52 15 146 21 227 4 51 9 71 17 66 6 -3 6 0 -1 8 -16 16 -17 33 -2 23 7 -4
4 6 -5 22 -11 17 -35 36 -59 46 -66 25 -70 27 -102 46 -25 15 -31 27 -36 68
-5 40 -8 45 -14 27 -8 -26 -25 -31 -25 -8 0 8 -5 15 -11 15 -5 0 -8 -4 -5 -9
3 -5 -1 -12 -10 -15 -16 -6 -54 13 -82 41 -16 16 -36 17 -26 2 5 -8 0 -10 -17
-6 -14 4 -38 2 -54 -2 -17 -5 -24 -10 -17 -10 7 -1 10 -6 7 -12 -13 -20 4 -59
26 -59 16 0 19 -5 14 -22 -5 -19 -3 -18 10 5 9 15 20 27 25 27 13 0 13 -47 0
-55 -14 -9 -12 -35 3 -33 7 2 11 -6 9 -20 -2 -12 3 -29 12 -37 8 -8 13 -24 11
-35 -7 -34 14 -80 33 -73 13 4 14 3 3 -5 -8 -6 -11 -18 -7 -30 4 -11 2 -23 -4
-27 -5 -3 -10 -17 -10 -30 0 -19 -4 -23 -17 -18 -10 3 3 -15 30 -41 29 -30 53
-46 62 -42 8 3 14 0 12 -6 -1 -6 23 -26 53 -44 80 -47 293 -162 308 -166 18
-4 117 254 163 427 17 66 18 67 13 20 -13 -126 -46 -354 -56 -387 -11 -39 -30
-55 -21 -18 3 11 1 20 -5 20 -5 0 -19 -37 -30 -82 l-20 -83 26 -22 c25 -21
115 -49 237 -73 70 -13 201 -10 198 5 -1 6 7 11 18 11 10 0 19 -7 19 -14 0 -9
-6 -12 -15 -8 -20 7 -30 -17 -17 -40 8 -14 21 -17 63 -15 71 3 96 10 78 22 -8
5 -24 9 -36 9 -14 0 -23 6 -23 15 0 8 5 15 11 15 5 0 7 -5 4 -10 -4 -7 3 -9
19 -6 16 3 26 0 26 -7 0 -7 4 -6 10 3 9 13 10 13 10 0 1 -26 24 21 36 73 9 39
9 50 -1 54 -10 3 -8 10 7 25 14 14 17 23 10 30 -6 6 -8 17 -5 24 6 15 -20 15
-47 0 -12 -7 -13 -7 -2 5 7 8 25 14 40 14 24 1 27 5 35 49 6 35 5 51 -4 56 -8
6 -8 9 0 11 13 5 18 24 22 84 2 31 3 34 6 13 4 -28 19 -39 20 -15 0 6 3 62 7
122 3 61 2 116 -3 123 -4 8 -19 12 -32 10 -17 -2 -24 2 -26 17 l-3 20 9 -20
c8 -19 9 -18 21 8 14 29 21 32 36 17 6 -6 10 7 11 37 3 50 1 51 -21 8 -9 -18
-16 -23 -16 -14 0 9 -7 19 -15 23 -20 7 -19 43 1 54 12 7 15 21 13 65 -4 56
-4 56 25 59 29 3 29 3 33 81 4 77 4 78 -19 75 -13 -2 -22 -9 -20 -16 1 -8 -2
-10 -8 -7 -15 10 -2 64 22 89 16 17 20 18 28 6 13 -21 17 -2 24 113 5 93 5 97
-15 97 -17 0 -20 4 -15 24 7 28 -2 58 -15 50 -5 -3 -9 -10 -9 -15 0 -6 5 -7
10 -4 14 9 12 -7 -4 -27 -15 -20 -31 -25 -20 -6 5 7 7 25 6 39 -2 20 2 27 14
25 8 -1 20 -9 25 -17 6 -10 9 -10 9 -1 0 6 7 12 15 12 20 0 19 20 -1 35 -20
14 -12 65 9 65 14 0 37 93 37 147 0 18 7 39 17 48 14 14 14 18 2 26 -8 5 -19
9 -26 9 -8 0 -6 10 5 32 23 47 24 302 2 316 -12 7 -16 5 -16 -12 -1 -60 -6
-109 -11 -96 -2 8 -7 22 -10 30 -3 8 -12 -12 -19 -45 l-12 -60 4 89 c3 59 0
94 -8 103 -9 11 -8 13 2 11 8 -2 16 5 18 15 5 23 -15 22 -30 -3 -7 -11 -19
-20 -26 -20 -8 0 1 12 20 27 46 38 48 43 30 64 -19 22 -42 24 -62 7 -7 -7 -3
5 10 27 13 22 28 43 33 46 5 4 10 27 11 52 1 29 9 54 20 66 19 21 19 21 0 21
-19 1 -19 1 0 15 13 10 16 20 11 32 -8 17 -8 17 -12 0 -3 -9 -8 -15 -13 -12
-5 3 -7 12 -3 20 3 8 0 15 -7 15 -9 0 -10 19 -5 73 7 81 23 152 32 143 3 -3 7
-46 8 -96 2 -50 5 -93 8 -96 3 -3 27 -6 54 -7 l48 -2 3 44 c3 36 -1 48 -23 71
-22 23 -26 34 -20 59 3 17 11 33 16 36 5 4 5 15 -2 27 -9 17 -8 23 5 30 22 12
20 29 -1 21 -10 -3 -15 -2 -11 2 16 17 107 42 134 37 l28 -5 -30 -23 c-16 -13
-23 -24 -16 -24 6 0 12 -11 12 -25 0 -14 5 -24 12 -22 6 1 14 -7 16 -17 3 -13
0 -17 -9 -14 -11 4 -14 -7 -15 -46 0 -28 -4 -75 -8 -103 -5 -44 -4 -53 9 -53
11 0 15 11 15 38 0 22 5 76 11 121 9 66 9 88 -2 107 -7 13 -9 27 -5 31 8 8 58
8 133 -2 46 -6 52 -4 47 9 -7 19 0 20 27 6 22 -12 25 -1 7 20 -7 8 2 1 20 -15
21 -19 28 -31 20 -34 -7 -2 5 -9 27 -15 29 -8 41 -18 43 -33 2 -15 14 -24 44
-31 23 -6 45 -9 50 -6 4 3 8 -3 9 -13 0 -15 2 -14 9 4 7 18 8 74 1 125 -3 23
-241 107 -305 108 -18 0 -18 1 -3 18 18 20 36 8 -195 128 -107 55 -108 56
-109 92 l-1 37 -9 -30 c-7 -26 -8 -25 -4 10 3 22 5 54 6 70 2 30 2 30 9 -5 l7
-35 2 38 c0 20 6 37 12 37 5 0 7 5 4 10 -4 6 9 10 32 11 21 0 31 3 23 6 -8 3
-26 10 -40 15 -39 14 -6 28 70 28 l65 0 -40 21 c-88 46 -84 40 -78 124 3 41 4
75 2 75 -2 0 -10 -9 -17 -21z m-185 -441 c-3 -8 -6 -5 -6 6 -1 11 2 17 5 13 3
-3 4 -12 1 -19z m-14 -48 c3 -11 1 -18 -4 -14 -5 3 -9 12 -9 20 0 20 7 17 13
-6z m240 -180 c-6 -21 6 -27 23 -10 11 11 44 3 44 -11 0 -15 -69 -22 -85 -9
-13 11 -20 9 -38 -7 -21 -20 -60 -43 -71 -43 -14 0 -4 23 19 44 14 13 25 30
26 37 0 10 2 11 6 2 6 -17 31 -16 49 2 21 21 33 19 27 -5z m127 -9 c0 -10 61
-21 74 -14 4 3 2 10 -5 15 -11 7 -9 8 4 4 10 -3 26 -6 35 -7 10 0 5 -5 -10
-11 -16 -5 -28 -13 -28 -16 0 -13 -113 3 -116 16 -1 7 0 8 3 2 7 -15 23 -12
23 5 0 8 5 15 10 15 6 0 10 -4 10 -9z m163 -18 c-7 -2 -19 -2 -25 0 -7 3 -2 5
12 5 14 0 19 -2 13 -5z m-787 -40 c-11 -11 -17 4 -9 23 7 18 8 18 11 1 2 -10
1 -21 -2 -24z m898 8 c3 -5 -1 -11 -9 -15 -8 -3 -17 0 -21 6 -4 7 -3 8 4 4 7
-4 12 -2 12 3 0 13 7 14 14 2z m-580 -12 c-3 -6 0 -16 7 -21 11 -8 10 -9 -3
-4 -13 4 -18 0 -18 -12 -1 -15 -3 -15 -16 3 -16 19 -16 19 -9 -5 7 -23 7 -23
-10 -7 -14 14 -15 20 -5 32 9 11 16 12 25 5 9 -8 14 -6 19 5 3 8 8 15 11 15 4
0 3 -5 -1 -11z m-30 -88 c3 -5 -1 -62 -8 -127 -8 -66 -18 -153 -21 -195 -10
-106 -20 -114 -18 -14 1 61 -3 89 -14 102 -8 10 -11 12 -8 5 5 -10 2 -13 -11
-10 -25 4 -34 68 -10 68 12 0 16 10 16 40 0 22 4 40 8 40 5 0 9 14 10 30 1 47
12 70 32 70 10 0 21 -4 24 -9z m33 -863 c-3 -7 -5 -2 -5 12 0 14 2 19 5 13 2
-7 2 -19 0 -25z m0 -58 c-1 -22 -7 -40 -13 -40 -7 0 -9 11 -7 28 10 63 22 71
20 12z m-87 -20 c0 -5 -2 -10 -4 -10 -3 0 -8 5 -11 10 -3 6 -1 10 4 10 6 0 11
-4 11 -10z m87 -56 c-3 -3 -12 -4 -19 -1 -8 3 -5 6 6 6 11 1 17 -2 13 -5z
m-10 -91 c-2 -16 -4 -3 -4 27 0 30 2 43 4 28 2 -16 2 -40 0 -55z m-9 -107 c-5
-54 -3 -66 11 -69 10 -3 7 -5 -8 -6 -21 -1 -23 2 -17 30 3 17 6 49 6 70 0 22
3 39 6 39 4 0 4 -29 2 -64z m-11 -298 c-2 -13 -4 -3 -4 22 0 25 2 35 4 23 2
-13 2 -33 0 -45z m-117 -77 c0 -4 -11 -6 -25 -3 -14 2 -25 6 -25 8 0 2 11 4
25 4 14 0 25 -4 25 -9z m85 -11 c4 -6 -5 -10 -19 -10 -14 0 -26 -4 -26 -10 0
-5 9 -10 20 -10 11 0 20 -5 20 -11 0 -7 -9 -9 -21 -6 -15 4 -23 0 -26 -14 -3
-10 -10 -19 -15 -19 -6 0 -8 10 -4 23 3 12 6 32 6 45 0 18 6 22 29 22 17 0 33
-4 36 -10z m-109 -28 c-10 -2 -22 0 -28 6 -6 6 0 7 19 4 21 -5 23 -7 9 -10z
m-23 -127 c-7 -21 -13 -19 -13 6 0 11 4 18 10 14 5 -3 7 -12 3 -20z m151 9 c5
-13 9 -14 21 -4 19 16 19 11 -1 -29 -8 -17 -20 -29 -25 -25 -5 3 -7 10 -4 15
4 5 3 18 0 29 -7 22 -40 27 -48 8 -3 -8 -6 -6 -6 5 -1 23 54 24 63 1z m-87
-26 c-3 -7 -5 -2 -5 12 0 14 2 19 5 13 2 -7 2 -19 0 -25z m60 -121 c-2 -7 -10
1 -18 17 l-14 29 -6 -24 c-6 -20 -7 -19 -8 11 l-1 35 26 -28 c14 -15 23 -33
21 -40z m-1287 -7 c0 -5 -7 -10 -15 -10 -8 0 -15 5 -15 10 0 6 7 10 15 10 8 0
15 -4 15 -10z m1142 -55 c-6 -34 -13 -32 -10 4 1 16 5 28 9 26 3 -3 4 -16 1
-30z m-365 -17 c-3 -7 -5 -2 -5 12 0 14 2 19 5 13 2 -7 2 -19 0 -25z m454 -23
c-3 -5 -7 -2 -9 8 -4 18 -4 18 -18 0 -12 -16 -12 -14 -2 14 12 31 12 31 23 10
7 -12 9 -26 6 -32z m32 16 c-4 -16 -8 -19 -14 -10 -4 7 -3 19 3 26 14 18 19
12 11 -16z m-493 -36 c0 -14 -4 -25 -9 -25 -4 0 -6 11 -3 25 2 14 6 25 8 25 2
0 4 -11 4 -25z m374 -23 c-6 -4 -14 -14 -17 -22 -4 -10 -6 -8 -6 8 -1 15 5 22
17 22 10 0 13 -3 6 -8z m17 -33 c-5 -13 -10 -19 -10 -12 -1 15 10 45 15 40 3
-2 0 -15 -5 -28z m59 -7 c-6 -2 -10 -11 -10 -19 0 -9 -2 -14 -5 -11 -4 3 -3
18 1 33 5 20 9 23 15 13 5 -7 4 -14 -1 -16z m37 22 c-3 -3 -12 -4 -19 -1 -8 3
-5 6 6 6 11 1 17 -2 13 -5z m-76 -37 c-10 -9 -11 -8 -5 6 3 10 9 15 12 12 3
-3 0 -11 -7 -18z m-428 -88 c-7 -35 -24 -39 -21 -5 1 14 6 22 11 19 4 -3 6 12
3 34 -5 34 -5 35 4 9 5 -16 6 -42 3 -57z m559 37 c3 -14 1 -31 -3 -38 -6 -8
-9 1 -9 25 0 42 6 48 12 13z m-205 -58 c-3 -7 -5 -2 -5 12 0 14 2 19 5 13 2
-7 2 -19 0 -25z m200 -40 c-3 -8 -6 -5 -6 6 -1 11 2 17 5 13 3 -3 4 -12 1 -19z
m-573 -45 c-9 -40 -11 -69 -13 -144 -1 -60 -3 -67 -26 -77 -14 -6 -25 -8 -25
-4 1 24 32 183 42 212 7 19 11 44 10 55 -2 18 -2 18 8 3 6 -9 8 -30 4 -45z
m363 10 c-3 -10 -5 -2 -5 17 0 19 2 27 5 18 2 -10 2 -26 0 -35z m-307 12 c0
-8 -4 -15 -10 -15 -5 0 -10 7 -10 15 0 8 5 15 10 15 6 0 10 -7 10 -15z m297
-117 c-2 -13 -4 -5 -4 17 -1 22 1 32 4 23 2 -10 2 -28 0 -40z m73 27 c0 -2 -7
-5 -15 -9 -9 -3 -15 0 -15 9 0 9 6 12 15 9 8 -4 15 -7 15 -9z m57 -27 c-3 -7
-5 -2 -5 12 0 14 2 19 5 13 2 -7 2 -19 0 -25z m48 12 c3 -5 1 -10 -4 -10 -6 0
-11 5 -11 10 0 6 2 10 4 10 3 0 8 -4 11 -10z m-44 -65 c7 19 8 19 8 -2 1 -14
-5 -23 -14 -23 -9 0 -15 9 -14 23 1 20 2 20 7 2 l5 -20 8 20z m-34 -70 c0 -8
-4 -12 -9 -9 -5 3 -6 10 -3 15 9 13 12 11 12 -6z m46 -11 c-4 -12 -8 -13 -14
-3 -9 15 -2 32 11 24 5 -3 6 -13 3 -21z m23 -11 c-10 -10 -19 5 -10 18 6 11 8
11 12 0 2 -7 1 -15 -2 -18z m-574 -49 c-8 -15 -9 -15 -15 0 -4 10 -3 15 3 11
6 -3 10 2 11 12 0 10 3 13 5 6 3 -7 1 -20 -4 -29z m485 11 c0 -8 -7 -15 -15
-15 -12 0 -12 3 -2 15 7 8 13 15 15 15 1 0 2 -7 2 -15z m-20 -67 c0 -13 -1
-17 -4 -10 -3 6 -10 9 -16 5 -7 -4 -6 1 2 10 17 21 17 21 18 -5z m36 -8 c-3
-12 -8 -19 -11 -16 -5 6 5 36 12 36 2 0 2 -9 -1 -20z m35 -72 c-5 -13 -38 -20
-38 -8 0 5 8 11 18 13 9 3 19 5 20 6 2 0 2 -4 0 -11z"/>
<path d="M4037 3383 c-13 -12 -7 -23 11 -22 10 0 12 3 4 6 -6 2 -10 9 -6 14 6
10 0 12 -9 2z"/>
<path d="M3706 4401 c-4 -7 -5 -15 -2 -18 9 -9 19 4 14 18 -4 11 -6 11 -12 0z"/>
<path d="M2709 4381 c-17 -14 -20 -24 -15 -44 6 -24 11 -27 44 -26 l37 2 -35
6 c-24 4 -36 12 -38 25 -5 23 23 47 44 39 8 -3 14 -3 14 0 0 15 -32 14 -51 -2z"/>
<path d="M2782 4375 c0 -16 3 -39 8 -50 8 -19 9 -19 9 3 1 17 7 22 26 22 19 0
25 -5 26 -22 0 -13 3 -18 5 -12 2 6 0 28 -5 50 -5 23 -9 30 -10 17 -1 -17 -7
-23 -25 -23 -18 0 -26 7 -29 23 -3 17 -4 15 -5 -8z"/>
<path d="M2874 4369 c3 -17 6 -38 6 -45 0 -8 10 -14 23 -13 16 1 18 2 5 6 -10
2 -18 11 -18 18 0 7 8 16 18 18 16 4 16 5 0 6 -10 0 -18 7 -18 15 0 8 8 17 18
19 10 3 5 5 -12 6 -27 1 -28 -1 -22 -30z"/>
<path d="M5320 4390 c0 -5 5 -10 10 -10 6 0 10 5 10 10 0 6 -4 10 -10 10 -5 0
-10 -4 -10 -10z"/>
<path d="M2602 4374 c-12 -8 -22 -24 -22 -34 0 -22 26 -50 46 -50 16 0 54 35
54 50 0 12 -37 50 -48 50 -4 0 -18 -7 -30 -16z m53 -34 c0 -30 -35 -40 -55
-15 -10 12 -10 18 0 30 20 25 55 15 55 -15z"/>
<path d="M2970 4363 c0 -16 5 -35 10 -43 8 -12 10 -11 10 8 0 13 6 22 15 22 8
0 15 4 15 9 0 5 -9 7 -20 4 -11 -3 -20 -1 -20 5 0 6 8 13 18 15 13 4 11 5 -5
6 -19 1 -23 -4 -23 -26z"/>
<path d="M3037 4383 c-14 -13 -6 -25 8 -13 12 10 18 10 33 -1 15 -13 16 -12 3
4 -14 18 -33 22 -44 10z"/>
<path d="M7259 4377 c-14 -10 -14 -16 -2 -42 l14 -30 -6 30 c-5 27 -4 28 8 13
8 -10 20 -18 28 -18 12 0 12 2 0 9 -7 5 -10 14 -7 20 4 6 2 11 -4 11 -6 0 -8
5 -5 10 8 14 -7 12 -26 -3z"/>
<path d="M6930 4373 c-49 -18 -65 -67 -32 -96 25 -23 58 -21 82 3 27 27 26 65
-2 84 -24 17 -25 17 -48 9z m50 -32 c20 -39 -22 -82 -60 -61 -22 12 -27 49 -8
68 18 18 56 14 68 -7z"/>
<path d="M2510 4338 c0 -18 5 -40 10 -48 8 -12 10 -11 10 8 0 25 15 30 24 7 3
-8 11 -15 17 -15 8 0 7 5 -2 16 -7 9 -13 26 -14 38 0 14 -7 22 -22 24 -20 3
-23 -1 -23 -30z m40 13 c0 -17 -18 -21 -24 -6 -3 9 0 15 9 15 8 0 15 -4 15 -9z"/>
<path d="M2426 4315 c-6 -29 -29 -55 -50 -55 -3 0 -6 16 -6 35 0 19 -4 35 -10
35 -11 0 -13 -15 -4 -58 6 -29 7 -29 40 -19 19 6 34 16 34 24 0 17 32 17 49 1
7 -7 4 6 -8 30 -12 23 -25 42 -30 42 -5 0 -12 -16 -15 -35z m21 -7 c-3 -8 -6
-5 -6 6 -1 11 2 17 5 13 3 -3 4 -12 1 -19z"/>
<path d="M3110 4341 c0 -6 4 -13 10 -16 6 -3 7 1 4 9 -7 18 -14 21 -14 7z"/>
<path d="M3031 4331 c9 -25 37 -37 51 -23 11 11 10 12 -3 7 -9 -4 -24 2 -34
12 -12 12 -17 13 -14 4z"/>
<path d="M5571 4332 c-1 -8 8 -25 19 -39 11 -14 20 -37 20 -50 0 -13 4 -22 9
-19 5 3 5 -12 0 -35 -10 -44 -4 -63 11 -39 7 11 10 8 10 -12 0 -30 25 -39 47
-17 8 8 19 0 42 -32 17 -24 37 -51 44 -59 8 -8 22 -30 31 -47 20 -40 29 -43
15 -6 -12 32 -157 242 -223 324 -8 9 -16 22 -19 30 -4 11 -6 11 -6 1z m103
-165 c9 -4 16 -12 16 -19 0 -9 -3 -8 -10 2 -9 13 -10 13 -10 0 -1 -9 -6 -5
-15 10 -8 14 -14 32 -14 40 0 9 4 6 9 -6 4 -12 15 -24 24 -27z"/>
<path d="M7210 4329 c0 -5 -6 -7 -12 -3 -7 4 -10 4 -6 0 3 -4 9 -7 12 -7 3 1
16 -4 29 -10 22 -12 22 -12 3 10 -22 24 -26 26 -26 10z"/>
<path d="M6815 4308 c-11 -6 -22 -12 -24 -14 -4 -4 48 -94 55 -94 2 0 1 11 -2
26 -5 18 -1 29 12 39 15 11 17 18 8 31 -14 23 -25 26 -49 12z m35 -21 c0 -8
-3 -17 -7 -20 -9 -9 -34 13 -27 24 8 14 34 11 34 -4z"/>
<path d="M7151 4310 c-1 -23 19 -40 46 -40 24 0 31 14 13 25 -5 3 -10 1 -10
-4 0 -20 -31 -11 -40 12 -5 13 -9 16 -9 7z"/>
<path d="M7130 4294 c0 -13 18 -39 24 -34 2 3 -2 14 -10 24 -8 11 -14 16 -14
10z"/>
<path d="M7931 4268 c-1 -21 1 -38 3 -38 2 0 13 -3 23 -6 11 -4 14 -3 6 3 -6
4 -16 24 -21 43 l-10 35 -1 -37z"/>
<path d="M7960 4291 c0 -5 9 -19 19 -32 16 -19 22 -22 32 -11 11 10 10 12 -3
12 -9 0 -20 9 -23 20 -6 20 -25 28 -25 11z"/>
<path d="M7073 4271 c-3 -13 -11 -18 -21 -14 -11 3 -13 2 -6 -4 6 -4 14 -15
17 -23 4 -12 6 -11 6 3 1 14 4 15 19 6 25 -16 55 0 42 21 -8 13 -10 12 -10 -3
0 -12 -6 -17 -17 -15 -11 2 -18 12 -17 26 1 27 -6 29 -13 3z"/>
<path d="M2930 4271 c0 -7 -5 -9 -12 -5 -7 5 -8 3 -3 -5 5 -9 10 -10 18 -2 6
6 8 14 4 18 -4 3 -7 1 -7 -6z"/>
<path d="M2703 4243 c-1 -16 1 -22 4 -15 2 6 8 10 13 7 4 -3 6 4 3 15 -8 29
-18 25 -20 -7z"/>
<path d="M2963 4255 c0 -8 6 -16 14 -19 11 -4 11 -1 3 14 -13 24 -17 25 -17 5z"/>
<path d="M2597 4240 c3 -11 7 -20 8 -20 1 0 5 9 8 20 3 12 0 20 -8 20 -8 0
-11 -8 -8 -20z"/>
<path d="M2682 4240 c0 -14 2 -19 5 -12 2 6 2 18 0 25 -3 6 -5 1 -5 -13z"/>
<path d="M2740 4240 c0 -11 4 -20 9 -20 5 0 7 9 4 20 -3 11 -7 20 -9 20 -2 0
-4 -9 -4 -20z"/>
<path d="M2841 4244 c0 -11 3 -14 6 -6 3 7 2 16 -1 19 -3 4 -6 -2 -5 -13z"/>
<path d="M2870 4249 c0 -5 5 -7 10 -4 6 3 10 8 10 11 0 2 -4 4 -10 4 -5 0 -10
-5 -10 -11z"/>
<path d="M5120 4250 c0 -5 4 -10 9 -10 6 0 13 5 16 10 3 6 -1 10 -9 10 -9 0
-16 -4 -16 -10z"/>
<path d="M5590 4255 c-1 -5 -3 -17 -5 -25 -1 -8 4 -21 11 -28 11 -10 14 -10
13 0 -2 21 -17 64 -19 53z"/>
<path d="M2510 4241 c0 -5 -8 -8 -17 -6 -10 1 -12 0 -5 -2 9 -3 12 -13 8 -26
-5 -21 -5 -21 9 -3 8 11 15 15 15 10 0 -13 38 -15 45 -3 4 5 11 6 17 3 8 -5 9
-1 5 10 -4 10 -7 20 -7 22 0 2 -4 4 -10 4 -5 0 -10 -9 -10 -20 0 -11 -4 -20
-9 -20 -5 0 -11 9 -14 20 -5 20 -27 29 -27 11z"/>
<path d="M6686 4235 c-18 -14 -18 -16 8 -60 15 -25 30 -45 34 -45 10 1 58 40
49 40 -5 0 -17 -5 -28 -10 -27 -15 -38 16 -13 36 18 14 18 15 -3 9 -37 -10
-49 5 -22 26 16 13 19 19 9 18 -8 0 -23 -6 -34 -14z"/>
<path d="M7010 4232 c0 -20 18 -42 35 -42 5 0 2 7 -9 15 -11 8 -16 21 -13 30
4 8 2 15 -3 15 -6 0 -10 -8 -10 -18z"/>
<path d="M2640 4216 c7 -7 13 -7 20 0 6 6 3 10 -10 10 -13 0 -16 -4 -10 -10z"/>
<path d="M7996 4213 c-7 -17 4 -16 28 2 18 13 18 14 -3 12 -11 -1 -23 -7 -25
-14z"/>
<path d="M2396 4205 c-11 -30 -6 -40 11 -22 12 12 14 20 6 28 -7 7 -12 6 -17
-6z"/>
<path d="M6780 4210 c-13 -8 -13 -10 2 -10 9 0 20 5 23 10 8 13 -5 13 -25 0z"/>
<path d="M6976 4200 c5 -20 4 -23 -7 -12 -16 15 -45 16 -54 2 -9 -14 4 -50 17
-50 7 0 6 5 -2 15 -13 16 -6 35 15 35 21 0 28 -19 15 -35 -8 -10 -9 -15 -2
-15 6 0 13 9 17 19 3 11 13 18 23 16 9 -1 12 0 6 2 -6 2 -16 14 -23 26 -11 21
-11 21 -5 -3z"/>
<path d="M2426 4195 c-4 -10 1 -15 14 -15 11 0 20 5 20 11 0 5 5 7 12 3 7 -4
8 -3 4 4 -10 17 -43 15 -50 -3z"/>
<path d="M6630 4203 c0 -5 4 -15 10 -23 20 -32 -35 -55 -60 -25 -22 27 -22 9
2 -39 23 -49 42 -62 33 -23 -5 18 0 28 18 40 24 15 26 15 40 -6 28 -41 28 -10
0 36 -26 42 -43 59 -43 40z"/>
<path d="M6874 4165 c-16 -12 -16 -14 -3 -15 9 0 21 -10 28 -22 9 -17 10 -18
5 -3 -4 11 -7 28 -8 38 0 9 -1 17 -1 17 -1 0 -10 -7 -21 -15z"/>
<path d="M6520 4142 c-45 -14 -66 -72 -38 -100 20 -20 73 -14 94 9 20 23 18
23 -30 -1 -26 -13 -30 -13 -47 8 -23 29 -15 51 24 67 29 12 27 27 -3 17z"/>
<path d="M6838 4108 c4 -32 4 -33 -12 -11 -14 18 -19 20 -40 10 -19 -9 -22
-16 -15 -29 15 -29 10 -32 -14 -10 -13 12 -27 19 -30 15 -11 -10 -8 -25 3 -18
5 3 7 0 4 -8 -3 -8 -1 -18 5 -22 6 -3 11 -1 11 5 0 6 4 9 9 6 15 -10 40 5 35
19 -7 18 14 29 31 15 11 -9 16 -7 25 10 8 14 17 19 28 15 13 -5 13 -2 -3 15
-27 30 -42 25 -37 -12z"/>
<path d="M5702 4088 c8 -12 21 -24 28 -26 8 -3 6 5 -6 21 -23 32 -42 36 -22 5z"/>
<path d="M6390 4073 c-28 -10 -50 -36 -50 -59 0 -55 73 -74 109 -28 27 34 26
40 -4 69 -25 26 -30 27 -55 18z m44 -29 c23 -22 20 -41 -8 -59 -47 -31 -89 20
-50 59 8 9 22 16 29 16 7 0 21 -7 29 -16z"/>
<path d="M6686 4062 c-5 -8 -3 -24 5 -38 13 -26 24 -30 34 -14 3 6 1 10 -5 10
-7 0 -9 7 -6 16 3 8 2 12 -3 9 -5 -3 -11 3 -13 12 -3 14 -5 15 -12 5z"/>
<path d="M3645 4030 c3 -5 11 -10 16 -10 6 0 7 5 4 10 -3 6 -11 10 -16 10 -6
0 -7 -4 -4 -10z"/>
<path d="M6625 4031 c-9 -15 17 -62 33 -59 25 5 38 34 23 52 -15 18 -47 21
-56 7z m41 -16 c8 -21 -6 -41 -17 -24 -12 19 -11 39 1 39 6 0 13 -7 16 -15z"/>
<path d="M6260 4000 c-13 -8 -12 -15 9 -55 27 -50 41 -58 33 -18 -4 23 -2 25
14 19 10 -5 28 -10 39 -13 20 -4 20 -4 1 11 -11 9 -23 16 -27 16 -4 0 -9 10
-11 23 -3 24 -33 33 -58 17z m40 -26 c0 -17 -22 -14 -28 4 -2 7 3 12 12 12 9
0 16 -7 16 -16z"/>
<path d="M6560 3988 c1 -19 25 -48 41 -48 12 0 12 2 0 9 -7 5 -10 14 -7 20 4
6 0 11 -9 11 -9 0 -13 5 -10 10 3 6 1 10 -4 10 -6 0 -11 -6 -11 -12z"/>
<path d="M8403 3975 c0 -7 6 -11 14 -8 7 3 13 6 13 8 0 2 -6 5 -13 8 -8 3 -14
-1 -14 -8z"/>
<path d="M6512 3961 c-12 -10 -18 -21 -14 -25 4 -4 -5 -5 -20 -1 -19 5 -29 2
-36 -11 -14 -24 2 -54 29 -54 20 0 23 4 33 53 6 25 26 30 26 6 0 -6 -4 -7 -10
-4 -5 3 -10 2 -10 -4 0 -5 5 -13 10 -16 6 -3 10 -1 10 5 0 6 5 8 10 5 6 -4 9
-1 8 7 -2 7 3 12 10 10 9 -1 8 5 -4 23 -19 30 -16 29 -42 6z m-25 -47 c8 -21
-13 -42 -28 -27 -13 13 -5 43 11 43 6 0 13 -7 17 -16z"/>
<path d="M6146 3868 c5 -46 3 -56 -15 -72 -20 -18 -21 -18 -42 18 -12 20 -23
35 -26 33 -7 -8 39 -77 51 -77 17 0 59 47 52 58 -3 5 3 17 14 27 16 15 22 16
35 5 9 -7 18 -10 22 -6 3 3 4 7 2 9 -2 2 -21 15 -41 30 -53 39 -59 36 -52 -25z
m34 11 c0 -5 -4 -9 -10 -9 -5 0 -10 7 -10 16 0 8 5 12 10 9 6 -3 10 -10 10
-16z"/>
<path d="M6395 3900 c-3 -5 -2 -10 4 -10 5 0 13 -9 16 -21 10 -29 17 -17 9 15
-6 27 -18 33 -29 16z"/>
<path d="M3612 3875 c-10 -17 -13 -18 -22 -5 -7 11 -10 11 -10 2 0 -7 -4 -10
-10 -7 -5 3 -10 -3 -10 -15 0 -11 6 -23 14 -26 8 -3 12 -13 9 -25 -5 -17 -2
-19 20 -14 14 4 28 2 31 -4 4 -6 2 -11 -3 -11 -24 0 -9 -18 17 -22 21 -3 33 2
46 19 14 19 14 23 2 23 -8 0 -16 -3 -19 -7 -2 -5 -2 -2 -1 5 2 7 -4 16 -13 19
-15 6 -14 7 3 14 16 6 14 8 -10 8 -18 1 -26 5 -23 14 2 6 1 21 -3 32 -7 19 -7
19 -18 0z"/>
<path d="M5470 3870 c0 -5 5 -10 10 -10 6 0 10 5 10 10 0 6 -4 10 -10 10 -5 0
-10 -4 -10 -10z"/>
<path d="M6360 3850 c0 -32 -14 -40 -24 -15 -5 15 -36 22 -36 8 1 -5 7 -19 15
-33 10 -18 14 -20 15 -8 0 11 6 15 19 11 11 -3 21 2 24 11 4 9 14 16 23 16 16
0 16 2 -1 20 -25 28 -35 25 -35 -10z"/>
<path d="M6263 3823 c-7 -2 -13 -9 -13 -15 0 -7 5 -6 14 1 10 9 16 8 26 -3 6
-9 9 -20 5 -26 -9 -14 -32 -13 -38 3 -4 9 -6 9 -6 -1 -1 -21 29 -26 47 -8 25
25 -2 63 -35 49z"/>
<path d="M9550 3814 c0 -8 5 -12 10 -9 6 4 8 11 5 16 -9 14 -15 11 -15 -7z"/>
<path d="M3698 3813 c7 -3 16 -2 19 1 4 3 -2 6 -13 5 -11 0 -14 -3 -6 -6z"/>
<path d="M9507 3788 c-14 -8 -16 -13 -6 -24 16 -20 42 -17 62 6 9 11 17 22 17
24 0 8 -57 4 -73 -6z"/>
<path d="M6205 3780 c-6 -10 15 -50 27 -50 14 0 19 20 8 40 -12 22 -25 26 -35
10z m29 -16 c9 -24 2 -26 -12 -4 -7 11 -8 20 -3 20 5 0 12 -7 15 -16z"/>
<path d="M1155 3749 c-4 -6 -13 -8 -21 -5 -11 4 -11 0 2 -19 18 -28 26 -32 18
-10 -4 8 -1 22 6 30 7 8 10 15 7 15 -3 0 -9 -5 -12 -11z"/>
<path d="M6170 3750 c0 -5 5 -10 11 -10 6 0 9 -7 6 -14 -4 -10 -1 -13 9 -9 13
5 13 8 -2 24 -19 22 -24 23 -24 9z"/>
<path d="M1080 3722 c0 -27 -10 -33 -33 -21 -16 9 -17 13 -6 20 11 7 11 9 1 9
-7 0 -15 -6 -18 -13 -3 -8 -16 -12 -33 -9 -23 3 -30 -1 -36 -18 -8 -26 6 -43
30 -38 15 2 24 13 42 47 1 1 7 0 13 -4 9 -6 9 -10 -1 -16 -11 -7 -11 -9 1 -9
9 0 26 7 38 16 13 9 29 13 37 10 12 -4 12 -1 -1 19 -19 30 -34 32 -34 7z m-70
-37 c0 -9 -7 -18 -16 -22 -18 -7 -39 11 -30 26 11 17 46 13 46 -4z"/>
<path d="M901 3678 c0 -7 4 -22 9 -33 7 -17 9 -17 9 -2 1 9 6 17 11 17 6 0 10
7 10 15 0 8 -9 15 -20 15 -11 0 -20 -6 -19 -12z"/>
<path d="M828 3665 c-3 -3 -3 -17 0 -30 4 -25 26 -34 37 -15 3 6 -1 7 -9 4 -9
-3 -16 -2 -16 4 0 6 6 13 13 15 9 4 9 6 -1 6 -7 1 -10 6 -7 11 6 10 -8 14 -17
5z"/>
<path d="M1085 3654 c-18 -19 -20 -38 -3 -27 7 4 20 8 28 8 50 4 51 5 39 18
-17 18 -46 18 -64 1z m35 -4 c0 -5 -4 -10 -10 -10 -5 0 -10 5 -10 10 0 6 5 10
10 10 6 0 10 -4 10 -10z"/>
<path d="M801 3648 c-1 -19 -31 -26 -31 -8 0 6 -4 10 -8 10 -5 0 -6 -15 -3
-32 3 -20 6 -26 9 -15 4 20 38 23 45 5 4 -9 5 -8 6 2 0 8 -4 24 -9 35 -7 17
-9 17 -9 3z"/>
<path d="M1030 3640 c-14 -4 -19 -8 -12 -9 6 -1 12 -6 12 -12 0 -5 -5 -7 -12
-3 -7 4 -8 3 -4 -4 9 -15 43 5 43 24 0 8 -1 14 -1 13 -1 -1 -12 -5 -26 -9z"/>
<path d="M700 3625 c-17 -21 -5 -45 22 -44 l23 2 -22 4 c-13 2 -23 11 -23 19
0 8 10 19 23 24 15 6 17 9 6 9 -9 1 -22 -6 -29 -14z"/>
<path d="M8136 3617 c-26 -19 -27 -19 -41 -1 -11 15 -14 16 -15 4 0 -9 9 -22
20 -30 13 -9 18 -21 14 -35 -5 -21 24 -76 118 -222 36 -56 44 -63 72 -62 47 0
94 -11 107 -27 9 -12 8 -14 -7 -11 -11 1 -25 6 -32 11 -20 12 -74 -3 -68 -20
8 -21 167 -254 173 -254 2 0 11 6 18 14 8 7 34 20 59 27 35 10 46 18 46 34 0
11 11 40 25 64 26 45 32 66 16 56 -15 -8 -25 15 -12 28 18 18 13 24 -19 19
-23 -3 -30 0 -30 12 0 8 -11 18 -24 22 -14 3 -27 12 -30 19 -3 8 -13 11 -24 8
-28 -7 -32 24 -10 65 18 33 18 34 -2 39 -22 6 -26 18 -10 28 16 10 -10 30 -43
32 -17 2 -40 -3 -52 -11 -26 -17 -51 -10 -34 10 16 20 -14 54 -42 47 -15 -4
-18 -2 -13 11 4 10 1 16 -9 16 -9 0 -24 14 -34 30 -9 17 -25 33 -35 36 -10 3
-18 11 -18 17 0 7 -8 20 -18 28 -17 15 -21 14 -46 -4z m179 -199 c26 -12 29
-17 25 -58 -2 -30 -29 -84 -37 -76 -3 3 -1 12 5 19 12 14 14 87 3 87 -3 0 -17
9 -31 20 -20 15 -21 20 -8 20 9 0 29 -5 43 -12z m-15 -39 c0 -6 -7 -8 -16 -5
-8 3 -24 1 -35 -4 -12 -7 -19 -7 -19 -1 0 5 8 12 18 14 32 9 52 7 52 -4z m154
-67 c3 -5 -1 -9 -9 -9 -8 0 -12 4 -9 9 3 4 7 8 9 8 2 0 6 -4 9 -8z m76 -82 c0
-5 -4 -10 -10 -10 -5 0 -10 5 -10 10 0 6 5 10 10 10 6 0 10 -4 10 -10z m-40
-15 c9 -11 10 -19 2 -27 -13 -13 -28 -4 -35 22 -6 24 15 27 33 5z m74 -19 c10
4 18 0 22 -10 3 -9 12 -16 20 -16 23 0 16 -14 -13 -27 -36 -17 -42 -16 -36 6
7 26 -15 37 -31 15 -16 -21 -27 -6 -19 24 4 17 9 20 23 12 10 -6 26 -7 34 -4z"/>
<path d="M954 3618 c-3 -5 -9 -6 -14 -3 -13 8 -20 -9 -9 -25 6 -11 9 -12 9 -2
0 7 5 10 12 6 6 -4 8 -3 4 4 -3 6 -2 13 4 17 5 3 10 -1 10 -9 0 -9 6 -13 14
-10 8 3 13 11 10 18 -6 14 -32 17 -40 4z"/>
<path d="M621 3606 c-20 -24 -6 -48 26 -44 22 2 28 8 28 28 0 30 -35 40 -54
16z m49 -10 c0 -19 -17 -29 -37 -22 -12 5 -13 9 -3 21 16 19 40 19 40 1z"/>
<path d="M900 3605 c0 -6 -9 -12 -20 -13 -45 -4 -50 -6 -50 -19 0 -7 5 -13 10
-13 6 0 10 5 10 11 0 7 9 9 23 6 30 -8 49 4 37 23 -6 8 -10 10 -10 5z"/>
<path d="M8240 3595 c0 -8 2 -15 4 -15 2 0 6 7 10 15 3 8 1 15 -4 15 -6 0 -10
-7 -10 -15z"/>
<path d="M8555 3600 c3 -5 8 -10 11 -10 2 0 4 5 4 10 0 6 -5 10 -11 10 -5 0
-7 -4 -4 -10z"/>
<path d="M560 3571 c0 -17 5 -31 11 -31 5 0 7 5 3 12 -5 7 0 9 14 6 17 -5 19
-3 13 16 -5 11 -16 22 -25 24 -12 3 -16 -4 -16 -27z m30 15 c0 -3 -4 -8 -10
-11 -5 -3 -10 -1 -10 4 0 6 5 11 10 11 6 0 10 -2 10 -4z"/>
<path d="M494 3552 c-8 -39 -44 -52 -44 -16 0 13 -5 24 -11 24 -6 0 -8 -7 -5
-16 3 -9 6 -22 6 -30 0 -19 39 -10 57 13 7 9 19 13 28 10 21 -9 19 6 -5 28
-19 18 -20 17 -26 -13z"/>
<path d="M795 3569 c-9 -14 -2 -20 14 -10 8 6 9 11 3 15 -6 3 -14 1 -17 -5z"/>
<path d="M9913 3573 c-7 -2 -13 -12 -13 -20 0 -10 6 -13 16 -9 9 3 19 6 24 6
4 0 10 7 14 15 5 15 -15 19 -41 8z"/>
<path d="M729 3543 c0 -11 -3 -13 -6 -5 -6 16 -23 15 -23 -2 0 -20 34 -13 38
7 2 10 1 17 -2 17 -3 0 -6 -8 -7 -17z"/>
<path d="M632 3520 c0 -14 2 -19 5 -12 2 6 2 18 0 25 -3 6 -5 1 -5 -13z"/>
<path d="M673 3525 c0 -8 4 -12 9 -9 5 3 6 10 3 15 -9 13 -12 11 -12 -6z"/>
<path d="M600 3516 c0 -9 -4 -16 -10 -16 -5 0 -10 4 -10 9 0 4 -12 6 -26 3
-18 -3 -22 -7 -13 -13 8 -4 10 -11 6 -15 -4 -4 -13 -2 -19 4 -17 17 -25 15
-31 -8 -4 -17 -1 -19 21 -14 15 4 32 10 37 14 6 4 22 10 38 14 28 7 35 20 17
31 -5 3 -10 -1 -10 -9z"/>
<path d="M4797 3510 c3 -11 7 -20 9 -20 2 0 4 9 4 20 0 11 -4 20 -9 20 -5 0
-7 -9 -4 -20z"/>
<path d="M6605 3520 c3 -5 11 -10 16 -10 6 0 7 5 4 10 -3 6 -11 10 -16 10 -6
0 -7 -4 -4 -10z"/>
<path d="M477 3483 c-4 -3 -7 -13 -7 -22 1 -13 3 -13 11 2 11 19 8 33 -4 20z"/>
<path d="M8385 3470 c3 -5 8 -10 11 -10 2 0 4 5 4 10 0 6 -5 10 -11 10 -5 0
-7 -4 -4 -10z"/>
<path d="M4726 3349 c-8 -42 0 -50 9 -9 4 17 5 34 2 36 -2 3 -7 -10 -11 -27z"/>
<path d="M3642 3340 c0 -19 2 -27 5 -17 2 9 2 25 0 35 -3 9 -5 1 -5 -18z"/>
<path d="M4781 3354 c0 -11 3 -14 6 -6 3 7 2 16 -1 19 -3 4 -6 -2 -5 -13z"/>
<path d="M1000 3327 c0 -9 -8 -21 -17 -26 -10 -6 -13 -10 -8 -10 6 0 19 6 29
14 16 12 17 18 8 27 -9 9 -12 8 -12 -5z"/>
<path d="M4240 3310 c0 -12 -5 -31 -11 -42 -7 -13 -7 -18 -1 -14 15 9 42 -21
42 -46 0 -25 13 -16 15 10 11 112 12 107 -17 110 -23 3 -28 -1 -28 -18z"/>
<path d="M951 3304 c0 -11 3 -14 6 -6 3 7 2 16 -1 19 -3 4 -6 -2 -5 -13z"/>
<path d="M900 3300 c-8 -5 -11 -12 -7 -16 4 -4 13 -2 19 4 15 15 7 24 -12 12z"/>
<path d="M850 3288 c0 -5 -6 -6 -12 -2 -8 5 -7 1 2 -10 8 -11 16 -14 18 -7 2
6 7 9 11 7 4 -3 8 1 8 8 0 7 -6 13 -14 13 -7 0 -13 -4 -13 -9z"/>
<path d="M512 3264 c-11 -7 -22 -10 -26 -7 -3 3 -6 2 -6 -4 0 -19 28 -23 33
-5 4 16 5 15 6 0 0 -10 5 -18 10 -18 6 0 8 9 6 20 -2 11 0 20 6 20 5 0 9 -4 9
-8 0 -5 7 -9 15 -9 8 0 15 6 15 12 0 17 -44 16 -68 -1z"/>
<path d="M2745 3260 c-7 -11 22 -26 32 -16 4 3 -2 6 -13 7 -18 0 -18 1 1 9 16
7 17 9 3 9 -9 1 -20 -4 -23 -9z"/>
<path d="M4401 3254 c0 -11 3 -14 6 -6 3 7 2 16 -1 19 -3 4 -6 -2 -5 -13z"/>
<path d="M2690 3250 c0 -5 5 -10 11 -10 5 0 7 5 4 10 -3 6 -8 10 -11 10 -2 0
-4 -4 -4 -10z"/>
<path d="M2717 3246 c-4 -10 -5 -21 -2 -24 9 -9 17 6 13 25 -3 17 -4 17 -11
-1z"/>
<path d="M8602 3253 c-6 -2 -10 -9 -7 -13 7 -11 35 -2 35 11 0 10 -8 10 -28 2z"/>
<path d="M2560 3228 c0 -17 6 -23 24 -24 21 -2 23 1 17 20 -12 30 -41 34 -41
4z m30 8 c0 -3 -4 -8 -10 -11 -5 -3 -10 -1 -10 4 0 6 5 11 10 11 6 0 10 -2 10
-4z"/>
<path d="M2610 3240 c0 -8 5 -22 10 -30 9 -13 10 -13 10 0 0 8 -5 22 -10 30
-9 13 -10 13 -10 0z"/>
<path d="M2647 3243 c-13 -13 -7 -29 12 -29 16 0 17 4 10 18 -11 20 -13 21
-22 11z"/>
<path d="M650 3226 c0 -9 5 -16 10 -16 6 0 10 4 10 9 0 6 -4 13 -10 16 -5 3
-10 -1 -10 -9z"/>
<path d="M2520 3215 c0 -17 5 -25 18 -25 14 0 15 2 2 10 -13 9 -13 10 0 10 12
0 13 2 1 9 -11 7 -11 9 0 14 10 4 9 6 -3 6 -13 1 -18 -7 -18 -24z"/>
<path d="M2400 3220 c-13 -8 -12 -10 3 -10 9 0 17 5 17 10 0 12 -1 12 -20 0z"/>
<path d="M2433 3214 c-8 -21 13 -42 28 -27 13 13 5 43 -11 43 -6 0 -13 -7 -17
-16z m27 -9 c0 -8 -4 -15 -10 -15 -5 0 -10 7 -10 15 0 8 5 15 10 15 6 0 10 -7
10 -15z"/>
<path d="M2482 3210 c0 -14 2 -19 5 -12 2 6 2 18 0 25 -3 6 -5 1 -5 -13z"/>
<path d="M2758 3223 c7 -3 16 -2 19 1 4 3 -2 6 -13 5 -11 0 -14 -3 -6 -6z"/>
<path d="M560 3206 c0 -8 4 -18 10 -21 6 -4 7 1 3 11 -4 11 -3 15 5 10 6 -3
13 -2 17 4 3 5 -3 10 -14 10 -12 0 -21 -6 -21 -14z"/>
<path d="M4184 3181 c7 -51 10 -56 23 -39 8 9 5 23 -9 48 l-19 35 5 -44z"/>
<path d="M514 3195 c-16 -8 -19 -15 -13 -30 4 -11 8 -15 8 -8 1 6 12 13 25 15
21 2 23 6 13 19 -9 12 -17 13 -33 4z"/>
<path d="M2891 3163 c2 -32 3 -33 6 -10 4 25 7 27 21 15 12 -9 12 -7 -2 10
-11 12 -21 22 -23 22 -1 0 -2 -17 -2 -37z"/>
<path d="M3642 3175 c0 -16 2 -22 5 -12 2 9 2 23 0 30 -3 6 -5 -1 -5 -18z"/>
<path d="M2778 3165 c11 -16 22 -39 25 -50 4 -18 5 -17 6 3 0 13 6 33 12 45
10 21 9 21 -5 3 -15 -18 -16 -18 -37 5 l-21 24 20 -30z"/>
<path d="M2857 3155 c3 -22 7 -42 9 -44 8 -9 2 45 -6 64 -7 14 -8 8 -3 -20z"/>
<path d="M2691 3158 c1 -13 4 -34 8 -48 l7 -25 6 28 c3 15 1 27 -3 27 -14 0
-11 28 4 33 7 3 5 6 -5 6 -12 1 -18 -6 -17 -21z"/>
<path d="M4260 3160 c0 -11 5 -20 11 -20 5 0 8 4 5 9 -4 5 -1 11 6 13 8 3 6 7
-5 11 -12 5 -17 1 -17 -13z"/>
<path d="M2566 3162 c-3 -4 8 -6 25 -4 21 3 29 0 29 -11 0 -8 -5 -17 -11 -19
-6 -2 0 -12 12 -23 13 -11 18 -13 13 -5 -5 8 -9 26 -9 40 0 20 -6 26 -27 28
-14 2 -29 -1 -32 -6z"/>
<path d="M2663 3130 c0 -25 2 -35 4 -22 2 12 2 32 0 45 -2 12 -4 2 -4 -23z"/>
<path d="M2535 3131 c3 -19 0 -40 -6 -47 -8 -10 -8 -14 0 -14 16 0 23 42 11
70 -10 23 -10 22 -5 -9z"/>
<path d="M2417 3144 c-4 -4 -7 -23 -7 -43 0 -20 4 -31 8 -26 4 6 16 15 27 21
26 15 26 48 0 52 -12 2 -24 0 -28 -4z m38 -24 c0 -8 -8 -16 -17 -18 -13 -2
-18 3 -18 18 0 15 5 20 18 18 9 -2 17 -10 17 -18z"/>
<path d="M2482 3120 c0 -19 2 -27 5 -17 2 9 2 25 0 35 -3 9 -5 1 -5 -18z"/>
<path d="M2961 3142 c-1 -8 -6 -10 -13 -6 -10 5 -10 4 -1 -6 15 -16 28 -8 20
12 -4 11 -6 11 -6 0z"/>
<path d="M1154 3132 c-13 -8 -7 -72 7 -72 5 0 9 7 9 15 0 17 16 20 25 5 11
-18 26 -11 16 8 -5 9 -12 25 -15 35 -6 18 -23 22 -42 9z m26 -12 c0 -5 -5 -10
-11 -10 -5 0 -7 5 -4 10 3 6 8 10 11 10 2 0 4 -4 4 -10z"/>
<path d="M4649 3128 c-5 -47 -7 -58 -12 -71 -3 -8 0 -23 8 -33 12 -17 14 -13
29 36 9 29 16 60 16 67 0 17 -40 17 -41 1z"/>
<path d="M2570 3106 c0 -31 6 -34 13 -6 3 11 1 23 -4 26 -5 3 -9 -6 -9 -20z"/>
<path d="M4160 3121 c0 -20 23 -71 32 -71 6 0 8 7 4 15 -3 8 -1 15 3 15 5 0
12 -6 14 -12 3 -7 6 3 6 23 1 33 -1 36 -29 37 -16 0 -30 -3 -30 -7z"/>
<path d="M1077 3113 c-12 -21 -18 -73 -8 -73 6 0 11 5 11 11 0 7 11 9 30 6 36
-8 36 -5 8 33 -22 30 -33 36 -41 23z m23 -33 c0 -5 -4 -10 -10 -10 -5 0 -10 5
-10 10 0 6 5 10 10 10 6 0 10 -4 10 -10z"/>
<path d="M4136 3095 c-3 -9 0 -15 9 -15 9 0 12 6 9 15 -4 8 -7 15 -9 15 -2 0
-5 -7 -9 -15z"/>
<path d="M989 3095 c-3 -2 -3 -21 -1 -40 3 -27 8 -35 19 -31 8 3 21 6 29 6 8
0 14 4 14 9 0 5 -9 7 -20 4 -15 -4 -20 0 -20 13 0 22 -14 47 -21 39z"/>
<path d="M910 3065 c-19 -23 -8 -50 24 -53 16 -2 33 1 39 7 7 7 1 10 -19 8
-39 -3 -45 27 -7 41 l28 10 -26 1 c-15 1 -32 -6 -39 -14z"/>
<path d="M2870 3048 l0 -32 -32 30 -33 29 34 -38 c19 -20 35 -37 36 -37 1 0 2
18 3 40 2 22 0 40 -3 40 -3 0 -5 -14 -5 -32z"/>
<path d="M2721 3044 c-6 -15 -9 -29 -6 -32 3 -3 5 0 5 7 0 7 5 9 10 6 6 -4 10
5 10 19 0 33 -4 33 -19 0z"/>
<path d="M836 3048 c-3 -7 -7 -28 -10 -47 -6 -33 -6 -34 13 -17 13 11 27 15
40 11 27 -8 26 -1 -1 35 -23 32 -36 37 -42 18z m29 -28 c3 -5 1 -10 -4 -10 -6
0 -11 5 -11 10 0 6 2 10 4 10 3 0 8 -4 11 -10z"/>
<path d="M2662 3014 c1 -37 2 -41 5 -16 3 22 8 30 16 25 7 -4 5 2 -3 13 -8 10
-16 21 -17 23 -2 2 -2 -18 -1 -45z"/>
<path d="M2773 3025 c0 -22 2 -30 4 -17 2 12 2 30 0 40 -3 9 -5 -1 -4 -23z"/>
<path d="M2901 3044 c0 -11 3 -14 6 -6 3 7 2 16 -1 19 -3 4 -6 -2 -5 -13z"/>
<path d="M2499 3033 c-12 -16 -12 -17 2 -5 9 7 25 10 35 6 16 -5 16 -4 4 5
-20 15 -25 14 -41 -6z"/>
<path d="M2595 3039 c-4 -6 -5 -12 -2 -15 2 -3 7 2 10 11 7 17 1 20 -8 4z"/>
<path d="M773 3033 c-15 -6 -18 -73 -3 -73 6 0 10 7 10 15 0 7 8 19 18 24 16
10 15 10 -3 11 -20 1 -20 1 -1 15 20 15 7 20 -21 8z"/>
<path d="M2448 3033 c7 -3 16 -2 19 1 4 3 -2 6 -13 5 -11 0 -14 -3 -6 -6z"/>
<path d="M4225 3029 c-11 -16 -1 -19 13 -3 7 8 8 14 3 14 -5 0 -13 -5 -16 -11z"/>
<path d="M2421 3014 c0 -11 3 -14 6 -6 3 7 2 16 -1 19 -3 4 -6 -2 -5 -13z"/>
<path d="M2617 3013 c5 -13 2 -15 -14 -11 -15 4 -23 0 -26 -13 -4 -15 -2 -16
14 -6 15 9 24 9 39 -1 20 -12 21 -12 5 18 -17 32 -29 41 -18 13z"/>
<path d="M2812 3010 c0 -14 2 -19 5 -12 2 6 2 18 0 25 -3 6 -5 1 -5 -13z"/>
<path d="M2966 3015 c-3 -8 -1 -15 4 -15 6 0 10 7 10 15 0 8 -2 15 -4 15 -2 0
-6 -7 -10 -15z"/>
<path d="M4730 3020 c0 -5 5 -10 11 -10 5 0 7 5 4 10 -3 6 -8 10 -11 10 -2 0
-4 -4 -4 -10z"/>
<path d="M702 3012 c-8 -6 -10 -19 -6 -40 7 -32 24 -45 24 -17 0 7 8 19 18 24
15 9 14 10 -7 11 -24 0 -24 0 -5 15 14 11 15 14 4 15 -8 0 -21 -4 -28 -8z"/>
<path d="M2550 2996 c0 -28 -26 -41 -49 -24 -15 11 -15 10 0 -6 22 -24 59 -6
59 29 0 14 -2 25 -5 25 -3 0 -5 -11 -5 -24z"/>
<path d="M2917 3009 c7 -7 15 -10 18 -7 3 3 -2 9 -12 12 -14 6 -15 5 -6 -5z"/>
<path d="M4376 3003 c-6 -14 -5 -15 5 -6 7 7 10 15 7 18 -3 3 -9 -2 -12 -12z"/>
<path d="M2741 2994 c0 -11 3 -14 6 -6 3 7 2 16 -1 19 -3 4 -6 -2 -5 -13z"/>
<path d="M4245 2999 c-4 -6 -5 -12 -2 -15 2 -3 7 2 10 11 7 17 1 20 -8 4z"/>
<path d="M643 2993 c-14 -5 -18 -69 -5 -76 4 -3 18 0 32 6 l25 10 -23 5 c-22
3 -23 4 -5 17 17 14 17 14 -1 15 -20 0 -20 0 0 15 14 11 15 14 4 14 -8 0 -21
-3 -27 -6z"/>
<path d="M2448 2993 c7 -3 16 -2 19 1 4 3 -2 6 -13 5 -11 0 -14 -3 -6 -6z"/>
<path d="M4628 2988 c-3 -7 -1 -24 3 -38 4 -14 7 -19 8 -11 1 11 5 10 17 -5 8
-10 12 -13 9 -6 -4 7 1 23 12 34 16 20 17 21 1 15 -12 -4 -18 -1 -18 8 0 18
-26 20 -32 3z"/>
<path d="M3001 2938 c1 -24 3 -35 6 -25 2 9 9 17 15 17 6 0 20 -8 31 -17 14
-13 18 -13 11 -3 -5 8 -9 26 -9 40 0 20 -6 26 -27 28 -27 3 -28 2 -27 -40z
m49 17 c0 -8 -9 -15 -20 -15 -11 0 -20 7 -20 15 0 8 9 15 20 15 11 0 20 -7 20
-15z"/>
<path d="M2833 2954 c-6 -16 12 -34 32 -34 6 1 2 5 -7 11 -26 15 -22 27 10 32
l27 4 -28 2 c-17 0 -30 -5 -34 -15z"/>
<path d="M2924 2931 c1 -30 6 -46 16 -48 10 -3 11 -2 3 4 -6 4 -13 26 -16 48
-4 40 -4 40 -3 -4z"/>
<path d="M4734 2945 c8 -8 18 -15 22 -15 3 0 1 7 -6 15 -7 8 -17 15 -22 15 -5
0 -3 -7 6 -15z"/>
<path d="M2666 2934 c-4 -9 -4 -19 -1 -22 3 -3 5 0 5 7 0 7 4 9 10 6 6 -3 7 1
4 9 -8 20 -10 20 -18 0z"/>
<path d="M2730 2920 c0 -16 2 -30 4 -30 2 0 6 14 8 30 3 17 1 30 -4 30 -4 0
-8 -13 -8 -30z"/>
<path d="M2570 2931 c0 -4 11 -6 25 -3 14 2 25 6 25 8 0 2 -11 4 -25 4 -14 0
-25 -4 -25 -9z"/>
<path d="M2801 2916 l-1 -29 -27 24 c-26 22 -26 21 2 -9 28 -31 30 -32 33 -13
2 12 1 29 -1 39 -3 10 -5 4 -6 -12z"/>
<path d="M2448 2919 c-10 -5 -18 -15 -18 -22 0 -8 3 -9 8 -1 4 6 16 16 27 22
11 6 16 11 10 11 -5 0 -18 -4 -27 -10z"/>
<path d="M2501 2914 c0 -11 3 -14 6 -6 3 7 2 16 -1 19 -3 4 -6 -2 -5 -13z"/>
<path d="M2886 2906 c4 -11 -2 -19 -17 -25 -13 -5 -19 -10 -12 -10 34 -2 58
29 33 44 -6 3 -7 -1 -4 -9z"/>
<path d="M2570 2879 c0 -26 3 -29 33 -28 30 2 30 2 5 6 -34 5 -37 30 -5 35 20
3 20 4 -5 9 -25 6 -28 4 -28 -22z"/>
<path d="M2690 2899 c0 -6 -9 -9 -20 -6 -11 3 -20 1 -20 -4 0 -5 13 -8 29 -7
19 1 27 7 24 15 -6 16 -13 17 -13 2z"/>
<path d="M4631 2896 c-7 -9 -17 -62 -22 -125 -5 -60 -17 -133 -26 -163 -16
-47 -21 -53 -45 -53 -37 1 -36 -11 1 -18 20 -4 31 -14 35 -31 6 -23 -4 -173
-19 -308 -5 -39 -3 -48 10 -48 8 0 15 1 15 3 0 1 7 58 15 127 19 157 19 220 1
245 -12 18 -12 23 4 43 10 12 24 22 30 22 8 0 10 8 7 21 -7 27 14 169 25 169
11 0 10 28 -1 32 -5 2 -7 15 -4 30 3 15 9 25 14 22 5 -3 9 2 9 10 0 9 -6 16
-14 16 -8 0 -16 5 -18 11 -2 7 -9 5 -17 -5z"/>
<path d="M3576 2822 c-4 -40 -5 -76 -2 -79 3 -4 6 10 6 30 0 19 3 37 8 39 4 2
5 21 2 43 -5 36 -7 33 -14 -33z"/>
<path d="M2430 2866 c0 -8 4 -17 9 -20 5 -4 7 3 4 14 -6 23 -13 26 -13 6z"/>
<path d="M2510 2849 c0 -5 9 -9 20 -9 11 0 20 2 20 4 0 2 -9 6 -20 9 -11 3
-20 1 -20 -4z"/>
<path d="M8591 2844 c0 -11 3 -14 6 -6 3 7 2 16 -1 19 -3 4 -6 -2 -5 -13z"/>
<path d="M2470 2840 c-13 -8 -12 -10 3 -10 9 0 17 5 17 10 0 12 -1 12 -20 0z"/>
<path d="M4731 2824 c0 -11 3 -14 6 -6 3 7 2 16 -1 19 -3 4 -6 -2 -5 -13z"/>
<path d="M8210 2798 c-12 -22 -12 -22 6 -6 10 10 15 20 12 24 -4 3 -12 -5 -18
-18z"/>
<path d="M8267 2803 c-4 -3 -7 -13 -7 -22 1 -13 3 -13 11 2 11 19 8 33 -4 20z"/>
<path d="M2695 2791 c-3 -5 0 -13 6 -17 7 -4 9 -3 5 4 -3 5 0 13 6 15 9 4 10
6 1 6 -6 1 -14 -3 -18 -8z"/>
<path d="M2585 2779 c-4 -6 -5 -12 -2 -15 2 -3 7 2 10 11 7 17 1 20 -8 4z"/>
<path d="M2469 2763 c-13 -17 -12 -17 4 -4 16 13 20 13 28 0 7 -11 9 -11 9 4
0 9 -6 17 -14 17 -7 0 -20 -8 -27 -17z"/>
<path d="M1140 2752 c0 -12 4 -22 9 -22 10 0 9 26 -2 36 -4 4 -7 -2 -7 -14z"/>
<path d="M1095 2749 c-4 -6 -5 -12 -2 -15 2 -3 7 2 10 11 7 17 1 20 -8 4z"/>
<path d="M8246 2734 c-4 -14 -5 -29 -2 -31 3 -3 8 7 12 21 3 15 4 29 1 32 -2
3 -8 -7 -11 -22z"/>
<path d="M8370 2747 c0 -13 31 -47 42 -47 4 0 1 14 -5 30 -11 30 -37 42 -37
17z"/>
<path d="M1043 2743 c12 -3 16 -10 12 -21 -5 -13 -3 -14 6 -5 14 14 3 33 -19
32 -15 -1 -14 -2 1 -6z"/>
<path d="M1000 2720 c0 -11 4 -20 8 -20 4 0 8 9 8 20 0 11 -4 20 -8 20 -4 0
-8 -9 -8 -20z"/>
<path d="M2887 2727 c-3 -8 1 -14 8 -14 7 0 11 6 8 14 -3 7 -6 13 -8 13 -2 0
-5 -6 -8 -13z"/>
<path d="M967 2713 c6 -15 4 -16 -9 -5 -13 10 -17 10 -22 -4 -9 -24 -8 -24 18
-14 13 5 26 6 29 3 3 -3 3 4 0 16 -3 12 -9 21 -14 21 -5 0 -5 -8 -2 -17z"/>
<path d="M3555 2655 c-4 -42 -5 -79 -2 -81 2 -3 8 29 12 71 4 42 5 79 2 81 -2
3 -8 -29 -12 -71z"/>
<path d="M890 2700 c0 -5 7 -7 15 -4 8 4 15 8 15 10 0 2 -7 4 -15 4 -8 0 -15
-4 -15 -10z"/>
<path d="M2535 2701 c-6 -11 13 -26 22 -17 4 3 1 6 -6 6 -7 0 -9 5 -6 10 3 6
4 10 1 10 -3 0 -7 -4 -11 -9z"/>
<path d="M853 2692 c-15 -2 -23 -10 -23 -23 0 -10 -4 -19 -10 -19 -5 0 -7 7
-4 15 7 18 3 19 -31 3 -15 -6 -25 -19 -25 -32 0 -20 0 -20 15 0 8 10 15 14 15
7 0 -9 8 -9 33 -1 56 19 79 57 30 50z m7 -22 c0 -5 -4 -10 -10 -10 -5 0 -10 5
-10 10 0 6 5 10 10 10 6 0 10 -4 10 -10z"/>
<path d="M1090 2680 c0 -25 -17 -26 -23 -2 -4 13 -5 11 -6 -5 -1 -25 18 -30
37 -11 15 15 16 38 2 38 -5 0 -10 -9 -10 -20z"/>
<path d="M8763 2654 c-24 -23 -43 -48 -43 -54 0 -15 50 -100 59 -100 3 0 6 36
5 80 -1 67 1 78 13 68 10 -8 11 -13 3 -18 -9 -5 -7 -16 4 -39 9 -17 14 -36 11
-41 -3 -6 -1 -10 4 -10 6 0 11 7 11 15 0 21 13 19 28 -5 7 -12 17 -18 23 -14
6 4 4 15 -6 30 -11 18 -13 29 -6 42 10 16 10 15 11 -3 1 -11 4 -15 6 -9 8 18
-15 64 -31 64 -9 0 -18 6 -21 14 -11 28 -30 23 -71 -20z"/>
<path d="M1025 2670 c-3 -5 1 -10 10 -10 9 0 13 5 10 10 -3 6 -8 10 -10 10 -2
0 -7 -4 -10 -10z"/>
<path d="M979 2653 c0 -11 -3 -13 -6 -5 -7 17 -23 15 -23 -3 0 -17 26 -20 35
-5 4 6 16 8 28 4 26 -8 21 -2 -10 15 -20 10 -23 9 -24 -6z"/>
<path d="M9010 2661 c0 -3 7 -14 14 -24 13 -17 14 -16 12 6 0 13 -7 24 -13 24
-7 0 -13 -3 -13 -6z"/>
<path d="M8618 2648 c6 -6 18 -8 28 -6 14 3 12 5 -9 10 -19 3 -25 2 -19 -4z"/>
<path d="M913 2636 c4 -10 7 -20 7 -22 0 -2 4 -4 9 -4 14 0 6 33 -9 38 -9 3
-11 -1 -7 -12z"/>
<path d="M9066 2607 c3 -8 12 -14 19 -13 18 3 32 16 17 16 -5 0 -18 3 -26 6
-12 4 -15 2 -10 -9z"/>
<path d="M850 2600 c0 -6 7 -10 15 -10 8 0 15 2 15 4 0 2 -7 6 -15 10 -8 3
-15 1 -15 -4z"/>
<path d="M1125 2600 c-3 -6 1 -7 9 -4 18 7 21 14 7 14 -6 0 -13 -4 -16 -10z"/>
<path d="M8013 2590 c-18 -11 -33 -22 -33 -25 0 -11 62 -115 69 -115 16 0 20
13 10 32 -17 31 2 42 45 27 42 -15 61 -3 29 18 -13 9 -23 25 -23 37 0 48 -43
59 -97 26z m67 -25 c0 -17 -36 -39 -50 -30 -14 9 -12 32 3 38 24 10 47 7 47
-8z"/>
<path d="M8297 2596 c-4 -9 -1 -16 6 -17 101 -4 127 -3 127 8 0 8 -17 11 -57
8 -34 -3 -60 -1 -64 6 -4 7 -8 5 -12 -5z"/>
<path d="M1030 2580 c0 -5 5 -10 10 -10 6 0 10 5 10 10 0 6 -4 10 -10 10 -5 0
-10 -4 -10 -10z"/>
<path d="M971 2564 c0 -11 3 -14 6 -6 3 7 2 16 -1 19 -3 4 -6 -2 -5 -13z"/>
<path d="M990 2568 c0 -4 4 -8 9 -8 6 0 12 4 15 8 3 5 -1 9 -9 9 -8 0 -15 -4
-15 -9z"/>
<path d="M1164 2554 c-18 -14 -18 -15 4 -4 12 6 22 13 22 15 0 8 -5 6 -26 -11z"/>
<path d="M920 2552 c0 -5 7 -9 15 -9 8 0 15 4 15 9 0 4 -7 8 -15 8 -8 0 -15
-4 -15 -8z"/>
<path d="M1120 2549 c0 -5 5 -7 10 -4 6 3 10 8 10 11 0 2 -4 4 -10 4 -5 0 -10
-5 -10 -11z"/>
<path d="M3535 2485 c-4 -42 -5 -79 -2 -81 2 -3 8 29 12 71 4 42 5 79 2 81 -2
3 -8 -29 -12 -71z"/>
<path d="M4448 2553 c6 -2 18 -2 25 0 6 3 1 5 -13 5 -14 0 -19 -2 -12 -5z"/>
<path d="M862 2540 c-12 -5 -29 -7 -37 -4 -8 4 -15 1 -15 -6 0 -6 4 -9 9 -6 5
4 11 0 14 -6 3 -10 8 -9 22 2 14 11 19 12 22 3 4 -10 8 -9 19 1 26 27 11 34
-34 16z"/>
<path d="M1086 2538 c3 -5 10 -6 15 -3 13 9 11 12 -6 12 -8 0 -12 -4 -9 -9z"/>
<path d="M1035 2530 c-19 -8 -19 -9 3 -9 12 -1 22 4 22 9 0 6 -1 10 -2 9 -2 0
-12 -4 -23 -9z"/>
<path d="M8330 2530 c0 -5 5 -10 10 -10 6 0 10 5 10 10 0 6 -4 10 -10 10 -5 0
-10 -4 -10 -10z"/>
<path d="M7895 2520 c-4 -7 -4 -40 -1 -74 l7 -62 -36 -17 -35 -17 -31 50 c-30
49 -39 57 -52 43 -8 -7 36 -88 62 -115 15 -15 19 -14 69 19 29 20 52 43 52 52
0 23 43 44 59 28 8 -8 14 -8 21 -1 8 8 -4 23 -37 49 -72 58 -71 57 -78 45z
m52 -63 c-6 -20 -27 -19 -27 2 0 14 5 19 15 14 9 -3 14 -10 12 -16z"/>
<path d="M974 2513 c10 -11 37 -12 30 -2 -3 5 -12 9 -21 9 -9 0 -13 -3 -9 -7z"/>
<path d="M8410 2500 c0 -13 11 -13 30 0 12 8 11 10 -7 10 -13 0 -23 -4 -23
-10z"/>
<path d="M869 2484 c-7 -8 -6 -15 2 -20 8 -5 9 -3 4 5 -5 9 -1 12 11 11 32 -4
54 0 54 8 0 12 -60 9 -71 -4z"/>
<path d="M8448 2483 c6 -2 18 -2 25 0 6 3 1 5 -13 5 -14 0 -19 -2 -12 -5z"/>
<path d="M8880 2480 c0 -5 4 -10 9 -10 6 0 13 5 16 10 3 6 -1 10 -9 10 -9 0
-16 -4 -16 -10z"/>
<path d="M803 2466 c-23 -8 -45 -11 -48 -8 -3 3 -5 -6 -4 -19 0 -13 3 -18 6
-11 2 6 9 10 13 7 13 -8 61 6 54 16 -3 5 2 6 10 3 11 -4 16 0 16 10 0 9 -1 16
-2 15 -2 0 -22 -6 -45 -13z"/>
<path d="M8854 2449 c-3 -6 -2 -15 4 -21 6 -6 11 -2 15 11 5 22 -7 29 -19 10z"/>
<path d="M3326 2422 c-2 -4 4 -8 14 -8 10 0 16 4 14 8 -3 4 -9 8 -14 8 -5 0
-11 -4 -14 -8z"/>
<path d="M940 2410 c0 -5 5 -10 10 -10 6 0 10 5 10 10 0 6 -4 10 -10 10 -5 0
-10 -4 -10 -10z"/>
<path d="M7673 2400 c-40 -24 -50 -58 -29 -98 24 -46 76 -57 116 -24 32 26 18
47 -16 25 -51 -33 -102 28 -58 71 8 9 20 16 25 16 5 0 9 7 9 15 0 20 -8 19
-47 -5z"/>
<path d="M915 2400 c3 -5 8 -10 11 -10 2 0 4 5 4 10 0 6 -5 10 -11 10 -5 0 -7
-4 -4 -10z"/>
<path d="M6656 2397 c3 -10 9 -15 12 -12 3 3 0 11 -7 18 -10 9 -11 8 -5 -6z"/>
<path d="M845 2392 c-14 -10 -17 -32 -5 -32 6 0 10 7 10 15 0 18 11 19 29 3
11 -11 13 -10 9 2 -5 17 -28 24 -43 12z"/>
<path d="M1047 2393 c-10 -9 -9 -23 1 -23 5 0 9 7 9 15 0 17 -1 18 -10 8z"/>
<path d="M8900 2390 c8 -5 20 -10 25 -10 6 0 3 5 -5 10 -8 5 -19 10 -25 10 -5
0 -3 -5 5 -10z"/>
<path d="M8850 2381 c0 -13 69 -137 93 -166 4 -5 14 -19 22 -30 14 -19 14 -19
15 10 0 19 -3 25 -8 17 -6 -9 -12 -6 -21 12 -8 13 -10 29 -6 35 4 7 1 10 -7 9
-7 -2 -12 5 -12 14 1 10 -2 15 -7 13 -4 -3 -22 18 -39 47 -16 29 -30 47 -30
39z"/>
<path d="M985 2369 c-4 -6 -5 -12 -2 -15 2 -3 7 2 10 11 7 17 1 20 -8 4z"/>
<path d="M1010 2369 c0 -5 5 -7 10 -4 6 3 10 8 10 11 0 2 -4 4 -10 4 -5 0 -10
-5 -10 -11z"/>
<path d="M8970 2340 c0 -31 3 -38 15 -34 9 4 15 19 15 40 0 24 -5 34 -15 34
-11 0 -15 -11 -15 -40z"/>
<path d="M9011 2364 c0 -11 3 -14 6 -6 3 7 2 16 -1 19 -3 4 -6 -2 -5 -13z"/>
<path d="M920 2350 c0 -5 5 -10 10 -10 6 0 10 5 10 10 0 6 -4 10 -10 10 -5 0
-10 -4 -10 -10z"/>
<path d="M2530 2345 c0 -8 4 -15 10 -15 5 0 7 7 4 15 -4 8 -8 15 -10 15 -2 0
-4 -7 -4 -15z"/>
<path d="M4183 2344 c-9 -25 13 -40 26 -16 10 19 6 32 -11 32 -5 0 -11 -7 -15
-16z"/>
<path d="M890 2339 c0 -5 5 -7 10 -4 6 3 10 8 10 11 0 2 -4 4 -10 4 -5 0 -10
-5 -10 -11z"/>
<path d="M5299 2333 c-13 -16 -12 -17 4 -4 16 13 21 21 13 21 -2 0 -10 -8 -17
-17z"/>
<path d="M840 2320 c0 -5 5 -10 10 -10 6 0 10 5 10 10 0 6 -4 10 -10 10 -5 0
-10 -4 -10 -10z"/>
<path d="M7535 2319 c-7 -10 0 -76 12 -126 6 -28 33 -31 33 -4 0 28 23 42 59
35 47 -10 38 9 -28 60 -65 50 -67 51 -76 35z m48 -54 c4 -8 2 -17 -2 -20 -5
-2 -11 4 -14 15 -6 23 8 27 16 5z"/>
<path d="M8993 2299 c-13 -5 -23 -13 -23 -19 0 -13 17 -13 25 0 4 6 10 8 15 5
5 -3 11 -1 14 4 9 15 -6 20 -31 10z"/>
<path d="M2602 2284 c-7 -8 -8 -14 -3 -14 10 0 25 19 20 25 -2 1 -10 -3 -17
-11z"/>
<path d="M7417 2255 c-21 -12 -39 -25 -40 -28 -4 -14 67 -117 80 -117 11 0 13
5 8 18 -17 40 -16 48 9 62 14 7 26 19 26 27 0 17 -11 17 -36 -2 -25 -19 -44
-19 -44 1 0 8 14 20 30 25 17 6 30 17 30 25 0 19 -18 16 -63 -11z"/>
<path d="M810 2250 c-23 -7 -23 -8 -3 -9 12 -1 25 4 28 9 3 6 5 10 3 9 -2 -1
-14 -5 -28 -9z"/>
<path d="M4176 2253 c-11 -11 -6 -23 9 -23 8 0 15 4 15 9 0 13 -16 22 -24 14z"/>
<path d="M5280 2240 c0 -5 5 -10 11 -10 5 0 7 5 4 10 -3 6 -8 10 -11 10 -2 0
-4 -4 -4 -10z"/>
<path d="M7834 2208 c14 -13 32 -41 40 -63 12 -33 15 -36 15 -15 1 31 -44 100
-65 100 -10 0 -7 -7 10 -22z"/>
<path d="M8227 2224 c-5 -6 19 -64 26 -64 2 0 3 9 3 19 0 11 -4 17 -8 15 -7
-5 -12 10 -9 29 1 9 -4 9 -12 1z"/>
<path d="M4165 2210 c-3 -5 1 -10 9 -10 8 0 18 5 21 10 3 6 -1 10 -9 10 -8 0
-18 -4 -21 -10z"/>
<path d="M7298 2187 c-21 -12 -38 -26 -38 -32 0 -17 60 -115 70 -115 13 0 13
16 0 41 -9 16 -6 22 19 37 17 9 31 23 31 30 0 8 -3 12 -7 10 -5 -2 -20 -10
-36 -18 -20 -10 -30 -11 -39 -2 -8 8 -1 17 26 32 36 22 47 40 24 40 -7 -1 -30
-11 -50 -23z"/>
<path d="M8277 2199 c7 -7 15 -10 18 -7 3 3 -2 9 -12 12 -14 6 -15 5 -6 -5z"/>
<path d="M8205 2185 c4 -11 8 -28 9 -37 0 -9 4 -14 8 -12 12 8 9 27 -9 49
l-16 20 8 -20z"/>
<path d="M8430 2165 c0 -8 4 -15 10 -15 5 0 7 7 4 15 -4 8 -8 15 -10 15 -2 0
-4 -7 -4 -15z"/>
<path d="M2541 2144 c0 -11 3 -14 6 -6 3 7 2 16 -1 19 -3 4 -6 -2 -5 -13z"/>
<path d="M8099 2143 c-13 -16 -12 -17 4 -4 16 13 21 21 13 21 -2 0 -10 -8 -17
-17z"/>
<path d="M7671 2129 c-1 -32 38 -93 64 -98 15 -2 12 3 -11 27 -17 17 -35 45
-41 64 -10 30 -11 31 -12 7z"/>
<path d="M4546 2118 c-6 -29 -14 -103 -22 -198 -3 -41 -8 -78 -11 -83 -2 -4
-7 -20 -9 -35 -5 -26 -5 -26 10 -7 11 14 15 16 16 6 1 -41 11 9 24 124 9 72
18 149 21 173 5 34 3 42 -9 42 -9 0 -18 -10 -20 -22z"/>
<path d="M7177 2115 c-41 -28 -45 -43 -22 -80 8 -14 22 -36 30 -49 l15 -25 45
25 c25 14 45 30 45 35 0 14 -15 11 -49 -8 -28 -16 -33 -16 -41 -3 -10 15 0 27
40 50 8 5 11 12 7 16 -4 5 -17 3 -27 -4 -11 -7 -27 -12 -35 -12 -25 0 -17 24
15 42 17 9 30 22 30 28 0 16 -12 12 -53 -15z"/>
<path d="M8350 2121 c0 -5 5 -13 10 -16 6 -3 10 -2 10 4 0 5 -4 13 -10 16 -5
3 -10 2 -10 -4z"/>
<path d="M8051 2115 c0 -5 6 -21 14 -35 8 -14 14 -20 14 -15 0 6 -6 21 -14 35
-8 14 -14 21 -14 15z"/>
<path d="M8100 2111 c0 -5 6 -14 14 -20 12 -10 13 -8 9 8 -5 21 -23 30 -23 12z"/>
<path d="M8420 2111 c0 -5 5 -13 10 -16 6 -3 10 -2 10 4 0 5 -4 13 -10 16 -5
3 -10 2 -10 -4z"/>
<path d="M7542 2077 c-44 -47 -11 -127 52 -127 65 0 90 77 41 125 -30 31 -65
32 -93 2z m80 -14 c28 -32 31 -60 9 -82 -27 -27 -47 -26 -76 4 -29 28 -31 42
-9 73 18 26 55 29 76 5z"/>
<path d="M9021 2084 c0 -11 3 -14 6 -6 3 7 2 16 -1 19 -3 4 -6 -2 -5 -13z"/>
<path d="M7982 2078 c-17 -17 -15 -45 4 -52 14 -5 15 -4 5 8 -9 11 -10 20 -1
35 12 24 10 27 -8 9z"/>
<path d="M8376 2077 c3 -10 9 -15 12 -12 3 3 0 11 -7 18 -10 9 -11 8 -5 -6z"/>
<path d="M7920 2045 c-13 -16 -6 -47 16 -66 12 -10 18 -9 32 6 16 16 16 17 -4
7 -28 -15 -38 -3 -18 19 15 16 14 17 -5 12 -23 -6 -28 6 -9 25 7 7 9 12 6 12
-3 0 -11 -7 -18 -15z"/>
<path d="M8204 2042 c-5 -4 4 -20 20 -37 16 -16 25 -24 22 -17 -4 6 -13 23
-20 36 -7 14 -17 21 -22 18z"/>
<path d="M8297 2039 c7 -7 15 -10 18 -7 3 3 -2 9 -12 12 -14 6 -15 5 -6 -5z"/>
<path d="M7460 2026 c0 -2 12 -27 27 -56 l26 -51 -20 -21 c-29 -29 -57 -16
-90 39 -15 26 -29 41 -31 35 -5 -15 44 -89 66 -101 25 -13 82 21 82 49 0 24
-41 110 -52 110 -4 0 -8 -2 -8 -4z"/>
<path d="M2948 2013 c6 -2 18 -2 25 0 6 3 1 5 -13 5 -14 0 -19 -2 -12 -5z"/>
<path d="M7852 2003 c-20 -18 -20 -18 -1 -48 18 -28 19 -28 19 -7 0 19 4 22
28 17 15 -3 21 -2 15 1 -7 3 -13 11 -13 19 0 7 -6 18 -14 24 -10 9 -18 7 -34
-6z m38 -12 c0 -5 -7 -12 -16 -15 -22 -9 -24 -8 -24 9 0 8 9 15 20 15 11 0 20
-4 20 -9z"/>
<path d="M7785 1968 c-11 -6 -21 -12 -23 -13 -2 -2 6 -18 17 -36 19 -30 21
-31 21 -11 0 19 4 22 28 17 15 -3 21 -2 15 1 -7 3 -13 11 -13 19 0 23 -23 35
-45 23z m35 -17 c0 -5 -7 -12 -16 -15 -22 -9 -24 -8 -24 9 0 8 9 15 20 15 11
0 20 -4 20 -9z"/>
<path d="M8070 1960 c0 -22 25 -60 39 -60 14 0 14 2 2 9 -12 8 -12 12 -2 24
10 13 9 15 -10 10 -18 -5 -21 -3 -16 10 4 10 2 17 -3 17 -6 0 -10 -4 -10 -10z"/>
<path d="M8149 1947 c5 -5 19 -7 32 -5 20 3 19 5 -9 9 -20 3 -29 2 -23 -4z"/>
<path d="M4135 1940 c-3 -5 -1 -10 4 -10 6 0 11 5 11 10 0 6 -2 10 -4 10 -3 0
-8 -4 -11 -10z"/>
<path d="M1205 1930 c-3 -5 -1 -10 4 -10 6 0 11 5 11 10 0 6 -2 10 -4 10 -3 0
-8 -4 -11 -10z"/>
<path d="M1230 1929 c0 -5 5 -7 10 -4 6 3 10 8 10 11 0 2 -4 4 -10 4 -5 0 -10
-5 -10 -11z"/>
<path d="M7328 1915 c18 -8 35 -21 38 -30 10 -25 -4 -61 -30 -79 -24 -15 -25
-15 -56 35 -17 27 -27 55 -24 62 5 9 4 9 -6 0 -10 -9 -5 -23 21 -67 19 -31 38
-56 42 -56 5 0 25 16 44 35 27 27 33 40 28 57 -9 30 -42 58 -69 58 -16 -1 -14
-4 12 -15z"/>
<path d="M7702 1918 c-15 -15 -16 -35 -2 -43 6 -4 9 4 7 17 -2 19 3 23 23 23
34 0 40 -37 8 -53 -18 -10 -19 -11 -4 -9 10 1 24 10 30 20 22 35 -32 75 -62
45z"/>
<path d="M8010 1920 c0 -8 9 -26 20 -40 16 -20 19 -21 13 -5 -10 32 -33 62
-33 45z"/>
<path d="M1113 1905 c-16 -12 -22 -12 -26 -2 -4 9 -6 9 -6 -1 -1 -7 -5 -10
-11 -7 -5 3 -10 -1 -10 -9 0 -9 3 -16 8 -16 12 0 88 49 77 50 -6 0 -20 -7 -32
-15z"/>
<path d="M7984 1880 c0 -11 4 -20 8 -20 4 0 8 9 8 20 0 11 -4 20 -8 20 -4 0
-8 -9 -8 -20z"/>
<path d="M1035 1880 c-3 -5 -12 -7 -20 -3 -10 3 -15 -2 -15 -16 0 -21 1 -21
25 -5 14 9 25 20 25 25 0 12 -7 11 -15 -1z"/>
<path d="M7938 1885 c-7 -7 23 -65 34 -65 3 0 4 9 1 20 -3 11 -9 20 -13 20 -5
0 -10 7 -12 16 -2 9 -6 13 -10 9z"/>
<path d="M2735 1860 c3 -5 -7 -12 -22 -16 -15 -3 -32 -7 -38 -9 -21 -7 292 7
330 14 47 10 45 10 -143 16 -82 3 -131 1 -127 -5z"/>
<path d="M7624 1859 c-3 -6 0 -18 9 -26 13 -13 14 -12 10 11 -6 29 -9 31 -19
15z"/>
<path d="M8200 1863 c0 -5 10 -19 21 -33 11 -14 18 -18 15 -10 -3 8 -9 23 -12
33 -6 17 -24 24 -24 10z"/>
<path d="M3345 1850 c-3 -5 -2 -10 4 -10 5 0 13 5 16 10 3 6 2 10 -4 10 -5 0
-13 -4 -16 -10z"/>
<path d="M7876 1852 c-3 -5 4 -23 15 -41 16 -27 22 -30 39 -21 27 14 25 18 -6
12 -24 -4 -25 -3 -15 16 10 19 9 21 -6 15 -12 -5 -15 -2 -10 10 6 17 -7 24
-17 9z"/>
<path d="M8270 1851 c0 -5 5 -13 10 -16 6 -3 10 -2 10 4 0 5 -4 13 -10 16 -5
3 -10 2 -10 -4z"/>
<path d="M1304 1825 c-3 -8 -4 -20 -1 -27 3 -7 6 -3 6 10 1 15 5 21 13 16 7
-4 8 -3 4 4 -10 16 -15 15 -22 -3z"/>
<path d="M1341 1824 c0 -11 3 -14 6 -6 3 7 2 16 -1 19 -3 4 -6 -2 -5 -13z"/>
<path d="M1400 1831 c0 -5 9 -7 20 -4 11 3 20 7 20 9 0 2 -9 4 -20 4 -11 0
-20 -4 -20 -9z"/>
<path d="M7583 1810 c6 -16 15 -30 19 -30 11 0 10 4 -4 35 -16 35 -29 31 -15
-5z"/>
<path d="M8155 1830 c3 -5 8 -10 11 -10 2 0 4 5 4 10 0 6 -5 10 -11 10 -5 0
-7 -4 -4 -10z"/>
<path d="M1266 1822 c-3 -5 1 -9 9 -9 8 0 12 4 9 9 -3 4 -7 8 -9 8 -2 0 -6 -4
-9 -8z"/>
<path d="M7823 1823 c-19 -7 -16 -28 8 -54 11 -13 17 -18 14 -11 -4 8 1 19 11
26 32 24 5 55 -33 39z m37 -12 c0 -14 -18 -23 -30 -16 -6 4 -8 11 -5 16 8 12
35 12 35 0z"/>
<path d="M8104 1812 c-8 -5 -5 -16 9 -37 10 -16 16 -21 12 -10 -5 11 -8 28 -9
38 0 9 0 17 -1 17 0 0 -5 -4 -11 -8z"/>
<path d="M8190 1810 c0 -5 5 -10 11 -10 5 0 7 5 4 10 -3 6 -8 10 -11 10 -2 0
-4 -4 -4 -10z"/>
<path d="M7530 1791 c15 -30 30 -35 17 -6 -7 14 -16 25 -20 25 -4 0 -3 -9 3
-19z"/>
<path d="M8160 1791 c0 -25 6 -27 13 -6 4 8 2 17 -3 20 -6 4 -10 -3 -10 -14z"/>
<path d="M7490 1793 c0 -5 10 -19 21 -33 l20 -25 -16 33 c-15 30 -25 41 -25
25z"/>
<path d="M7778 1766 c-2 -20 0 -39 4 -42 4 -3 8 5 8 17 0 18 2 19 15 9 21 -17
18 0 -4 29 l-18 24 -5 -37z"/>
<path d="M9190 1791 c0 -6 4 -13 10 -16 6 -3 7 1 4 9 -7 18 -14 21 -14 7z"/>
<path d="M1136 1782 c6 -4 7 -18 4 -32 l-7 -25 -12 28 c-13 34 -35 31 -39 -6
-2 -19 2 -29 14 -34 10 -4 19 -2 21 4 2 6 12 9 22 6 10 -3 22 1 26 8 6 8 4 10
-5 4 -10 -6 -12 -1 -7 23 5 26 3 32 -11 32 -10 0 -13 -3 -6 -8z m-26 -27 c0
-8 0 -18 1 -22 0 -4 -4 -9 -10 -11 -6 -2 -11 8 -11 22 0 14 5 26 10 26 6 0 10
-7 10 -15z"/>
<path d="M3004 1775 c-10 -8 -14 -14 -9 -14 6 0 19 6 29 14 11 8 15 15 10 15
-6 0 -19 -7 -30 -15z"/>
<path d="M1270 1770 c0 -5 5 -10 11 -10 5 0 7 5 4 10 -3 6 -8 10 -11 10 -2 0
-4 -4 -4 -10z"/>
<path d="M7436 1765 c-18 -18 -21 -41 -7 -49 5 -4 7 2 4 12 -2 10 2 24 10 31
13 10 19 8 37 -11 13 -13 21 -17 18 -9 -2 8 -13 21 -25 28 -18 12 -23 12 -37
-2z"/>
<path d="M8033 1773 c-27 -10 -13 -33 20 -32 31 2 31 2 4 6 -23 4 -26 7 -16
19 12 15 11 15 -8 7z"/>
<path d="M4498 1735 c6 -35 34 -42 30 -8 -2 15 -10 27 -19 28 -12 2 -15 -3
-11 -20z"/>
<path d="M7738 1731 c9 -16 18 -28 20 -27 6 7 -18 56 -27 56 -6 0 -2 -13 7
-29z"/>
<path d="M980 1728 c0 -13 5 -30 10 -38 8 -13 10 -13 10 1 0 9 7 19 15 23 9 3
15 0 15 -9 0 -8 8 -15 18 -15 11 0 13 3 5 8 -7 4 -16 19 -22 32 -7 18 -10 20
-10 8 -1 -10 -8 -18 -17 -18 -14 0 -14 3 -4 15 10 12 10 15 -4 15 -10 0 -16
-8 -16 -22z"/>
<path d="M8005 1722 c9 -18 13 -38 9 -44 -4 -7 -3 -8 4 -4 17 10 14 28 -9 56
l-20 25 16 -33z"/>
<path d="M4125 1730 c3 -5 10 -10 16 -10 5 0 9 5 9 10 0 6 -7 10 -16 10 -8 0
-12 -4 -9 -10z"/>
<path d="M939 1709 c-1 -17 -3 -19 -6 -6 -5 20 -16 22 -31 5 -16 -20 19 -58
47 -51 24 6 27 30 6 57 -15 19 -15 19 -16 -5z m-19 -19 c0 -5 -2 -10 -4 -10
-3 0 -8 5 -11 10 -3 6 -1 10 4 10 6 0 11 -4 11 -10z"/>
<path d="M4112 1708 c5 -15 28 -23 28 -10 0 5 -7 13 -16 16 -10 4 -14 1 -12
-6z"/>
<path d="M7726 1707 c3 -10 9 -15 12 -12 3 3 0 11 -7 18 -10 9 -11 8 -5 -6z"/>
<path d="M7955 1696 c10 -14 19 -26 22 -26 7 0 -17 39 -28 46 -6 3 -3 -5 6
-20z"/>
<path d="M4496 1681 c-6 -16 -4 -26 5 -32 9 -6 10 -9 2 -9 -20 0 -26 -39 -9
-55 14 -14 16 -13 22 8 3 14 2 44 -3 68 -8 39 -10 41 -17 20z"/>
<path d="M7595 1691 c-3 -6 1 -21 10 -33 16 -23 16 -23 9 7 -8 37 -10 39 -19
26z"/>
<path d="M7888 1688 c-14 -12 -14 -16 3 -43 11 -17 19 -23 19 -14 0 8 -5 20
-11 26 -14 14 -3 33 18 33 9 0 13 -6 9 -15 -3 -8 -1 -15 5 -15 16 0 6 34 -11
38 -9 1 -23 -3 -32 -10z"/>
<path d="M2115 1679 c-90 -20 -84 -15 -75 -56 5 -21 14 -64 20 -96 l12 -58 31
7 c18 3 33 8 35 9 2 2 -4 40 -13 85 -15 76 -16 119 0 71 4 -12 11 -18 17 -15
8 5 9 1 4 -11 -4 -11 -4 -43 0 -72 6 -49 8 -53 28 -47 29 9 30 11 19 26 -12
15 -29 112 -25 146 2 12 -1 22 -5 21 -4 -1 -26 -5 -48 -10z"/>
<path d="M4110 1661 c0 -15 28 -52 31 -40 9 48 6 59 -12 59 -12 0 -19 -7 -19
-19z"/>
<path d="M7656 1667 c3 -10 9 -15 12 -12 3 3 0 11 -7 18 -10 9 -11 8 -5 -6z"/>
<path d="M7825 1649 c-4 -6 -5 -12 -2 -15 2 -3 7 2 10 11 7 17 1 20 -8 4z"/>
<path d="M6950 1629 c0 -5 5 -7 10 -4 6 3 10 8 10 11 0 2 -4 4 -10 4 -5 0 -10
-5 -10 -11z"/>
<path d="M7495 1630 c3 -5 8 -10 11 -10 2 0 4 5 4 10 0 6 -5 10 -11 10 -5 0
-7 -4 -4 -10z"/>
<path d="M7530 1636 c0 -13 53 -27 64 -16 7 7 3 10 -11 10 -12 0 -28 3 -37 6
-9 3 -16 3 -16 0z"/>
<path d="M7795 1599 c9 -17 19 -29 21 -26 7 7 -18 57 -28 57 -5 0 -1 -14 7
-31z"/>
<path d="M4084 1609 c-3 -6 -1 -16 5 -22 8 -8 11 -5 11 11 0 24 -5 28 -16 11z"/>
<path d="M4111 1604 c0 -11 3 -14 6 -6 3 7 2 16 -1 19 -3 4 -6 -2 -5 -13z"/>
<path d="M7829 1608 c7 -10 25 -17 40 -17 l26 2 -25 4 c-14 3 -32 10 -40 16
-13 11 -13 10 -1 -5z"/>
<path d="M7733 1580 c-1 -11 3 -20 8 -20 6 0 7 5 4 10 -3 6 -1 10 5 10 6 0 8
5 5 10 -10 16 -21 11 -22 -10z"/>
<path d="M1821 1574 c0 -11 3 -14 6 -6 3 7 2 16 -1 19 -3 4 -6 -2 -5 -13z"/>
<path d="M7433 1565 c-1 -11 2 -33 6 -50 l7 -30 6 28 c3 15 2 27 -3 27 -4 0
-10 10 -12 23 -3 18 -4 18 -4 2z"/>
<path d="M7476 1563 c-4 -10 -4 -14 0 -10 4 4 13 2 21 -4 8 -7 13 -8 13 -1 0
5 -6 15 -14 21 -11 9 -15 8 -20 -6z"/>
<path d="M7660 1550 c-9 -6 -10 -10 -3 -10 6 0 15 5 18 10 8 12 4 12 -15 0z"/>
<path d="M1831 1534 c0 -11 3 -14 6 -6 3 7 2 16 -1 19 -3 4 -6 -2 -5 -13z"/>
<path d="M4479 1526 c-11 -23 -11 -30 -1 -34 6 -2 12 -8 12 -13 0 -6 -4 -7
-10 -4 -6 3 -10 -4 -10 -16 0 -16 3 -20 10 -13 17 17 28 67 20 89 -7 18 -9 18
-21 -9z"/>
<path d="M1841 1484 c0 -11 3 -14 6 -6 3 7 2 16 -1 19 -3 4 -6 -2 -5 -13z"/>
<path d="M4472 1432 c-7 -5 -17 -46 -23 -98 -5 -49 -11 -99 -13 -111 -3 -14 2
-23 13 -26 16 -4 19 9 30 106 7 61 15 117 18 124 6 15 -6 17 -25 5z"/>
<path d="M2030 1420 c0 -5 5 -10 11 -10 5 0 7 5 4 10 -3 6 -8 10 -11 10 -2 0
-4 -4 -4 -10z"/>
<path d="M7560 1414 c0 -8 5 -12 10 -9 6 3 10 10 10 16 0 5 -4 9 -10 9 -5 0
-10 -7 -10 -16z"/>
<path d="M1996 1403 c-6 -14 -5 -15 5 -6 7 7 10 15 7 18 -3 3 -9 -2 -12 -12z"/>
<path d="M7525 1400 c3 -5 11 -10 16 -10 6 0 7 5 4 10 -3 6 -11 10 -16 10 -6
0 -7 -4 -4 -10z"/>
<path d="M2856 1381 c-4 -5 -3 -17 0 -26 5 -13 8 -14 15 -3 5 7 9 19 9 26 0
14 -16 16 -24 3z"/>
<path d="M1865 1285 c-4 -16 -17 -38 -29 -48 -11 -10 -15 -16 -8 -12 6 3 12 0
12 -7 0 -10 3 -9 11 2 8 12 10 9 6 -12 -2 -16 -1 -28 4 -28 4 0 11 -9 14 -21
4 -12 11 -17 16 -12 4 4 3 43 -5 88 -11 70 -14 76 -21 50z m19 -101 c3 -8 2
-12 -4 -9 -6 3 -10 10 -10 16 0 14 7 11 14 -7z"/>
<path d="M2090 1261 c0 -7 -5 -9 -12 -5 -7 5 -8 3 -3 -5 5 -9 10 -10 18 -2 6
6 8 14 4 18 -4 3 -7 1 -7 -6z"/>
<path d="M1975 1251 c-3 -5 -1 -12 5 -16 5 -3 10 0 10 7 0 9 2 10 8 2 5 -9 11
-8 20 2 11 12 9 14 -12 14 -14 0 -27 -4 -31 -9z"/>
<path d="M2040 1247 c0 -8 7 -14 15 -14 11 0 12 4 4 14 -6 7 -13 13 -15 13 -2
0 -4 -6 -4 -13z"/>
<path d="M8723 1230 c6 -16 15 -30 19 -30 4 0 2 14 -3 30 -6 17 -15 30 -19 30
-5 0 -3 -13 3 -30z"/>
<path d="M1331 1235 c-126 -28 -211 -67 -211 -97 0 -13 119 -6 128 8 13 17 76
44 132 55 49 10 110 34 110 43 0 9 -103 3 -159 -9z"/>
<path d="M8644 1215 c-11 -27 1 -33 19 -9 16 21 16 24 2 24 -9 0 -18 -7 -21
-15z"/>
<path d="M1981 1215 c-1 -13 19 -35 31 -35 4 0 8 5 8 10 0 6 -6 10 -14 10 -8
0 -17 6 -19 13 -3 6 -6 7 -6 2z"/>
<path d="M4100 1181 c0 -12 5 -21 10 -21 6 0 10 6 10 14 0 8 -4 18 -10 21 -5
3 -10 -3 -10 -14z"/>
<path d="M8418 1193 c7 -3 16 -2 19 1 4 3 -2 6 -13 5 -11 0 -14 -3 -6 -6z"/>
<path d="M0 592 l0 -592 563 0 563 0 32 29 c31 29 45 77 20 69 -7 -3 -21 13
-31 34 -11 21 -23 38 -28 38 -6 0 -31 20 -57 45 -26 25 -50 45 -55 45 -5 0
-36 27 -69 59 -34 32 -78 69 -98 82 -21 13 -46 37 -57 52 -10 15 -30 35 -45
45 -14 9 -71 60 -125 113 -54 52 -108 102 -120 110 -11 7 -66 57 -122 109 -57
52 -107 97 -113 99 -6 2 -25 20 -42 39 -17 20 -37 40 -44 46 -7 6 -49 47 -92
90 l-80 80 0 -592z"/>
<path d="M4432 1154 c-10 -11 -8 -15 8 -24 15 -8 20 -8 20 2 0 26 -14 37 -28
22z"/>
<path d="M1995 1151 c-3 -5 -1 -12 5 -16 12 -7 30 2 30 16 0 12 -27 12 -35 0z"/>
<path d="M4535 1149 c-11 -16 -1 -19 13 -3 7 8 8 14 3 14 -5 0 -13 -5 -16 -11z"/>
<path d="M2000 1109 c0 -11 27 -12 34 -1 2 4 -4 9 -15 9 -10 1 -19 -2 -19 -8z"/>
<path d="M4103 1100 c-1 -11 2 -22 6 -24 3 -3 8 6 9 20 1 13 -2 24 -6 24 -4 0
-8 -9 -9 -20z"/>
<path d="M4434 1103 c2 -13 0 -23 -4 -23 -5 0 -9 -8 -8 -17 0 -10 -2 -35 -5
-56 -5 -30 -3 -36 7 -28 7 6 16 7 21 3 4 -4 5 4 2 17 -3 14 -1 32 6 40 10 12
9 13 -2 7 -10 -6 -12 -4 -7 11 4 11 2 31 -4 44 -10 23 -10 23 -6 2z"/>
<path d="M2004 1078 c-3 -4 4 -8 15 -8 11 0 22 4 25 8 2 4 -4 8 -15 8 -11 0
-23 -4 -25 -8z"/>
<path d="M4525 1080 c-4 -6 -11 -7 -17 -4 -7 4 -8 2 -4 -5 5 -8 12 -9 19 -3 7
5 19 12 27 15 12 4 12 6 -2 6 -9 1 -20 -4 -23 -9z"/>
<path d="M4534 1056 c-3 -8 -4 -25 -2 -38 3 -17 5 -13 9 15 5 38 2 47 -7 23z"/>
<path d="M2023 1053 c-18 -7 -16 -23 2 -23 8 0 15 7 15 15 0 8 -1 15 -2 14 -2
0 -9 -3 -15 -6z"/>
<path d="M2061 1051 c-8 -5 -9 -11 -3 -15 5 -3 12 1 16 9 6 17 6 18 -13 6z"/>
<path d="M4104 1039 c-3 -6 -1 -16 4 -21 8 -8 11 -5 9 11 -1 24 -3 25 -13 10z"/>
<path d="M9520 1031 c0 -6 4 -13 10 -16 6 -3 7 1 4 9 -7 18 -14 21 -14 7z"/>
<path d="M4474 1008 c-3 -4 6 -7 20 -6 15 1 26 6 26 10 0 9 -40 6 -46 -4z"/>
<path d="M4100 976 c0 -14 4 -27 9 -30 5 -3 8 8 7 24 -1 36 -16 41 -16 6z"/>
<path d="M2015 980 c-7 -12 -8 -11 28 -14 17 -2 27 2 27 11 0 16 -17 17 -23 1
-4 -10 -6 -10 -6 0 -1 14 -17 16 -26 2z"/>
<path d="M4520 964 c-6 -15 -14 -22 -22 -18 -7 4 -8 3 -4 -4 9 -15 53 15 53
35 0 22 -17 14 -27 -13z"/>
<path d="M9541 974 c0 -11 3 -14 6 -6 3 7 2 16 -1 19 -3 4 -6 -2 -5 -13z"/>
<path d="M2098 953 c-22 -5 -24 -20 -3 -20 8 0 16 6 19 14 3 7 4 12 3 12 -1
-1 -10 -3 -19 -6z"/>
<path d="M4415 950 c-4 -6 -3 -16 3 -22 6 -6 12 -6 17 2 4 6 3 16 -3 22 -6 6
-12 6 -17 -2z"/>
<path d="M2023 938 c2 -7 12 -13 22 -13 10 0 20 6 23 13 2 7 -6 12 -23 12 -17
0 -25 -5 -22 -12z"/>
<path d="M2489 933 c-11 -13 -11 -17 -1 -20 6 -3 12 -14 12 -26 0 -18 2 -19
10 -7 12 19 13 70 1 70 -5 0 -15 -7 -22 -17z"/>
<path d="M4530 924 c-6 -14 -10 -29 -10 -34 0 -5 -13 -8 -29 -8 -15 1 -33 -2
-39 -6 -6 -4 -21 3 -33 15 -12 12 -19 15 -17 8 3 -8 -2 -20 -11 -27 -9 -8 -10
-11 -3 -7 6 3 12 1 12 -4 0 -6 7 -11 15 -11 8 0 15 4 15 8 0 7 11 10 75 16 43
4 65 16 58 32 -4 12 -8 11 -19 -3 -12 -16 -12 -14 -4 15 10 38 4 43 -10 6z"/>
<path d="M2038 905 c-3 -3 -3 -17 0 -30 5 -27 32 -35 32 -9 0 8 -4 12 -10 9
-6 -3 -7 1 -4 9 3 9 11 13 17 9 6 -3 7 -1 3 5 -7 12 -29 16 -38 7z"/>
<path d="M2355 875 c-98 -34 -248 -60 -313 -53 -38 3 -41 2 -35 -17 4 -11 8
-31 8 -45 4 -64 28 -80 135 -86 113 -8 255 32 314 88 12 11 36 28 54 39 17 12
32 29 32 39 0 10 3 25 6 34 8 21 -19 21 -37 0 -33 -40 -195 -99 -314 -114 -50
-6 -85 -5 -125 5 l-55 13 105 -2 c64 0 125 4 155 13 72 20 79 32 9 16 -64 -15
-184 -20 -149 -6 11 5 40 11 65 14 58 7 154 35 244 72 26 10 27 12 10 16 -10
3 -59 -9 -109 -26z m50 -135 c-3 -5 -11 -10 -16 -10 -6 0 -7 5 -4 10 3 6 11
10 16 10 6 0 7 -4 4 -10z"/>
<path d="M4105 891 c-3 -5 -1 -12 4 -15 5 -3 11 1 15 9 6 16 -9 21 -19 6z"/>
<path d="M3365 852 c3 -17 2 -46 -3 -65 -12 -42 3 -77 61 -143 37 -42 142
-112 160 -106 4 1 7 -2 7 -7 0 -5 35 -24 78 -42 294 -123 672 -166 748 -84 13
14 43 34 68 44 24 11 48 25 52 33 9 13 23 150 15 143 -2 -3 -12 0 -22 5 -12 7
-20 7 -24 0 -4 -6 -10 -8 -15 -5 -5 3 -18 -3 -30 -15 -24 -24 -65 -28 -56 -5
9 25 -12 17 -42 -15 -29 -30 -84 -42 -97 -20 -3 5 0 7 8 4 8 -3 17 2 20 10 4
9 -1 17 -14 21 -11 4 -24 16 -29 28 -8 21 -9 21 -10 2 0 -12 -3 -16 -8 -9 -10
15 -52 28 -52 16 0 -6 6 -13 13 -16 6 -3 3 -4 -8 -3 -11 2 -19 9 -17 17 3 11
0 11 -12 1 -8 -7 -21 -11 -28 -8 -8 4 -7 6 5 6 22 1 23 21 1 21 -13 0 -15 7
-11 28 2 15 1 36 -3 47 -6 14 -9 15 -10 5 -7 -72 -19 -100 -43 -99 -17 1 -18
2 -4 6 9 2 17 9 17 14 0 14 -38 11 -43 -3 -4 -8 -6 -7 -6 3 -1 20 -71 35 -82
18 -4 -8 -8 -7 -11 1 -5 17 -86 24 -104 9 -13 -10 -14 -6 -9 32 5 39 1 40 -10
2 -3 -10 -11 -10 -32 -2 -15 6 -35 12 -43 13 -81 11 -131 25 -227 64 -62 25
-122 54 -134 65 l-21 20 7 -31z m1147 -244 c-7 -7 -12 -8 -12 -2 0 14 12 26
19 19 2 -3 -1 -11 -7 -17z m-194 -90 c-2 -6 -11 -12 -20 -14 -11 -1 -15 3 -11
12 6 17 36 19 31 2z m-3 -50 c0 -6 7 -12 15 -14 8 -1 26 -6 40 -12 22 -8 20
-10 -24 -16 -51 -8 -122 0 -132 15 -3 5 3 10 13 10 50 3 85 18 77 32 -4 7 -3
8 2 4 5 -5 9 -13 9 -19z m-388 -14 c-3 -3 -12 -4 -19 -1 -8 3 -5 6 6 6 11 1
17 -2 13 -5z"/>
<path d="M4492 835 c-1 -12 -7 -26 -13 -32 -8 -8 -8 -13 1 -18 17 -11 22 -1
17 37 -2 18 -5 24 -5 13z"/>
<path d="M4100 811 c0 -5 5 -13 10 -16 6 -3 10 -2 10 4 0 5 -4 13 -10 16 -5 3
-10 2 -10 -4z"/>
<path d="M4396 813 c-3 -4 -6 -15 -6 -25 0 -13 7 -18 28 -18 19 0 23 3 13 9
-7 5 -11 13 -7 19 7 11 -18 24 -28 15z"/>
<path d="M4511 804 c0 -11 3 -14 6 -6 3 7 2 16 -1 19 -3 4 -6 -2 -5 -13z"/>
<path d="M4570 801 c0 -17 -42 -56 -60 -56 -8 0 -18 -4 -22 -9 -8 -12 10 -26
32 -25 10 0 8 3 -5 9 -17 7 -15 9 12 9 27 1 33 6 43 37 7 19 9 38 6 41 -3 4
-6 1 -6 -6z"/>
<path d="M9621 774 c0 -11 3 -14 6 -6 3 7 2 16 -1 19 -3 4 -6 -2 -5 -13z"/>
<path d="M4380 715 c0 -35 34 -35 36 0 2 18 -3 25 -17 25 -14 0 -19 -7 -19
-25z"/>
<path d="M4238 693 c7 -3 16 -2 19 1 4 3 -2 6 -13 5 -11 0 -14 -3 -6 -6z"/>
<path d="M4510 690 c-9 -6 -10 -10 -3 -10 6 0 15 5 18 10 8 12 4 12 -15 0z"/>
<path d="M4462 677 c-8 -10 -6 -13 9 -14 19 -2 26 11 10 21 -5 3 -14 0 -19 -7z"/>
<path d="M4378 657 c-4 -18 0 -23 19 -25 14 -1 21 2 18 8 -4 6 -11 7 -17 4 -6
-4 -6 2 1 15 9 17 9 21 -2 21 -8 0 -17 -10 -19 -23z"/>
<path d="M9335 640 c-6 -10 15 -50 28 -50 4 0 3 9 -3 20 -6 11 -8 25 -5 30 3
6 2 10 -4 10 -5 0 -12 -4 -16 -10z"/>
<path d="M9300 590 c6 -11 13 -20 16 -20 2 0 0 9 -6 20 -6 11 -13 20 -16 20
-2 0 0 -9 6 -20z"/>
<path d="M9260 564 c0 -22 2 -25 15 -14 12 10 13 16 4 26 -16 20 -19 18 -19
-12z"/>
<path d="M8650 193 c1 -14 30 -48 30 -34 0 7 -7 19 -15 27 -8 9 -15 12 -15 7z"/>
<path d="M8641 144 c0 -11 3 -14 6 -6 3 7 2 16 -1 19 -3 4 -6 -2 -5 -13z"/>
<path d="M1212 35 c-7 -14 -12 -28 -12 -30 0 -3 29 -5 65 -5 l66 0 -34 30
c-42 37 -70 38 -85 5z"/>
</g>
</svg>
